<?xml version="1.0" standalone="no"?>
<!DOCTYPE svg PUBLIC "-//W3C//DTD SVG 1.1//EN" "http://www.w3.org/Graphics/SVG/1.1/DTD/svg11.dtd" >
<svg xmlns="http://www.w3.org/2000/svg" xmlns:xlink="http://www.w3.org/1999/xlink" version="1.1">
<metadata>
Created by FontForge 20170731 at Fri Jan  1 02:30:17 1904
 By Aleksey,,,
(c) Copyright the ParaGraph Intl. Designer Alexander Tarbeev. Creative Tool-FastFont.
</metadata>
<defs>
<font id="CrashCTT-Regular" horiz-adv-x="435" >
  <font-face 
    font-family="CrashCTT"
    font-weight="400"
    font-stretch="normal"
    units-per-em="1000"
    panose-1="5 2 0 0 0 0 0 0 0 0"
    ascent="800"
    descent="-200"
    x-height="430"
    cap-height="624"
    bbox="-44 -220 914 785"
    underline-thickness="40"
    underline-position="-140"
    unicode-range="U+0020-2219"
  />
<missing-glyph horiz-adv-x="480" 
d="M40 0v532h400v-532h-400zM80 40h320v452h-320v-452z" />
    <glyph glyph-name=".notdef" horiz-adv-x="480" 
d="M40 0v532h400v-532h-400zM80 40h320v452h-320v-452z" />
    <glyph glyph-name=".null" horiz-adv-x="0" 
 />
    <glyph glyph-name="nonmarkingreturn" horiz-adv-x="333" 
 />
    <glyph glyph-name="space" unicode=" " horiz-adv-x="300" 
 />
    <glyph glyph-name="space" unicode="&#xf020;" horiz-adv-x="300" 
 />
    <glyph glyph-name="exclam" unicode="!" horiz-adv-x="287" 
d="M71 655h58q-1 -10 9 -10q9 0 13 10h41q10 0 11.5 -14t-0.5 -32t-5 -34t-3 -19q0 -34 1 -36q5 -9 4 -23t-4 -28t-6 -26t-3 -19q-2 -2 -3.5 -29.5t-2.5 -61t-1.5 -62.5t-1.5 -34l-9 7h-72q5 13 5 23q0 16 -3 33.5t-7 33.5t-8 29.5t-5 21.5v11q0 3 2.5 11.5t2.5 20.5
q0 19 -5.5 33.5t-3.5 31.5l-4 5v14q0 22 3.5 42.5t4.5 32.5q-1 8 -2.5 14.5t-1.5 10.5q0 16 2.5 23.5t-6.5 19.5zM87 484h10q3 0 5 18q4 24 -5.5 19t-9.5 -37zM102 439v27h-9v-27h9zM178 345v18h-9v-18h9zM71 151v23l4 9q1 2 28.5 3.5t56.5 1.5h32q9 -20 9 -50v-8
q0 -14 0.5 -39t0.5 -42h-127q-4 0 -4 20q0 9 2 14t2 11q0 16 -2 30.5t-2 26.5z" />
    <glyph glyph-name="exclam" unicode="&#xf021;" horiz-adv-x="287" 
d="M71 655h58q-1 -10 9 -10q9 0 13 10h41q10 0 11.5 -14t-0.5 -32t-5 -34t-3 -19q0 -34 1 -36q5 -9 4 -23t-4 -28t-6 -26t-3 -19q-2 -2 -3.5 -29.5t-2.5 -61t-1.5 -62.5t-1.5 -34l-9 7h-72q5 13 5 23q0 16 -3 33.5t-7 33.5t-8 29.5t-5 21.5v11q0 3 2.5 11.5t2.5 20.5
q0 19 -5.5 33.5t-3.5 31.5l-4 5v14q0 22 3.5 42.5t4.5 32.5q-1 8 -2.5 14.5t-1.5 10.5q0 16 2.5 23.5t-6.5 19.5zM87 484h10q3 0 5 18q4 24 -5.5 19t-9.5 -37zM102 439v27h-9v-27h9zM178 345v18h-9v-18h9zM71 151v23l4 9q1 2 28.5 3.5t56.5 1.5h32q9 -20 9 -50v-8
q0 -14 0.5 -39t0.5 -42h-127q-4 0 -4 20q0 9 2 14t2 11q0 16 -2 30.5t-2 26.5z" />
    <glyph glyph-name="quotedbl" unicode="&#x22;" horiz-adv-x="358" 
d="M192 619l85 -5q26 -1 30 -16t-2 -36t-15 -44.5t-8 -42.5q0 -10 3 -16t-8 -6q-8 0 -20.5 1t-28.5 3q-16 16 -15.5 42t-2.5 48q-4 41 -18 72zM31 605q0 10 14 10t12 -5t12 -5q24 0 29 9h58q-6 -14 -9 -40.5t-6.5 -53.5t-8 -47t-12.5 -20l-58 -5q-3 0 -6 18.5t-3 24.5
q0 2 2.5 11.5t2.5 24.5q0 14 -13.5 35t-13.5 43zM281 550q16 0 16 28h-11q-5 0 -5 -28zM273 556v9h-9v-9h9zM267 484h10q-1 0 2 8t3 24q0 15 -2 14.5t-5 -8t-5.5 -19t-2.5 -19.5zM84 466v36h-9v-36h9z" />
    <glyph glyph-name="quotedbl" unicode="&#xf022;" horiz-adv-x="358" 
d="M192 619l85 -5q26 -1 30 -16t-2 -36t-15 -44.5t-8 -42.5q0 -10 3 -16t-8 -6q-8 0 -20.5 1t-28.5 3q-16 16 -15.5 42t-2.5 48q-4 41 -18 72zM31 605q0 10 14 10t12 -5t12 -5q24 0 29 9h58q-6 -14 -9 -40.5t-6.5 -53.5t-8 -47t-12.5 -20l-58 -5q-3 0 -6 18.5t-3 24.5
q0 2 2.5 11.5t2.5 24.5q0 14 -13.5 35t-13.5 43zM281 550q16 0 16 28h-11q-5 0 -5 -28zM273 556v9h-9v-9h9zM267 484h10q-1 0 2 8t3 24q0 15 -2 14.5t-5 -8t-5.5 -19t-2.5 -19.5zM84 466v36h-9v-36h9z" />
    <glyph glyph-name="numbersign" unicode="#" horiz-adv-x="704" 
d="M247 574l8 13l86 -4l-9 -18q1 -23 0 -44.5t-5 -40.5q-2 -11 -3 -17l-1 -6h92q-5 19 -1.5 36t8.5 33t10.5 31t5.5 30h80q0 -37 -10 -71t-10 -54q0 -4 4 -5l99 -9v-2q0 -14 -7 -31t-7 -38q0 -6 5 -21h-114v-83q-10 -12 -12 -51h95l4 -7q1 -2 1 -16q0 -19 -6 -37t-8 -28
q-2 -5 -13.5 -7.5t-26.5 -3.5t-30.5 -1.5t-24.5 -0.5q-5 0 -8 -7.5t-4 -12.5t-2.5 -1.5t-3.5 25.5q-1 18 -9 27.5t-17 9t-16 -12t-7 -35.5q0 -13 9 -26t23 -13q8 0 13 14q5 -5 5 -23t-1.5 -34.5t-3.5 -31.5q-2 -6 -5 -8q-8 0 -22 0.5t-28 2t-24.5 4t-10.5 7.5q0 20 5.5 42
t8.5 50v5q0 12 -9 18t-21 8t-24.5 1.5t-19.5 -0.5h-16q5 -9 3.5 -18.5t-5.5 -20.5t-8 -24t-4 -30v-11q15 -15 3.5 -22.5t-32.5 -11.5t-42 -4.5t-23 -0.5q2 0 3 9t1.5 20t0.5 19.5v8.5q7 10 13.5 21t4.5 15l-9 45l-90 9v2q0 11 1 25t3 31q4 34 18 34h90q1 0 6 12t10 27.5
t9.5 31t4.5 22.5q-13 0 -12 -10v45h-99l-4 31q7 5 10.5 16.5t5.5 23t2.5 20.5t0.5 10h89l13 7q7 3 14 58q3 27 0 54zM155 381h-7q-1 -1 -1 -5q0 -10 26 -10q0 15 -18 15zM220 372v9h-18v-9h18zM227 342q3 0 9.5 6t13.5 13.5t12.5 14t5.5 8.5q-41 0 -41 -42zM290 224h87
q-1 0 1 16t5.5 35t7 36.5t4.5 20.5q6 22 -3.5 22h-26.5h-33q-14 0 -22 -4t-10 -9q-3 -9 -8 -13.5t-8 -14t-2.5 -29.5t8.5 -60zM211 305q0 -1 -0.5 -6t-1.5 -8.5t-2 -5t-1 3.5q0 8 5 16zM457 215v13h-9v-13h9zM417 139l5 -5v-40q-19 -3 -19 18q0 25 14 27z" />
    <glyph glyph-name="numbersign" unicode="&#xf023;" horiz-adv-x="704" 
d="M247 574l8 13l86 -4l-9 -18q1 -23 0 -44.5t-5 -40.5q-2 -11 -3 -17l-1 -6h92q-5 19 -1.5 36t8.5 33t10.5 31t5.5 30h80q0 -37 -10 -71t-10 -54q0 -4 4 -5l99 -9v-2q0 -14 -7 -31t-7 -38q0 -6 5 -21h-114v-83q-10 -12 -12 -51h95l4 -7q1 -2 1 -16q0 -19 -6 -37t-8 -28
q-2 -5 -13.5 -7.5t-26.5 -3.5t-30.5 -1.5t-24.5 -0.5q-5 0 -8 -7.5t-4 -12.5t-2.5 -1.5t-3.5 25.5q-1 18 -9 27.5t-17 9t-16 -12t-7 -35.5q0 -13 9 -26t23 -13q8 0 13 14q5 -5 5 -23t-1.5 -34.5t-3.5 -31.5q-2 -6 -5 -8q-8 0 -22 0.5t-28 2t-24.5 4t-10.5 7.5q0 20 5.5 42
t8.5 50v5q0 12 -9 18t-21 8t-24.5 1.5t-19.5 -0.5h-16q5 -9 3.5 -18.5t-5.5 -20.5t-8 -24t-4 -30v-11q15 -15 3.5 -22.5t-32.5 -11.5t-42 -4.5t-23 -0.5q2 0 3 9t1.5 20t0.5 19.5v8.5q7 10 13.5 21t4.5 15l-9 45l-90 9v2q0 11 1 25t3 31q4 34 18 34h90q1 0 6 12t10 27.5
t9.5 31t4.5 22.5q-13 0 -12 -10v45h-99l-4 31q7 5 10.5 16.5t5.5 23t2.5 20.5t0.5 10h89l13 7q7 3 14 58q3 27 0 54zM155 381h-7q-1 -1 -1 -5q0 -10 26 -10q0 15 -18 15zM220 372v9h-18v-9h18zM227 342q3 0 9.5 6t13.5 13.5t12.5 14t5.5 8.5q-41 0 -41 -42zM290 224h87
q-1 0 1 16t5.5 35t7 36.5t4.5 20.5q6 22 -3.5 22h-26.5h-33q-14 0 -22 -4t-10 -9q-3 -9 -8 -13.5t-8 -14t-2.5 -29.5t8.5 -60zM211 305q0 -1 -0.5 -6t-1.5 -8.5t-2 -5t-1 3.5q0 8 5 16zM457 215v13h-9v-13h9zM417 139l5 -5v-40q-19 -3 -19 18q0 25 14 27z" />
    <glyph glyph-name="dollar" unicode="$" 
d="M247 668q-3 -33 4 -49q20 -4 44.5 -14t46 -25t36.5 -34.5t17 -43.5q-2 -22 2 -37.5t4 -34.5h-114q-5 16 -18 54q-2 14 -12 21t-10 -10q0 -10 2 -17t2 -12v-18q0 -28 -2 -44.5t-2 -33.5q0 -11 4 -15.5t10 -5.5t12 -0.5t10 0.5q29 -3 49.5 -27.5t30.5 -48.5q20 -20 33 -34
t13 -47q0 -7 -1 -9q-9 13 -12.5 8t-4.5 -16.5t-0.5 -23.5t-0.5 -12q-10 -1 -13.5 -8.5t-4 -17.5t0.5 -21.5t1 -20.5h7q3 8 8 20t9.5 20t7.5 9t3 -13q0 -33 -15 -54.5t-48 -56.5q-9 -10 -25.5 -10.5t-33 -1.5t-28.5 -7.5t-12 -27.5q0 -17 2.5 -26.5t2 -13.5t-7 -4.5
t-24.5 1.5q-26 2 -27 5l-13 58q-9 -6 -21.5 -4.5t-26.5 7.5t-27.5 15t-23.5 17q-68 55 -68 175h104q4 -12 9 -22q15 -13 11.5 -25t-3.5 -21t7.5 -15t16.5 -9.5t17 -6t9 -4.5q5 25 5 55q0 20 -1 21q-8 32 -3.5 45.5t4.5 33.5q0 18 -23 24q-43 7 -70 32.5t-56 57.5
q-13 29 -13 55v21q0 26 3 52t6 51q2 8 15.5 21t20.5 24q8 15 28 22t40.5 11t36.5 8t16 15t-4.5 19t-4.5 13q0 4 7.5 6t18 3t21 1.5t16.5 0.5zM108 507v22h-9v-22h9zM117 493v-12q34 0 34 32q-13 0 -23.5 -9.5t-10.5 -10.5zM144 471v-54q13 -13 21.5 -23.5t14 -12.5t7.5 6
t2 32q0 7 -2.5 11.5t-2.5 13.5q0 4 2.5 9.5t2.5 10.5q0 6 -9 34h-3q-6 0 -12 -5t-10.5 -10.5t-7.5 -9.5t-3 -2zM253 229q0 -26 -3 -46t-3 -54q0 -29 7.5 -36.5t17 -1.5t17 21.5t7.5 30.5q0 6 -2 10.5t-2 12.5q0 4 2 9t2 11q0 4 -5.5 11.5t-12.5 14.5t-14.5 12t-10.5 5z
M395 210v14h-9v-14h9zM404 174q9 -14 9 -22t-1.5 -6.5t-3.5 7t-3 12t-1 9.5zM117 65v15h-18q-1 0 -1 -4q0 -11 19 -11zM124 17h36q0 19 -21 19q-15 0 -15 -19z" />
    <glyph glyph-name="dollar" unicode="&#xf024;" 
d="M247 668q-3 -33 4 -49q20 -4 44.5 -14t46 -25t36.5 -34.5t17 -43.5q-2 -22 2 -37.5t4 -34.5h-114q-5 16 -18 54q-2 14 -12 21t-10 -10q0 -10 2 -17t2 -12v-18q0 -28 -2 -44.5t-2 -33.5q0 -11 4 -15.5t10 -5.5t12 -0.5t10 0.5q29 -3 49.5 -27.5t30.5 -48.5q20 -20 33 -34
t13 -47q0 -7 -1 -9q-9 13 -12.5 8t-4.5 -16.5t-0.5 -23.5t-0.5 -12q-10 -1 -13.5 -8.5t-4 -17.5t0.5 -21.5t1 -20.5h7q3 8 8 20t9.5 20t7.5 9t3 -13q0 -33 -15 -54.5t-48 -56.5q-9 -10 -25.5 -10.5t-33 -1.5t-28.5 -7.5t-12 -27.5q0 -17 2.5 -26.5t2 -13.5t-7 -4.5
t-24.5 1.5q-26 2 -27 5l-13 58q-9 -6 -21.5 -4.5t-26.5 7.5t-27.5 15t-23.5 17q-68 55 -68 175h104q4 -12 9 -22q15 -13 11.5 -25t-3.5 -21t7.5 -15t16.5 -9.5t17 -6t9 -4.5q5 25 5 55q0 20 -1 21q-8 32 -3.5 45.5t4.5 33.5q0 18 -23 24q-43 7 -70 32.5t-56 57.5
q-13 29 -13 55v21q0 26 3 52t6 51q2 8 15.5 21t20.5 24q8 15 28 22t40.5 11t36.5 8t16 15t-4.5 19t-4.5 13q0 4 7.5 6t18 3t21 1.5t16.5 0.5zM108 507v22h-9v-22h9zM117 493v-12q34 0 34 32q-13 0 -23.5 -9.5t-10.5 -10.5zM144 471v-54q13 -13 21.5 -23.5t14 -12.5t7.5 6
t2 32q0 7 -2.5 11.5t-2.5 13.5q0 4 2.5 9.5t2.5 10.5q0 6 -9 34h-3q-6 0 -12 -5t-10.5 -10.5t-7.5 -9.5t-3 -2zM253 229q0 -26 -3 -46t-3 -54q0 -29 7.5 -36.5t17 -1.5t17 21.5t7.5 30.5q0 6 -2 10.5t-2 12.5q0 4 2 9t2 11q0 4 -5.5 11.5t-12.5 14.5t-14.5 12t-10.5 5z
M395 210v14h-9v-14h9zM404 174q9 -14 9 -22t-1.5 -6.5t-3.5 7t-3 12t-1 9.5zM117 65v15h-18q-1 0 -1 -4q0 -11 19 -11zM124 17h36q0 19 -21 19q-15 0 -15 -19z" />
    <glyph glyph-name="percent" unicode="%" horiz-adv-x="650" 
d="M147 650q7 -6 13.5 -3t13.5 3q18 0 36 -16t26 -24q19 -16 29 -33t14.5 -37.5t5.5 -45t1 -54.5q0 -8 -4 -16t-5 -12q-6 -20 -15.5 -41t-24 -37.5t-34 -27t-45.5 -10.5q-11 0 -27 7.5t-33 19.5t-32.5 26t-26.5 27q-17 50 -12 91t7 75q4 32 26.5 55.5t36.5 30.5q17 9 32 14
t18 8zM434 641q14 -5 32 -6t26 -3q8 -3 5 -15.5t-10 -27t-15 -26t-12 -11.5q0 10 4 21t4 19h-7q-4 -10 -20 -22t-16 -19t-1 -17.5t0.5 -16t7.5 -1.5t20 26v-4q0 -10 -6 -25.5t-14 -32t-16.5 -32.5t-13.5 -27q-10 -21 -22.5 -43.5t-24.5 -44.5t-21 -43t-12 -39
q-20 -42 -34.5 -77t-33.5 -58q-15 -18 -29.5 -43.5t-15.5 -41.5h-76q0 19 14 45q8 6 18 22.5t19.5 36t18.5 39.5t15 32q9 22 22 43.5t19 32.5q1 2 2 5.5t2 8.5q12 35 33 68t39 80q12 32 27.5 64t35.5 66q10 17 19 34t17 33zM142 583q-8 -5 -13.5 -17.5t-8.5 -27.5t-5 -30.5
t-4 -27.5l-5 -5q4 -14 8.5 -32t10.5 -33.5t13.5 -26.5t19.5 -11q13 0 22 9t14.5 23t8 31t2.5 33q0 20 -3.5 32t-7.5 22.5t-6.5 21t-0.5 25.5q-1 6 -18 9.5t-27 4.5zM93 480v27h-9v-27h9zM79 457v-7q0 -3 1.5 -16t7.5 -13q10 0 10 11q0 26 -14 26q-4 0 -5 -1zM349 381v18h-9
v-18h9zM483 372l14 -14l4 5l10.5 -4t12.5 -5q46 -19 68 -56.5t22 -81.5q0 -49 -9.5 -80t-18.5 -65q-2 -13 -16 -23.5t-31 -17t-32.5 -10t-21.5 -3.5t-11.5 2.5t-8.5 2.5q-7 -8 -23 0t-32 21.5t-29 28.5t-14 22q-4 14 -7.5 32t-6 35t-2.5 32.5t2 25.5q5 25 10 40t12 28
q6 19 10.5 29t10.5 16t14.5 10.5t23.5 11.5q13 12 25 9.5t24 8.5zM433 174q0 -29 11.5 -43.5t20.5 -41.5h36l9 9q2 2 10.5 30t8.5 64q0 12 -1.5 28.5t-7 32.5t-15 27t-26.5 11q-14 0 -23 -16t-14 -36t-7 -39.5t-2 -25.5zM438 264v14h-9v-14h9zM546 210v14h-9v-14h9zM531 114
q34 0 34 20q0 5 -0.5 7t-1.5 5t-1.5 10t-0.5 22q-5 0 -10.5 -9t-10 -20t-7 -21.5t-2.5 -13.5z" />
    <glyph glyph-name="percent" unicode="&#xf025;" horiz-adv-x="650" 
d="M147 650q7 -6 13.5 -3t13.5 3q18 0 36 -16t26 -24q19 -16 29 -33t14.5 -37.5t5.5 -45t1 -54.5q0 -8 -4 -16t-5 -12q-6 -20 -15.5 -41t-24 -37.5t-34 -27t-45.5 -10.5q-11 0 -27 7.5t-33 19.5t-32.5 26t-26.5 27q-17 50 -12 91t7 75q4 32 26.5 55.5t36.5 30.5q17 9 32 14
t18 8zM434 641q14 -5 32 -6t26 -3q8 -3 5 -15.5t-10 -27t-15 -26t-12 -11.5q0 10 4 21t4 19h-7q-4 -10 -20 -22t-16 -19t-1 -17.5t0.5 -16t7.5 -1.5t20 26v-4q0 -10 -6 -25.5t-14 -32t-16.5 -32.5t-13.5 -27q-10 -21 -22.5 -43.5t-24.5 -44.5t-21 -43t-12 -39
q-20 -42 -34.5 -77t-33.5 -58q-15 -18 -29.5 -43.5t-15.5 -41.5h-76q0 19 14 45q8 6 18 22.5t19.5 36t18.5 39.5t15 32q9 22 22 43.5t19 32.5q1 2 2 5.5t2 8.5q12 35 33 68t39 80q12 32 27.5 64t35.5 66q10 17 19 34t17 33zM142 583q-8 -5 -13.5 -17.5t-8.5 -27.5t-5 -30.5
t-4 -27.5l-5 -5q4 -14 8.5 -32t10.5 -33.5t13.5 -26.5t19.5 -11q13 0 22 9t14.5 23t8 31t2.5 33q0 20 -3.5 32t-7.5 22.5t-6.5 21t-0.5 25.5q-1 6 -18 9.5t-27 4.5zM93 480v27h-9v-27h9zM79 457v-7q0 -3 1.5 -16t7.5 -13q10 0 10 11q0 26 -14 26q-4 0 -5 -1zM349 381v18h-9
v-18h9zM483 372l14 -14l4 5l10.5 -4t12.5 -5q46 -19 68 -56.5t22 -81.5q0 -49 -9.5 -80t-18.5 -65q-2 -13 -16 -23.5t-31 -17t-32.5 -10t-21.5 -3.5t-11.5 2.5t-8.5 2.5q-7 -8 -23 0t-32 21.5t-29 28.5t-14 22q-4 14 -7.5 32t-6 35t-2.5 32.5t2 25.5q5 25 10 40t12 28
q6 19 10.5 29t10.5 16t14.5 10.5t23.5 11.5q13 12 25 9.5t24 8.5zM433 174q0 -29 11.5 -43.5t20.5 -41.5h36l9 9q2 2 10.5 30t8.5 64q0 12 -1.5 28.5t-7 32.5t-15 27t-26.5 11q-14 0 -23 -16t-14 -36t-7 -39.5t-2 -25.5zM438 264v14h-9v-14h9zM546 210v14h-9v-14h9zM531 114
q34 0 34 20q0 5 -0.5 7t-1.5 5t-1.5 10t-0.5 22q-5 0 -10.5 -9t-10 -20t-7 -21.5t-2.5 -13.5z" />
    <glyph glyph-name="ampersand" unicode="&#x26;" horiz-adv-x="466" 
d="M167 637q8 -5 24 -5q13 0 20 2.5t14 2.5q15 0 28 -3t26 -2q72 -60 72 -137q0 -13 -4.5 -22t-4.5 -16q0 -15 9 -27q-3 -2 -15 -15.5t-24.5 -29.5t-22.5 -29.5t-10 -14.5v-9l31 -63q4 -10 11 -10q2 0 5.5 5t6.5 11l5.5 11t3.5 5h94q12 0 6.5 -16t-16.5 -38.5t-22.5 -45.5
t-12.5 -36q0 -28 27 -61q12 -15 22 -28.5t18 -25.5q8 -9 15.5 -18.5t-1.5 -8.5q-61 2 -91 3l-30 1l-32 32h-4q-10 0 -24.5 -14.5t-20.5 -17.5q-13 -1 -21 -4.5t-14.5 -7.5t-12.5 -7t-16 -3q-41 0 -80 13q-44 15 -72 47.5t-31 78.5q-2 27 -3.5 51.5t-0.5 38.5q6 29 26 58
q12 9 16 16t7 16q6 14 14 20.5t16.5 10.5t17 8.5t15.5 13.5q-45 31 -45 83q0 12 2.5 20t2.5 10q0 10 -3 18t-2 13q10 10 10.5 28.5t2.5 25.5q19 19 23 27q9 15 17 20t28 25zM188 487q0 -20 10 -43q9 -24 21 -25.5t22.5 10t17.5 31t7 37.5q0 4 -2.5 12t-8 16.5t-13 15
t-17.5 6.5q-13 0 -25 -17t-12 -43zM301 489v18h-9v-18h9zM176 453v9h-14v-9h14zM171 444h-4q-9 -9 -4 -10.5t12 0.5t9.5 5.5t-13.5 4.5zM180 282q-5 -6 -13.5 -17.5t-16.5 -24t-13.5 -23.5t-5.5 -16q-4 -16 2 -33t17 -31.5t23.5 -24t22.5 -9.5t21.5 5.5t21.5 12.5t16 13.5
t6 8.5v9q0 1 -10 22.5t-26 35.5q-8 7 -13.5 17.5t-10 21t-9.5 19.5t-12 14zM319 202q0 -16 11 -23.5t7 9.5q-1 2 -3.5 11t3.5 7l27 -5v-14q14 0 14 10q0 6 -6 10.5t-14 7.5t-15.5 4t-10.5 1q-13 0 -13 -18zM355 161v9h-9v-9h9z" />
    <glyph glyph-name="ampersand" unicode="&#xf026;" horiz-adv-x="466" 
d="M167 637q8 -5 24 -5q13 0 20 2.5t14 2.5q15 0 28 -3t26 -2q72 -60 72 -137q0 -13 -4.5 -22t-4.5 -16q0 -15 9 -27q-3 -2 -15 -15.5t-24.5 -29.5t-22.5 -29.5t-10 -14.5v-9l31 -63q4 -10 11 -10q2 0 5.5 5t6.5 11l5.5 11t3.5 5h94q12 0 6.5 -16t-16.5 -38.5t-22.5 -45.5
t-12.5 -36q0 -28 27 -61q12 -15 22 -28.5t18 -25.5q8 -9 15.5 -18.5t-1.5 -8.5q-61 2 -91 3l-30 1l-32 32h-4q-10 0 -24.5 -14.5t-20.5 -17.5q-13 -1 -21 -4.5t-14.5 -7.5t-12.5 -7t-16 -3q-41 0 -80 13q-44 15 -72 47.5t-31 78.5q-2 27 -3.5 51.5t-0.5 38.5q6 29 26 58
q12 9 16 16t7 16q6 14 14 20.5t16.5 10.5t17 8.5t15.5 13.5q-45 31 -45 83q0 12 2.5 20t2.5 10q0 10 -3 18t-2 13q10 10 10.5 28.5t2.5 25.5q19 19 23 27q9 15 17 20t28 25zM188 487q0 -20 10 -43q9 -24 21 -25.5t22.5 10t17.5 31t7 37.5q0 4 -2.5 12t-8 16.5t-13 15
t-17.5 6.5q-13 0 -25 -17t-12 -43zM301 489v18h-9v-18h9zM176 453v9h-14v-9h14zM171 444h-4q-9 -9 -4 -10.5t12 0.5t9.5 5.5t-13.5 4.5zM180 282q-5 -6 -13.5 -17.5t-16.5 -24t-13.5 -23.5t-5.5 -16q-4 -16 2 -33t17 -31.5t23.5 -24t22.5 -9.5t21.5 5.5t21.5 12.5t16 13.5
t6 8.5v9q0 1 -10 22.5t-26 35.5q-8 7 -13.5 17.5t-10 21t-9.5 19.5t-12 14zM319 202q0 -16 11 -23.5t7 9.5q-1 2 -3.5 11t3.5 7l27 -5v-14q14 0 14 10q0 6 -6 10.5t-14 7.5t-15.5 4t-10.5 1q-13 0 -13 -18zM355 161v9h-9v-9h9z" />
    <glyph glyph-name="quotesingle" unicode="'" horiz-adv-x="201" 
d="M36 569l121 -4q-8 -12 -6.5 -20.5t1.5 -20.5q0 -4 -4 -23t-10 -41t-12.5 -39.5t-10.5 -17.5q-17 0 -36 6.5t-21 34.5q-2 21 -6 36.5t-7.5 29t-6.5 27.5t-2 32zM70 480h10q1 0 3.5 15.5t2.5 31.5q-16 0 -16 -17.5v-29.5zM80 448v18h-9v-18h9z" />
    <glyph glyph-name="quotesingle" unicode="&#xf027;" horiz-adv-x="201" 
d="M36 569l121 -4q-8 -12 -6.5 -20.5t1.5 -20.5q0 -4 -4 -23t-10 -41t-12.5 -39.5t-10.5 -17.5q-17 0 -36 6.5t-21 34.5q-2 21 -6 36.5t-7.5 29t-6.5 27.5t-2 32zM70 480h10q1 0 3.5 15.5t2.5 31.5q-16 0 -16 -17.5v-29.5zM80 448v18h-9v-18h9z" />
    <glyph glyph-name="parenleft" unicode="(" horiz-adv-x="278" 
d="M152 565h20q17 0 34.5 -1.5t34.5 -3.5q1 -1 1 -2q0 -3 -14 -29q-13 -18 -18.5 -45t-8.5 -63q-8 -1 -10.5 -6.5t-2 -12.5t2 -14t1.5 -10q0 -5 -13 -24q3 -27 -5 -53.5t-9 -45.5q-1 -17 -3 -36t-2 -38q0 -6 1 -7q11 -19 6 -23.5t-6 -13.5q0 -23 7 -34.5t7 -27.5
q0 -5 -2.5 -15t-2.5 -23q0 -11 18 -33q-2 -22 2.5 -47t12 -50t16 -47t13.5 -39q4 -14 -2.5 -19t-19 -5t-27.5 2.5t-27 3.5q-14 7 -17.5 27.5t-9.5 26.5q-17 13 -23 29.5t-8.5 33t-4 32t-9.5 26.5q-9 6 -11 20.5t-3 31t-4.5 33t-16.5 26.5q9 23 9 31q0 5 -4.5 23t-4.5 24v12
q0 20 2 26.5t2 25.5q0 31 -4 42q6 3 9 14.5t4.5 24.5t2 25t1.5 17q6 2 11 11.5t8.5 22t6.5 24.5t6 18q2 4 6 23t10.5 42t16 43.5t21.5 26.5zM140 302q0 -28 -6 -29q-2 6 -14 6q0 -10 1.5 -22.5t3.5 -28.5h4q10 0 14.5 6t6.5 14.5t2 18v16.5q0 19 -12 19zM146 -53
q10 0 16.5 -11.5t11.5 -10.5v36q-28 0 -28 -14zM143 -62h-9v-23q5 -1 11.5 -5t10.5 -4q15 0 13 2t-9.5 6t-14.5 10t-2 14z" />
    <glyph glyph-name="parenleft" unicode="&#xf028;" horiz-adv-x="278" 
d="M152 565h20q17 0 34.5 -1.5t34.5 -3.5q1 -1 1 -2q0 -3 -14 -29q-13 -18 -18.5 -45t-8.5 -63q-8 -1 -10.5 -6.5t-2 -12.5t2 -14t1.5 -10q0 -5 -13 -24q3 -27 -5 -53.5t-9 -45.5q-1 -17 -3 -36t-2 -38q0 -6 1 -7q11 -19 6 -23.5t-6 -13.5q0 -23 7 -34.5t7 -27.5
q0 -5 -2.5 -15t-2.5 -23q0 -11 18 -33q-2 -22 2.5 -47t12 -50t16 -47t13.5 -39q4 -14 -2.5 -19t-19 -5t-27.5 2.5t-27 3.5q-14 7 -17.5 27.5t-9.5 26.5q-17 13 -23 29.5t-8.5 33t-4 32t-9.5 26.5q-9 6 -11 20.5t-3 31t-4.5 33t-16.5 26.5q9 23 9 31q0 5 -4.5 23t-4.5 24v12
q0 20 2 26.5t2 25.5q0 31 -4 42q6 3 9 14.5t4.5 24.5t2 25t1.5 17q6 2 11 11.5t8.5 22t6.5 24.5t6 18q2 4 6 23t10.5 42t16 43.5t21.5 26.5zM140 302q0 -28 -6 -29q-2 6 -14 6q0 -10 1.5 -22.5t3.5 -28.5h4q10 0 14.5 6t6.5 14.5t2 18v16.5q0 19 -12 19zM146 -53
q10 0 16.5 -11.5t11.5 -10.5v36q-28 0 -28 -14zM143 -62h-9v-23q5 -1 11.5 -5t10.5 -4q15 0 13 2t-9.5 6t-14.5 10t-2 14z" />
    <glyph glyph-name="parenright" unicode=")" horiz-adv-x="278" 
d="M31 646v4q14 -1 29 -1.5t29 -2.5t21 -6t10 -10t4.5 -12.5t4.5 -12.5q11 -9 19 -25.5t15 -34.5t12.5 -35t12.5 -26q4 -5 6.5 -18.5t4 -28.5t2 -28t0.5 -19q0 -4 1.5 -17.5t4 -28.5t4.5 -28.5t3 -19.5q2 -4 5.5 -17t5.5 -28t-0.5 -29t-14.5 -21v-67q-15 -21 -19 -47.5
t-8 -55.5q-4 -25 -17.5 -37.5t-18.5 -24.5q-1 -5 -5 -18.5t-9 -28.5t-9.5 -26.5t-7.5 -11.5h-81q0 9 4.5 25t9.5 33.5t10 32.5l7 21q5 28 16.5 62t11.5 58q0 8 2 24.5t4.5 37.5t4.5 43.5t2 42.5q0 34 -9 90q-2 4 -3 14t-2 21.5t-2 22.5t-2 18q0 2 -2 10t-5 18t-6 19.5
t-5 15.5q-11 33 -21.5 71t-18.5 82zM148 507h-14v-32h9l2.5 10.5t2.5 21.5zM124 426q0 -8 8.5 -18t23.5 -10q14 0 14 34q0 8 -1.5 21t-7.5 13q-37 0 -37 -40zM152 444q4 -4 4 -16v-7l-18 5q3 10 14 18z" />
    <glyph glyph-name="parenright" unicode="&#xf029;" horiz-adv-x="278" 
d="M31 646v4q14 -1 29 -1.5t29 -2.5t21 -6t10 -10t4.5 -12.5t4.5 -12.5q11 -9 19 -25.5t15 -34.5t12.5 -35t12.5 -26q4 -5 6.5 -18.5t4 -28.5t2 -28t0.5 -19q0 -4 1.5 -17.5t4 -28.5t4.5 -28.5t3 -19.5q2 -4 5.5 -17t5.5 -28t-0.5 -29t-14.5 -21v-67q-15 -21 -19 -47.5
t-8 -55.5q-4 -25 -17.5 -37.5t-18.5 -24.5q-1 -5 -5 -18.5t-9 -28.5t-9.5 -26.5t-7.5 -11.5h-81q0 9 4.5 25t9.5 33.5t10 32.5l7 21q5 28 16.5 62t11.5 58q0 8 2 24.5t4.5 37.5t4.5 43.5t2 42.5q0 34 -9 90q-2 4 -3 14t-2 21.5t-2 22.5t-2 18q0 2 -2 10t-5 18t-6 19.5
t-5 15.5q-11 33 -21.5 71t-18.5 82zM148 507h-14v-32h9l2.5 10.5t2.5 21.5zM124 426q0 -8 8.5 -18t23.5 -10q14 0 14 34q0 8 -1.5 21t-7.5 13q-37 0 -37 -40zM152 444q4 -4 4 -16v-7l-18 5q3 10 14 18z" />
    <glyph glyph-name="asterisk" unicode="*" horiz-adv-x="336" 
d="M134 641q18 5 44 5h14l5 -9q1 -1 0.5 -7t-0.5 -14q0 -10 -2 -23t-3 -24.5t0 -19t7 -7.5h2l58 36q19 -25 18 -62q1 1 -8.5 -3t-21.5 -9.5t-22.5 -10.5t-10.5 -7q0 -14 13.5 -42t27.5 -43q0 -7 -6.5 -14t-15 -12.5t-15.5 -8.5t-8 -3q-8 22 -23.5 39.5t-21.5 36.5
q-7 -13 -17 -31.5t-14 -26.5q-11 -18 -20.5 -16.5t-17 10.5t-12 20.5t-4.5 14.5q0 34 40 65l-9 9q-6 6 -18 10t-23.5 7.5t-20.5 7.5t-9 11q0 12 8.5 31t13.5 32l58 -32h3q4 0 6 14q-1 21 0 31q4 10 6.5 17t2.5 12q0 8 -4 16zM84 538h-9q-1 -1 -1 -7q0 -16 9.5 -16.5t17 4.5
t6 12t-22.5 7zM197 460v15h-14v-4q0 -11 14 -11z" />
    <glyph glyph-name="asterisk" unicode="&#xf02a;" horiz-adv-x="336" 
d="M134 641q18 5 44 5h14l5 -9q1 -1 0.5 -7t-0.5 -14q0 -10 -2 -23t-3 -24.5t0 -19t7 -7.5h2l58 36q19 -25 18 -62q1 1 -8.5 -3t-21.5 -9.5t-22.5 -10.5t-10.5 -7q0 -14 13.5 -42t27.5 -43q0 -7 -6.5 -14t-15 -12.5t-15.5 -8.5t-8 -3q-8 22 -23.5 39.5t-21.5 36.5
q-7 -13 -17 -31.5t-14 -26.5q-11 -18 -20.5 -16.5t-17 10.5t-12 20.5t-4.5 14.5q0 34 40 65l-9 9q-6 6 -18 10t-23.5 7.5t-20.5 7.5t-9 11q0 12 8.5 31t13.5 32l58 -32h3q4 0 6 14q-1 21 0 31q4 10 6.5 17t2.5 12q0 8 -4 16zM84 538h-9q-1 -1 -1 -7q0 -16 9.5 -16.5t17 4.5
t6 12t-22.5 7zM197 460v15h-14v-4q0 -11 14 -11z" />
    <glyph glyph-name="plus" unicode="+" horiz-adv-x="565" 
d="M245 529q17 5 45 5q20 0 26 -21.5t5 -51t-5 -60t-4 -47.5q0 -8 1.5 -19t1.5 -28h213q4 0 4 -23q0 -7 -2 -13.5t-2 -10.5q0 -10 3.5 -15t3.5 -6.5t-6.5 -1t-27.5 0.5q-17 0 -18 -1l-5 -4q-1 -1 -14 -1q-19 0 -35.5 2.5t-26.5 2.5q-2 1 -27 1q-14 0 -21 -5t-17 -5t-9 5
t-9 5q-6 0 -1.5 -13.5t4.5 -26.5q0 -18 -1 -19q-7 -20 -8 -45.5t-1 -50.5q0 -12 2 -19t4 -13.5t4 -15t2 -22.5h-70q-9 0 -9 24q0 13 4.5 26t4.5 20q0 19 -4.5 40t-4.5 45q0 16 5 28t5 20q0 15 -1 17l-5 4l-32 2.5t-82 2.5q-20 0 -34 -7t-34 -7h-6q-1 9 -5.5 12.5t-9 5
t-8.5 2t-4 3.5q0 8 2 15.5t2 11.5q0 15 -12 36l8 -5h211q5 0 5 18q0 17 -2.5 32t-2.5 31v40q2 8 3.5 22t2 29t-0.5 28.5t-5 19.5zM299 439v9h-9v-9h9zM294 382v30h-22q-1 0 -1 -4q0 -12 11.5 -19zM221 173v20t1 17q2 21 8 18t9 -15t0 -26t-18 -14z" />
    <glyph glyph-name="plus" unicode="&#xf02b;" horiz-adv-x="565" 
d="M245 529q17 5 45 5q20 0 26 -21.5t5 -51t-5 -60t-4 -47.5q0 -8 1.5 -19t1.5 -28h213q4 0 4 -23q0 -7 -2 -13.5t-2 -10.5q0 -10 3.5 -15t3.5 -6.5t-6.5 -1t-27.5 0.5q-17 0 -18 -1l-5 -4q-1 -1 -14 -1q-19 0 -35.5 2.5t-26.5 2.5q-2 1 -27 1q-14 0 -21 -5t-17 -5t-9 5
t-9 5q-6 0 -1.5 -13.5t4.5 -26.5q0 -18 -1 -19q-7 -20 -8 -45.5t-1 -50.5q0 -12 2 -19t4 -13.5t4 -15t2 -22.5h-70q-9 0 -9 24q0 13 4.5 26t4.5 20q0 19 -4.5 40t-4.5 45q0 16 5 28t5 20q0 15 -1 17l-5 4l-32 2.5t-82 2.5q-20 0 -34 -7t-34 -7h-6q-1 9 -5.5 12.5t-9 5
t-8.5 2t-4 3.5q0 8 2 15.5t2 11.5q0 15 -12 36l8 -5h211q5 0 5 18q0 17 -2.5 32t-2.5 31v40q2 8 3.5 22t2 29t-0.5 28.5t-5 19.5zM299 439v9h-9v-9h9zM294 382v30h-22q-1 0 -1 -4q0 -12 11.5 -19zM221 173v20t1 17q2 21 8 18t9 -15t0 -26t-18 -14z" />
    <glyph glyph-name="comma" unicode="," horiz-adv-x="282" 
d="M128 107h25q20 0 42 -1t45 -3q14 -5 14 -9v-134l-5 -21.5t-18.5 -48t-36.5 -48t-59 -21.5q-1 0 -2.5 9.5t-3 22t-3 24.5t-2.5 16q23 -3 35 3t17 18t5 28.5v33.5h-110q58 45 57 91q-4 21 -4 34q0 5 4 6zM214 56q22 0 24.5 5t-3 8t-13.5 1.5t-8 -14.5zM202 22v18h-11v-33
q48 0 48 36q-6 0 -10 -4t-7.5 -8t-8 -7.5t-11.5 -1.5z" />
    <glyph glyph-name="comma" unicode="&#xf02c;" horiz-adv-x="282" 
d="M128 107h25q20 0 42 -1t45 -3q14 -5 14 -9v-134l-5 -21.5t-18.5 -48t-36.5 -48t-59 -21.5q-1 0 -2.5 9.5t-3 22t-3 24.5t-2.5 16q23 -3 35 3t17 18t5 28.5v33.5h-110q58 45 57 91q-4 21 -4 34q0 5 4 6zM214 56q22 0 24.5 5t-3 8t-13.5 1.5t-8 -14.5zM202 22v18h-11v-33
q48 0 48 36q-6 0 -10 -4t-7.5 -8t-8 -7.5t-11.5 -1.5z" />
    <glyph glyph-name="hyphen" unicode="-" horiz-adv-x="318" 
d="M53 287q15 0 24 4.5t25 4.5q18 0 18 -5q27 1 59.5 0t70.5 -4q12 -41 12 -106h-119l-5 -7h-14q-20 0 -35.5 4.5t-35.5 4.5q3 51 -4 77v2q0 2 1 8.5t3 16.5zM156 237v-9q0 -13 13 -13q10 0 15.5 2.5t15.5 2.5q5 0 6.5 -2t3.5 -8q6 -4 8.5 -1t1.5 8.5t-6.5 10.5t-15.5 5
q-20 0 -26 2.5t-11 2.5q-4 0 -5 -1z" />
    <glyph glyph-name="hyphen" unicode="&#xf02d;" horiz-adv-x="318" 
d="M53 287q15 0 24 4.5t25 4.5q18 0 18 -5q27 1 59.5 0t70.5 -4q12 -41 12 -106h-119l-5 -7h-14q-20 0 -35.5 4.5t-35.5 4.5q3 51 -4 77v2q0 2 1 8.5t3 16.5zM156 237v-9q0 -13 13 -13q10 0 15.5 2.5t15.5 2.5q5 0 6.5 -2t3.5 -8q6 -4 8.5 -1t1.5 8.5t-6.5 10.5t-15.5 5
q-20 0 -26 2.5t-11 2.5q-4 0 -5 -1z" />
    <glyph glyph-name="period" unicode="." horiz-adv-x="282" 
d="M75 170h49q2 0 7.5 2.5t13.5 2.5q34 0 46 -13t10 -37q-10 -18 -7 -41t2 -44l5 -7h-126q-3 0 -3.5 15.5t-0.5 32.5q0 3 2 15t2 27q0 1 -2 6t-2 16q0 8 2 14t2 11zM106 89v-18q38 0 38 24q-9 0 -23.5 -2.5t-14.5 -3.5z" />
    <glyph glyph-name="period" unicode="&#xf02e;" horiz-adv-x="282" 
d="M75 170h49q2 0 7.5 2.5t13.5 2.5q34 0 46 -13t10 -37q-10 -18 -7 -41t2 -44l5 -7h-126q-3 0 -3.5 15.5t-0.5 32.5q0 3 2 15t2 27q0 1 -2 6t-2 16q0 8 2 14t2 11zM106 89v-18q38 0 38 24q-9 0 -23.5 -2.5t-14.5 -3.5z" />
    <glyph glyph-name="slash" unicode="/" horiz-adv-x="287" 
d="M51 -143h-64q1 18 10.5 49.5t21.5 65t24 63.5t17 45q30 81 54 171q9 33 18 63q7 22 19 44.5t12 31.5q5 41 12 65.5t20 55.5q13 13 18 22l3 14.5t7.5 31t9 30.5t6.5 14q14 0 27.5 -1.5t27.5 -2.5v-14q0 -7 -4 -22t-9.5 -30t-11 -26.5t-9.5 -11.5q-5 0 -5 17q-16 0 -16 -12
q0 -4 5 -17t5 -17q0 -15 -3 -25.5t-2 -16.5q-8 5 -14 5q-11 0 -15.5 -15.5t-4.5 -34.5h7q6 14 10 25.5t4 -7.5q0 -6 -1 -17t-4 -22.5t-8 -19.5t-14 -8q-4 0 -9 -20t-9 -44t-6.5 -44t-2.5 -18q-5 -32 -31 -63q3 -22 -5 -49q-17 -19 -22 -32q-3 -5 -4.5 -16.5t-3.5 -23.5
t-4.5 -23.5t-5.5 -16.5q-5 -6 -13 -25.5t-16.5 -42.5t-14.5 -44.5t-6 -30.5zM193 362q13 0 15 5t-1.5 8t-8.5 1.5t-5 -14.5z" />
    <glyph glyph-name="slash" unicode="&#xf02f;" horiz-adv-x="287" 
d="M51 -143h-64q1 18 10.5 49.5t21.5 65t24 63.5t17 45q30 81 54 171q9 33 18 63q7 22 19 44.5t12 31.5q5 41 12 65.5t20 55.5q13 13 18 22l3 14.5t7.5 31t9 30.5t6.5 14q14 0 27.5 -1.5t27.5 -2.5v-14q0 -7 -4 -22t-9.5 -30t-11 -26.5t-9.5 -11.5q-5 0 -5 17q-16 0 -16 -12
q0 -4 5 -17t5 -17q0 -15 -3 -25.5t-2 -16.5q-8 5 -14 5q-11 0 -15.5 -15.5t-4.5 -34.5h7q6 14 10 25.5t4 -7.5q0 -6 -1 -17t-4 -22.5t-8 -19.5t-14 -8q-4 0 -9 -20t-9 -44t-6.5 -44t-2.5 -18q-5 -32 -31 -63q3 -22 -5 -49q-17 -19 -22 -32q-3 -5 -4.5 -16.5t-3.5 -23.5
t-4.5 -23.5t-5.5 -16.5q-5 -6 -13 -25.5t-16.5 -42.5t-14.5 -44.5t-6 -30.5zM193 362q13 0 15 5t-1.5 8t-8.5 1.5t-5 -14.5z" />
    <glyph glyph-name="zero" unicode="0" horiz-adv-x="439" 
d="M201 623q-1 -9 9 -9q4 0 7.5 2.5t5.5 2.5q6 0 9 -5q47 3 63 -4q20 -9 27 -25t23 -29q11 -4 18 -14t12 -22t9 -24.5t10 -20.5q10 -50 16.5 -99t6.5 -98q0 -22 -4 -28t-6 -17q2 -33 0 -50q-5 -55 -27 -89q-8 -4 -9 -9q3 -19 -3 -31t-16 -20.5t-22 -15t-21 -14.5
q-21 -16 -51 -23t-57 -7q-5 0 -16.5 3.5t-24.5 8t-25.5 8t-18.5 2.5q-66 51 -81 143q-4 25 -13 44v202q0 20 5 50.5t8 44.5q4 11 15 33t29 43.5t41.5 37.5t51.5 16q7 0 29 13zM133 294q0 -10 0.5 -15t4.5 -15q2 -18 3 -49t6.5 -61t18 -52t37.5 -22q14 0 25.5 1.5t21.5 3.5
q12 4 20.5 30t14 58t8 62.5t2.5 43.5t-2 23t-2 30q0 5 4.5 21.5t4.5 20.5q0 24 -14 51.5t-18 49.5l-36 36h-3q-12 0 -19.5 -3t-13 -8.5t-11 -12t-15.5 -12.5q-9 -6 -16 -28t-11.5 -49.5t-7 -56t-2.5 -47.5zM71 367v-44h11v31h16v-21q14 0 9 2.5t-36 31.5zM331 323v18h-9v-18
h9zM103 327h-14v-21q14 0 14 21zM313 282q-1 -7 -2 -13.5t-2 -13.5q-3 -17 -2.5 -23t3.5 -6t7 5t7 11v-18h15q0 26 -12 22v22q9 -4 13.5 -0.5t4 8.5t-8 8t-23.5 -2zM331 143v9h-9v-9h9zM241 35v-4q0 -10 4.5 -10.5t7.5 3t2.5 8t-9.5 4.5q-4 0 -5 -1z" />
    <glyph glyph-name="zero" unicode="&#xf030;" horiz-adv-x="439" 
d="M201 623q-1 -9 9 -9q4 0 7.5 2.5t5.5 2.5q6 0 9 -5q47 3 63 -4q20 -9 27 -25t23 -29q11 -4 18 -14t12 -22t9 -24.5t10 -20.5q10 -50 16.5 -99t6.5 -98q0 -22 -4 -28t-6 -17q2 -33 0 -50q-5 -55 -27 -89q-8 -4 -9 -9q3 -19 -3 -31t-16 -20.5t-22 -15t-21 -14.5
q-21 -16 -51 -23t-57 -7q-5 0 -16.5 3.5t-24.5 8t-25.5 8t-18.5 2.5q-66 51 -81 143q-4 25 -13 44v202q0 20 5 50.5t8 44.5q4 11 15 33t29 43.5t41.5 37.5t51.5 16q7 0 29 13zM133 294q0 -10 0.5 -15t4.5 -15q2 -18 3 -49t6.5 -61t18 -52t37.5 -22q14 0 25.5 1.5t21.5 3.5
q12 4 20.5 30t14 58t8 62.5t2.5 43.5t-2 23t-2 30q0 5 4.5 21.5t4.5 20.5q0 24 -14 51.5t-18 49.5l-36 36h-3q-12 0 -19.5 -3t-13 -8.5t-11 -12t-15.5 -12.5q-9 -6 -16 -28t-11.5 -49.5t-7 -56t-2.5 -47.5zM71 367v-44h11v31h16v-21q14 0 9 2.5t-36 31.5zM331 323v18h-9v-18
h9zM103 327h-14v-21q14 0 14 21zM313 282q-1 -7 -2 -13.5t-2 -13.5q-3 -17 -2.5 -23t3.5 -6t7 5t7 11v-18h15q0 26 -12 22v22q9 -4 13.5 -0.5t4 8.5t-8 8t-23.5 -2zM331 143v9h-9v-9h9zM241 35v-4q0 -10 4.5 -10.5t7.5 3t2.5 8t-9.5 4.5q-4 0 -5 -1z" />
    <glyph glyph-name="one" unicode="1" horiz-adv-x="484" 
d="M228 612h40q-3 12 11 12q43 0 43 -41q0 -14 -2.5 -23.5t-2.5 -17.5q0 -19 4.5 -33t4.5 -23q0 -21 -4 -38t-5 -27v-2q0 -14 2.5 -27t2.5 -22v-25q0 -15 -3 -38t7 -45q0 -7 -4 -11q1 -18 1.5 -36t-1.5 -36q-2 -23 -3.5 -35t-1.5 -25q0 -1 5 -8.5t5 -18.5q0 -14 -5 -22
t-5 -9q0 -13 2.5 -24t2.5 -18q0 -4 -3 -8.5t-3 -8.5h-61l-5 -10h-40q-2 11 -14 12q3 41 -4 72v4q2 22 3 31t1 26q0 13 -2 18t-2 11q4 7 6 20t2.5 26.5t0.5 25.5v17q0 15 -2.5 21t-2.5 17q0 17 2.5 24.5t2.5 18.5q0 12 -2.5 19t-2.5 14q0 18 2.5 31.5t2.5 23.5q0 9 -6.5 8.5
t-14.5 -4t-15 -8t-9 -4.5q-20 0 -14 14q-9 -14 -29 -14q-7 0 -15.5 11.5t-8.5 18.5q0 16 2 30.5t2 23.5q0 2 -1.5 4.5t-0.5 2.5q11 0 19 -3t14 -2q23 14 33 18.5t15.5 8t11.5 10.5t21 26q11 13 15.5 22t7.5 25zM286 516h-5v-5q0 -10 7.5 -10.5t13 3t4 8t-19.5 4.5zM289 201
h10q2 0 5 23q4 13 -5.5 7t-9.5 -30zM271 135q17 0 19 11.5t-2 18.5t-10.5 3.5t-6.5 -33.5zM290 130h-4v-7q0 -12 4 -16q-12 1 -10.5 -4t8 -8.5t14 -1t7.5 18.5q0 18 -19 18z" />
    <glyph glyph-name="one" unicode="&#xf031;" horiz-adv-x="484" 
d="M228 612h40q-3 12 11 12q43 0 43 -41q0 -14 -2.5 -23.5t-2.5 -17.5q0 -19 4.5 -33t4.5 -23q0 -21 -4 -38t-5 -27v-2q0 -14 2.5 -27t2.5 -22v-25q0 -15 -3 -38t7 -45q0 -7 -4 -11q1 -18 1.5 -36t-1.5 -36q-2 -23 -3.5 -35t-1.5 -25q0 -1 5 -8.5t5 -18.5q0 -14 -5 -22
t-5 -9q0 -13 2.5 -24t2.5 -18q0 -4 -3 -8.5t-3 -8.5h-61l-5 -10h-40q-2 11 -14 12q3 41 -4 72v4q2 22 3 31t1 26q0 13 -2 18t-2 11q4 7 6 20t2.5 26.5t0.5 25.5v17q0 15 -2.5 21t-2.5 17q0 17 2.5 24.5t2.5 18.5q0 12 -2.5 19t-2.5 14q0 18 2.5 31.5t2.5 23.5q0 9 -6.5 8.5
t-14.5 -4t-15 -8t-9 -4.5q-20 0 -14 14q-9 -14 -29 -14q-7 0 -15.5 11.5t-8.5 18.5q0 16 2 30.5t2 23.5q0 2 -1.5 4.5t-0.5 2.5q11 0 19 -3t14 -2q23 14 33 18.5t15.5 8t11.5 10.5t21 26q11 13 15.5 22t7.5 25zM286 516h-5v-5q0 -10 7.5 -10.5t13 3t4 8t-19.5 4.5zM289 201
h10q2 0 5 23q4 13 -5.5 7t-9.5 -30zM271 135q17 0 19 11.5t-2 18.5t-10.5 3.5t-6.5 -33.5zM290 130h-4v-7q0 -12 4 -16q-12 1 -10.5 -4t8 -8.5t14 -1t7.5 18.5q0 18 -19 18z" />
    <glyph glyph-name="two" unicode="2" horiz-adv-x="444" 
d="M174 569v5q0 -2 6 -3.5t10 -1.5q6 0 11 2.5t9 2.5q52 0 96 -15t70 -66q15 -30 21 -66.5t6 -61.5q0 -24 -6 -40.5t-3 -33.5q-5 -5 -13 -15t-16.5 -21.5t-16.5 -22.5t-12 -17q-11 -13 -34 -28t-34 -26q-21 -19 -41 -39.5t-39 -41.5q-2 -9 -5.5 -14t-4 -8t4.5 -4t20 -1h29
q14 0 18.5 2.5t16.5 2.5q15 0 29.5 -2t30.5 -3l38 -2l38 -2q5 -5 5 -17q0 -9 -1 -10q-1 -17 -2 -35l-2 -36q-20 -6 -47.5 -7.5t-43.5 -1.5q-12 0 -17 5h-264v79q16 17 22 41q9 31 23.5 45.5t25.5 30.5q17 23 44 44t51 50q5 6 18 12.5t17 10.5q37 37 45 76q2 10 5.5 20
t8.5 20q-4 1 -5 5q-9 36 -26.5 61t-41.5 25q-28 0 -51.5 -24t-23.5 -51q0 -13 1.5 -23t1 -17.5t-6 -11.5t-19.5 -4q-21 0 -44.5 6t-44.5 7v77q0 21 13.5 42.5t26.5 38.5q42 56 103 62zM138 435v9h-13v-9h13zM79 410q0 -25 32 -25v44q-32 0 -32 -19zM340 341v8h-9v-8h9z
M313 305v9h-13v-9h13zM140 7q35 0 35 32q-35 0 -35 -32zM173 0q0 -9 19 -9q9 0 9 9t-9 9q-19 0 -19 -9z" />
    <glyph glyph-name="two" unicode="&#xf032;" horiz-adv-x="444" 
d="M174 569v5q0 -2 6 -3.5t10 -1.5q6 0 11 2.5t9 2.5q52 0 96 -15t70 -66q15 -30 21 -66.5t6 -61.5q0 -24 -6 -40.5t-3 -33.5q-5 -5 -13 -15t-16.5 -21.5t-16.5 -22.5t-12 -17q-11 -13 -34 -28t-34 -26q-21 -19 -41 -39.5t-39 -41.5q-2 -9 -5.5 -14t-4 -8t4.5 -4t20 -1h29
q14 0 18.5 2.5t16.5 2.5q15 0 29.5 -2t30.5 -3l38 -2l38 -2q5 -5 5 -17q0 -9 -1 -10q-1 -17 -2 -35l-2 -36q-20 -6 -47.5 -7.5t-43.5 -1.5q-12 0 -17 5h-264v79q16 17 22 41q9 31 23.5 45.5t25.5 30.5q17 23 44 44t51 50q5 6 18 12.5t17 10.5q37 37 45 76q2 10 5.5 20
t8.5 20q-4 1 -5 5q-9 36 -26.5 61t-41.5 25q-28 0 -51.5 -24t-23.5 -51q0 -13 1.5 -23t1 -17.5t-6 -11.5t-19.5 -4q-21 0 -44.5 6t-44.5 7v77q0 21 13.5 42.5t26.5 38.5q42 56 103 62zM138 435v9h-13v-9h13zM79 410q0 -25 32 -25v44q-32 0 -32 -19zM340 341v8h-9v-8h9z
M313 305v9h-13v-9h13zM140 7q35 0 35 32q-35 0 -35 -32zM173 0q0 -9 19 -9q9 0 9 9t-9 9q-19 0 -19 -9z" />
    <glyph glyph-name="three" unicode="3" horiz-adv-x="439" 
d="M138 587q10 -2 19.5 -3t17.5 -1q11 0 15 2.5t15 2.5q17 0 30.5 -2.5t28.5 -7.5q24 -2 37 -6t21 -11t15 -16t17 -21q40 -44 40 -110q0 -23 -15 -50.5t-25 -49.5l-14.5 -8.5t-26.5 -16.5t-14 -9q0 -3 6.5 -5.5t14.5 -5.5t15.5 -5t9.5 -4q31 -21 44.5 -59t13.5 -62
q0 -74 -27 -122q-14 -23 -30 -34t-37 -23q-35 -18 -52 -18q-7 0 -11 4.5t-9 4.5t-7.5 -2t-6.5 -2h-4q-25 0 -45.5 1t-35.5 3q-46 7 -75 46.5t-37 91.5q-8 16 -10.5 26t-2.5 26q0 5 1 17t10 12q14 0 19 -2.5t20 -2.5q11 0 12 1l5 4h49q2 0 3 -9t1.5 -20.5t0.5 -21.5v-12
q0 -14 10.5 -24.5t25 -18t29.5 -11.5t25 -4q19 0 32 12.5t21 30t11.5 35.5t3.5 30q0 14 -11 28.5t-17 24.5q-5 7 -21 9.5t-33.5 5t-32 7t-16.5 14.5q6 21 6 43v43h79q8 13 13 18.5t8 10.5t4.5 12.5t1.5 25.5q0 47 -27 81q-18 -2 -36 0q-1 1 -11 0t-21.5 -5.5t-21 -13
t-9.5 -22.5q0 -5 5 -13l-9 -41q-1 -4 -10 -6.5t-21.5 -3.5t-25 -1h-20.5v18q0 2 -8.5 -2.5t-13.5 -4.5q-8 0 -13 3.5t-5 14.5q0 7 2 20.5t5 29t6 29t5 20.5q0 2 4 5.5t8.5 6.5t8 5.5t1.5 0.5q8 18 17.5 27t19.5 14.5t19 10.5t16 15zM241 516v8h-13v-8h13zM255 498v9h-9v-9h9
zM291 439q-5 -28 -5 -45h16q0 8 3.5 17t3.5 19t-12 10q-5 0 -6 -1zM358 62v50h-9v-50h9z" />
    <glyph glyph-name="three" unicode="&#xf033;" horiz-adv-x="439" 
d="M138 587q10 -2 19.5 -3t17.5 -1q11 0 15 2.5t15 2.5q17 0 30.5 -2.5t28.5 -7.5q24 -2 37 -6t21 -11t15 -16t17 -21q40 -44 40 -110q0 -23 -15 -50.5t-25 -49.5l-14.5 -8.5t-26.5 -16.5t-14 -9q0 -3 6.5 -5.5t14.5 -5.5t15.5 -5t9.5 -4q31 -21 44.5 -59t13.5 -62
q0 -74 -27 -122q-14 -23 -30 -34t-37 -23q-35 -18 -52 -18q-7 0 -11 4.5t-9 4.5t-7.5 -2t-6.5 -2h-4q-25 0 -45.5 1t-35.5 3q-46 7 -75 46.5t-37 91.5q-8 16 -10.5 26t-2.5 26q0 5 1 17t10 12q14 0 19 -2.5t20 -2.5q11 0 12 1l5 4h49q2 0 3 -9t1.5 -20.5t0.5 -21.5v-12
q0 -14 10.5 -24.5t25 -18t29.5 -11.5t25 -4q19 0 32 12.5t21 30t11.5 35.5t3.5 30q0 14 -11 28.5t-17 24.5q-5 7 -21 9.5t-33.5 5t-32 7t-16.5 14.5q6 21 6 43v43h79q8 13 13 18.5t8 10.5t4.5 12.5t1.5 25.5q0 47 -27 81q-18 -2 -36 0q-1 1 -11 0t-21.5 -5.5t-21 -13
t-9.5 -22.5q0 -5 5 -13l-9 -41q-1 -4 -10 -6.5t-21.5 -3.5t-25 -1h-20.5v18q0 2 -8.5 -2.5t-13.5 -4.5q-8 0 -13 3.5t-5 14.5q0 7 2 20.5t5 29t6 29t5 20.5q0 2 4 5.5t8.5 6.5t8 5.5t1.5 0.5q8 18 17.5 27t19.5 14.5t19 10.5t16 15zM241 516v8h-13v-8h13zM255 498v9h-9v-9h9
zM291 439q-5 -28 -5 -45h16q0 8 3.5 17t3.5 19t-12 10q-5 0 -6 -1zM358 62v50h-9v-50h9z" />
    <glyph glyph-name="four" unicode="4" 
d="M227 592h32q20 0 35.5 -7t26.5 -7q7 0 12 5t13 5q14 0 15 -5.5t1 -15.5v-16q0 -7 -1 -10.5t-2 -7.5t-1.5 -10.5t-0.5 -18.5t2.5 -23t2.5 -22v-2q0 -11 1 -28t1 -36t-2.5 -38t-8.5 -32v-92h58q1 0 3 -22.5t2 -50.5v-19q0 -12 -5 -14l-58 -9v-4q7 -25 7 -51.5v-60.5v-13
l-46 -2l-46 -2q-23 -2 -29 19.5t-5.5 48.5t3 49.5t-4.5 22.5h-220q-4 0 -4 22q0 6 1 19t2.5 27t2.5 27t2 19q1 13 8.5 18t18.5 18q19 24 26.5 50t23.5 44q20 22 26.5 34t13.5 29q9 27 29 53.5t29 40.5q13 20 20 41.5t16 26.5zM232 444q-4 -2 -9.5 -11t-10.5 -20t-9 -22.5
t-7 -18.5t-19 -23t-21 -35q-7 -24 -21 -37t-29 -44q11 -1 21.5 -1h21.5q40 0 42 1q37 2 41.5 14.5t4.5 48.5q0 14 -1 20.5t-2 12.5t-2 14.5t-1 24.5q0 14 1 20.5t2 11t2 10t1 16.5q0 16 -5 18zM286 255v36h-14v-4q0 -15 3 -23.5t2 -8.5h9zM281 233v13h-9v-13h9zM115 151v15
h-27v-9q0 -6 27 -6zM308 83q0 -27 11.5 -37t11.5 7q0 -2 -0.5 5t-1 16t-2.5 17t-5 8q-14 0 -14 -16z" />
    <glyph glyph-name="four" unicode="&#xf034;" 
d="M227 592h32q20 0 35.5 -7t26.5 -7q7 0 12 5t13 5q14 0 15 -5.5t1 -15.5v-16q0 -7 -1 -10.5t-2 -7.5t-1.5 -10.5t-0.5 -18.5t2.5 -23t2.5 -22v-2q0 -11 1 -28t1 -36t-2.5 -38t-8.5 -32v-92h58q1 0 3 -22.5t2 -50.5v-19q0 -12 -5 -14l-58 -9v-4q7 -25 7 -51.5v-60.5v-13
l-46 -2l-46 -2q-23 -2 -29 19.5t-5.5 48.5t3 49.5t-4.5 22.5h-220q-4 0 -4 22q0 6 1 19t2.5 27t2.5 27t2 19q1 13 8.5 18t18.5 18q19 24 26.5 50t23.5 44q20 22 26.5 34t13.5 29q9 27 29 53.5t29 40.5q13 20 20 41.5t16 26.5zM232 444q-4 -2 -9.5 -11t-10.5 -20t-9 -22.5
t-7 -18.5t-19 -23t-21 -35q-7 -24 -21 -37t-29 -44q11 -1 21.5 -1h21.5q40 0 42 1q37 2 41.5 14.5t4.5 48.5q0 14 -1 20.5t-2 12.5t-2 14.5t-1 24.5q0 14 1 20.5t2 11t2 10t1 16.5q0 16 -5 18zM286 255v36h-14v-4q0 -15 3 -23.5t2 -8.5h9zM281 233v13h-9v-13h9zM115 151v15
h-27v-9q0 -6 27 -6zM308 83q0 -27 11.5 -37t11.5 7q0 -2 -0.5 5t-1 16t-2.5 17t-5 8q-14 0 -14 -16z" />
    <glyph glyph-name="five" unicode="5" horiz-adv-x="439" 
d="M62 641l4 5h45q0 -10 9 -10q24 0 45 5t38 5h43q-16 -11 -13.5 -15t13 -3.5t24.5 3.5t21 6q10 5 15 6.5t9.5 2.5t11 0.5t18.5 -0.5h26q5 0 7 -6.5t2 -11.5v-86q-100 -3 -201 -9q-19 0 -32 -4q-13 -42 -13 -110q0 5 12 10.5t25.5 9.5t23.5 6.5t6 2.5h90l4 -9q55 -13 81 -54
q0 -5 4 -18t8.5 -26.5t10 -24t8.5 -11.5q-4 -20 -4 -39q0 -12 2.5 -16.5t2.5 -15.5q0 -30 -5 -55q-7 -11 -9 -18q-28 -124 -148 -148q-14 11 -35 7.5t-35 -3.5q-22 0 -36.5 5t-26 13t-20 17.5t-18.5 18.5q-27 23 -40 51.5t-13 56.5q0 19 4 31q17 2 33.5 4.5t33.5 4.5
q5 1 14.5 5.5t10.5 4.5q20 0 23 -23.5t6 -44.5q1 -6 11 -13.5t22 -13.5t21.5 -10t10.5 -4q15 0 30 9.5t26.5 24t19 32t7.5 33.5q1 27 -2.5 53t-14 46t-29 32.5t-46.5 12.5q-32 0 -51 -40q-11 -2 -22.5 -3t-22.5 -2q-17 -1 -34 -1h-34v28q1 22 2 43t3 42q4 5 5 16t0.5 22.5
t-1 21t-0.5 12.5q9 24 13.5 63t0.5 76zM84 498v9h-13v-9h13zM84 412v63h-9v-63h9zM371 327h-4v-4q0 -10 4.5 -10.5t7.5 2.5t2.5 7.5t-10.5 4.5zM363 246v36h-9v-36h9zM345 251v9h-9v-9h9zM363 210v23h-9v-23h9zM138 94v13h-9v-13h9z" />
    <glyph glyph-name="five" unicode="&#xf035;" horiz-adv-x="439" 
d="M62 641l4 5h45q0 -10 9 -10q24 0 45 5t38 5h43q-16 -11 -13.5 -15t13 -3.5t24.5 3.5t21 6q10 5 15 6.5t9.5 2.5t11 0.5t18.5 -0.5h26q5 0 7 -6.5t2 -11.5v-86q-100 -3 -201 -9q-19 0 -32 -4q-13 -42 -13 -110q0 5 12 10.5t25.5 9.5t23.5 6.5t6 2.5h90l4 -9q55 -13 81 -54
q0 -5 4 -18t8.5 -26.5t10 -24t8.5 -11.5q-4 -20 -4 -39q0 -12 2.5 -16.5t2.5 -15.5q0 -30 -5 -55q-7 -11 -9 -18q-28 -124 -148 -148q-14 11 -35 7.5t-35 -3.5q-22 0 -36.5 5t-26 13t-20 17.5t-18.5 18.5q-27 23 -40 51.5t-13 56.5q0 19 4 31q17 2 33.5 4.5t33.5 4.5
q5 1 14.5 5.5t10.5 4.5q20 0 23 -23.5t6 -44.5q1 -6 11 -13.5t22 -13.5t21.5 -10t10.5 -4q15 0 30 9.5t26.5 24t19 32t7.5 33.5q1 27 -2.5 53t-14 46t-29 32.5t-46.5 12.5q-32 0 -51 -40q-11 -2 -22.5 -3t-22.5 -2q-17 -1 -34 -1h-34v28q1 22 2 43t3 42q4 5 5 16t0.5 22.5
t-1 21t-0.5 12.5q9 24 13.5 63t0.5 76zM84 498v9h-13v-9h13zM84 412v63h-9v-63h9zM371 327h-4v-4q0 -10 4.5 -10.5t7.5 2.5t2.5 7.5t-10.5 4.5zM363 246v36h-9v-36h9zM345 251v9h-9v-9h9zM363 210v23h-9v-23h9zM138 94v13h-9v-13h9z" />
    <glyph glyph-name="six" unicode="6" horiz-adv-x="439" 
d="M37 453v58q11 8 16 18q2 25 14 46t29.5 37t39 27t43.5 16q16 -3 37 3t44 6q19 0 41.5 -12.5t42.5 -30.5t34 -37.5t16 -32.5q0 -5 6 -18.5t7 -16.5q1 -5 -12 -10t-30 -9t-33.5 -6.5t-22.5 -2.5q-7 0 -9 1q-2 63 -72 63q-28 0 -48 -9t-24 -27q-7 -26 -11.5 -43.5
t-6.5 -33.5q0 -18 7 -31v30q7 -8 16.5 -7t20.5 6t22.5 10.5t23.5 5.5q32 0 61 -9.5t51 -31.5q34 -16 43.5 -45.5t14.5 -57.5q3 -22 5 -34t9 -28q0 -86 -36 -167q-3 -7 -15.5 -17.5t-28.5 -20.5t-33 -17.5t-28 -7.5q-5 0 -8.5 2.5t-5.5 2.5q-7 0 -13.5 -2.5t-8.5 -2.5
q-13 0 -20 2.5t-14 2.5q-20 0 -25.5 3t-28.5 6q-36 5 -58 38t-36 65q-11 26 -19 59t-8 71q0 28 0.5 49.5t-0.5 35.5q-4 15 -4 27q0 8 1 20.5t3 29.5q3 19 11 27zM182 610h-30v-25q0 -1 4.5 2t10.5 7.5t10.5 9t4.5 6.5zM98 453v9h-9v-9h9zM83 358h10q2 20 3.5 37t1.5 30
q-8 0 -11 -8t-4 -18.5t-0.5 -22t0.5 -18.5zM133 257q0 -15 5 -20.5t5 -21.5q0 -5 -2.5 -12t-2.5 -18q0 -6 7.5 -17t19.5 -21.5t27.5 -18.5t31.5 -8q17 0 22 14h22q1 9 5 14q27 40 27 100q0 14 -4 34t-13 38t-23 30.5t-34 12.5q-15 0 -31.5 -10t-30 -25.5t-22.5 -34t-9 -36.5
zM358 246v9h-9v-9h9zM378 233h-11q-1 -4 -2.5 -11.5l-3 -15t-3 -13.5l-1.5 -6q19 0 20 16.5t1 29.5z" />
    <glyph glyph-name="six" unicode="&#xf036;" horiz-adv-x="439" 
d="M37 453v58q11 8 16 18q2 25 14 46t29.5 37t39 27t43.5 16q16 -3 37 3t44 6q19 0 41.5 -12.5t42.5 -30.5t34 -37.5t16 -32.5q0 -5 6 -18.5t7 -16.5q1 -5 -12 -10t-30 -9t-33.5 -6.5t-22.5 -2.5q-7 0 -9 1q-2 63 -72 63q-28 0 -48 -9t-24 -27q-7 -26 -11.5 -43.5
t-6.5 -33.5q0 -18 7 -31v30q7 -8 16.5 -7t20.5 6t22.5 10.5t23.5 5.5q32 0 61 -9.5t51 -31.5q34 -16 43.5 -45.5t14.5 -57.5q3 -22 5 -34t9 -28q0 -86 -36 -167q-3 -7 -15.5 -17.5t-28.5 -20.5t-33 -17.5t-28 -7.5q-5 0 -8.5 2.5t-5.5 2.5q-7 0 -13.5 -2.5t-8.5 -2.5
q-13 0 -20 2.5t-14 2.5q-20 0 -25.5 3t-28.5 6q-36 5 -58 38t-36 65q-11 26 -19 59t-8 71q0 28 0.5 49.5t-0.5 35.5q-4 15 -4 27q0 8 1 20.5t3 29.5q3 19 11 27zM182 610h-30v-25q0 -1 4.5 2t10.5 7.5t10.5 9t4.5 6.5zM98 453v9h-9v-9h9zM83 358h10q2 20 3.5 37t1.5 30
q-8 0 -11 -8t-4 -18.5t-0.5 -22t0.5 -18.5zM133 257q0 -15 5 -20.5t5 -21.5q0 -5 -2.5 -12t-2.5 -18q0 -6 7.5 -17t19.5 -21.5t27.5 -18.5t31.5 -8q17 0 22 14h22q1 9 5 14q27 40 27 100q0 14 -4 34t-13 38t-23 30.5t-34 12.5q-15 0 -31.5 -10t-30 -25.5t-22.5 -34t-9 -36.5
zM358 246v9h-9v-9h9zM378 233h-11q-1 -4 -2.5 -11.5l-3 -15t-3 -13.5l-1.5 -6q19 0 20 16.5t1 29.5z" />
    <glyph glyph-name="seven" unicode="7" 
d="M250 574q26 2 48 3.5t42 1.5v-14l-23 -7h94l1.5 -3t3.5 -8q3 -9 2.5 -25.5t-3.5 -34t-6.5 -31.5t-6.5 -17q-30 -25 -41 -51t-21 -47q-1 0 -8.5 -7t-17 -18.5t-18 -26t-10.5 -29.5q1 -8 -4 -32t-12 -51.5t-13 -52.5t-7 -35q0 -2 -3 -9l-6 -14t-5 -12t0 -3q0 -5 2.5 -9.5
t2.5 -6.5q0 -11 -5 -31q-10 -14 -6.5 -27t3.5 -26q-23 0 -49 1.5t-55 3.5q-12 2 -17 3t-5.5 3.5t1.5 7t3 13.5q1 10 2 26.5t2 39.5q-1 18 0 27q2 20 15.5 49t20.5 49q0 35 23.5 82.5t48.5 88.5q5 4 16 18t22.5 30t20 30.5t8.5 20.5q0 3 -13 8.5t-20 5.5l-6 -2.5t-12 -2.5
q-19 0 -28 2t-23 2t-14 -4l-5 9h-36l-9 -9h-108q-8 0 -8 30v15q3 23 4 34.5t1 27.5h187q5 14 19 14q12 0 10 -7.5t10 -7.5q15 0 11 15zM328 498h38q2 0 3.5 2t3.5 2h2q13 -9 17 -7.5t3.5 6.5t-3.5 10l-3 5h-45q-16 0 -16 -18z" />
    <glyph glyph-name="seven" unicode="&#xf037;" 
d="M250 574q26 2 48 3.5t42 1.5v-14l-23 -7h94l1.5 -3t3.5 -8q3 -9 2.5 -25.5t-3.5 -34t-6.5 -31.5t-6.5 -17q-30 -25 -41 -51t-21 -47q-1 0 -8.5 -7t-17 -18.5t-18 -26t-10.5 -29.5q1 -8 -4 -32t-12 -51.5t-13 -52.5t-7 -35q0 -2 -3 -9l-6 -14t-5 -12t0 -3q0 -5 2.5 -9.5
t2.5 -6.5q0 -11 -5 -31q-10 -14 -6.5 -27t3.5 -26q-23 0 -49 1.5t-55 3.5q-12 2 -17 3t-5.5 3.5t1.5 7t3 13.5q1 10 2 26.5t2 39.5q-1 18 0 27q2 20 15.5 49t20.5 49q0 35 23.5 82.5t48.5 88.5q5 4 16 18t22.5 30t20 30.5t8.5 20.5q0 3 -13 8.5t-20 5.5l-6 -2.5t-12 -2.5
q-19 0 -28 2t-23 2t-14 -4l-5 9h-36l-9 -9h-108q-8 0 -8 30v15q3 23 4 34.5t1 27.5h187q5 14 19 14q12 0 10 -7.5t10 -7.5q15 0 11 15zM328 498h38q2 0 3.5 2t3.5 2h2q13 -9 17 -7.5t3.5 6.5t-3.5 10l-3 5h-45q-16 0 -16 -18z" />
    <glyph glyph-name="eight" unicode="8" horiz-adv-x="439" 
d="M93 632l41 9q14 18 22 18h94q8 0 24 -3.5t21 -5.5q25 -7 44 -25t32.5 -40.5t20.5 -46t7 -40.5q0 -47 -18.5 -74t-44.5 -57q-5 -5 -5 -11q0 2 7.5 -5t17 -17t18.5 -19t11 -10q19 -15 25.5 -45t6.5 -61q0 -10 -6.5 -24.5t-7.5 -22.5q5 -26 -7 -44t-34 -37q-29 -23 -58 -36
q-28 -11 -59 -12t-60 -1q-11 0 -16.5 -2.5t-6.5 -2.5q-4 0 -24 8t-27 10q-13 13 -21.5 19.5t-14.5 11t-11 9.5t-11 14q-12 18 -16 36t-16 36q-11 11 -5.5 22.5t5.5 17.5q-5 11 -4 23t4 25t6.5 26t2.5 25q3 4 14 13.5t23 19t21.5 18t9.5 10.5q0 6 -10.5 18t-23.5 27
t-23.5 30.5t-10.5 29.5q0 5 2.5 8t2.5 8q0 4 -4.5 8t-4.5 8q2 2 6.5 15t9.5 28.5t9.5 30t5.5 20.5q4 9 9.5 13.5t11.5 8t10 7t5 11.5zM318 587v9h-9v-9h9zM318 560q-1 -1 -1 -4q0 -16 4.5 -31t5.5 -23h9v49q0 10 -12 10q-5 0 -6 -1zM138 493q0 -13 4.5 -29.5t13.5 -31
t22.5 -24t31.5 -9.5q34 0 57.5 26.5t23.5 61.5q0 12 -8 23.5t-19 20.5t-24 15t-22 6q-8 0 -21 -4t-26.5 -12t-23 -19t-9.5 -24zM129 219v-2q0 -4 3 -9t6 -11q2 -9 0 -27q6 -21 39 -35.5t65 -14.5q10 0 15 7.5t11 20.5q8 8 20 21t12 53q0 52 -36 83q-44 9 -66 9
q-52 0 -60 -45q-1 -5 -1.5 -23t-7.5 -27zM84 192v9h-9v-9h9zM89 143v36h-9v-36h9zM309 148q-11 -8 -13 -15t0.5 -10.5t7.5 -2.5t9 10q4 -10 26 -10q16 0 16 33q-7 0 -18 -1.5t-28 -3.5zM304 94v9h-9v-9h9z" />
    <glyph glyph-name="eight" unicode="&#xf038;" horiz-adv-x="439" 
d="M93 632l41 9q14 18 22 18h94q8 0 24 -3.5t21 -5.5q25 -7 44 -25t32.5 -40.5t20.5 -46t7 -40.5q0 -47 -18.5 -74t-44.5 -57q-5 -5 -5 -11q0 2 7.5 -5t17 -17t18.5 -19t11 -10q19 -15 25.5 -45t6.5 -61q0 -10 -6.5 -24.5t-7.5 -22.5q5 -26 -7 -44t-34 -37q-29 -23 -58 -36
q-28 -11 -59 -12t-60 -1q-11 0 -16.5 -2.5t-6.5 -2.5q-4 0 -24 8t-27 10q-13 13 -21.5 19.5t-14.5 11t-11 9.5t-11 14q-12 18 -16 36t-16 36q-11 11 -5.5 22.5t5.5 17.5q-5 11 -4 23t4 25t6.5 26t2.5 25q3 4 14 13.5t23 19t21.5 18t9.5 10.5q0 6 -10.5 18t-23.5 27
t-23.5 30.5t-10.5 29.5q0 5 2.5 8t2.5 8q0 4 -4.5 8t-4.5 8q2 2 6.5 15t9.5 28.5t9.5 30t5.5 20.5q4 9 9.5 13.5t11.5 8t10 7t5 11.5zM318 587v9h-9v-9h9zM318 560q-1 -1 -1 -4q0 -16 4.5 -31t5.5 -23h9v49q0 10 -12 10q-5 0 -6 -1zM138 493q0 -13 4.5 -29.5t13.5 -31
t22.5 -24t31.5 -9.5q34 0 57.5 26.5t23.5 61.5q0 12 -8 23.5t-19 20.5t-24 15t-22 6q-8 0 -21 -4t-26.5 -12t-23 -19t-9.5 -24zM129 219v-2q0 -4 3 -9t6 -11q2 -9 0 -27q6 -21 39 -35.5t65 -14.5q10 0 15 7.5t11 20.5q8 8 20 21t12 53q0 52 -36 83q-44 9 -66 9
q-52 0 -60 -45q-1 -5 -1.5 -23t-7.5 -27zM84 192v9h-9v-9h9zM89 143v36h-9v-36h9zM309 148q-11 -8 -13 -15t0.5 -10.5t7.5 -2.5t9 10q4 -10 26 -10q16 0 16 33q-7 0 -18 -1.5t-28 -3.5zM304 94v9h-9v-9h9z" />
    <glyph glyph-name="nine" unicode="9" horiz-adv-x="439" 
d="M147 641q8 0 26 7t28 7q11 0 13 -5h50q11 -8 20.5 -13.5t19.5 -13.5q44 -29 63.5 -70t26.5 -87q2 -16 6.5 -49.5t11.5 -84.5v-3q0 -33 -9 -66.5t-14 -70.5q-8 -107 -89 -166q-3 -2 -19 -5t-33.5 -6t-29.5 -7t-8 -8q-52 2 -91.5 28t-74.5 70q-15 19 -18 68q8 -5 13 -5
q6 0 9 2.5t7 2.5q3 0 4.5 -5t6.5 -5q12 0 23 14h45q1 -19 21 -38.5t48 -19.5q44 0 65 27q8 25 17.5 43t9.5 46q0 15 -4 23q-5 -6 -17 -13.5t-26.5 -13.5t-28.5 -10t-23 -4q-12 0 -35.5 7.5t-31.5 10.5q-24 8 -43 28l-38 40q-10 10 -18 37.5t-8 67.5v7q2 22 2.5 39t1.5 28
q2 43 16.5 73t41.5 62q26 29 50 36q8 -5 13 -5zM129 439q0 -25 4.5 -48.5t14.5 -41.5t25 -29t35 -11q26 0 41 9t23 24.5t12.5 37t10.5 46.5v4q0 18 -4.5 39t-13.5 38t-24 28.5t-36 11.5q-39 0 -52.5 -21.5t-30.5 -54.5q-5 -13 -5 -32zM84 468v21h-13v-5q0 -16 13 -16z
M354 430v9h-9v-9h9zM78 363v49h-12v-31v-32q1 -16 7.5 -17.5t11.5 4t5 14t-12 13.5zM336 367q-1 -1 -1 -4q0 -9 5.5 -9.5t10 2.5t4 7.5t-12.5 4.5q-5 0 -6 -1zM349 334v-59q14 0 14 30q0 29 -14 29z" />
    <glyph glyph-name="nine" unicode="&#xf039;" horiz-adv-x="439" 
d="M147 641q8 0 26 7t28 7q11 0 13 -5h50q11 -8 20.5 -13.5t19.5 -13.5q44 -29 63.5 -70t26.5 -87q2 -16 6.5 -49.5t11.5 -84.5v-3q0 -33 -9 -66.5t-14 -70.5q-8 -107 -89 -166q-3 -2 -19 -5t-33.5 -6t-29.5 -7t-8 -8q-52 2 -91.5 28t-74.5 70q-15 19 -18 68q8 -5 13 -5
q6 0 9 2.5t7 2.5q3 0 4.5 -5t6.5 -5q12 0 23 14h45q1 -19 21 -38.5t48 -19.5q44 0 65 27q8 25 17.5 43t9.5 46q0 15 -4 23q-5 -6 -17 -13.5t-26.5 -13.5t-28.5 -10t-23 -4q-12 0 -35.5 7.5t-31.5 10.5q-24 8 -43 28l-38 40q-10 10 -18 37.5t-8 67.5v7q2 22 2.5 39t1.5 28
q2 43 16.5 73t41.5 62q26 29 50 36q8 -5 13 -5zM129 439q0 -25 4.5 -48.5t14.5 -41.5t25 -29t35 -11q26 0 41 9t23 24.5t12.5 37t10.5 46.5v4q0 18 -4.5 39t-13.5 38t-24 28.5t-36 11.5q-39 0 -52.5 -21.5t-30.5 -54.5q-5 -13 -5 -32zM84 468v21h-13v-5q0 -16 13 -16z
M354 430v9h-9v-9h9zM78 363v49h-12v-31v-32q1 -16 7.5 -17.5t11.5 4t5 14t-12 13.5zM336 367q-1 -1 -1 -4q0 -9 5.5 -9.5t10 2.5t4 7.5t-12.5 4.5q-5 0 -6 -1zM349 334v-59q14 0 14 30q0 29 -14 29z" />
    <glyph glyph-name="colon" unicode=":" horiz-adv-x="282" 
d="M71 381v81h35q6 9 14 9h72q0 -5 2 -26.5t3 -45.5t0 -43.5t-5 -19.5q-29 1 -58.5 2.5t-58.5 2.5q3 27 -4 40zM111 421v-4q0 -27 4 -27h11q0 32 -11 32q-3 0 -4 -1zM133 366v15h-13v-5q0 -10 13 -10zM71 166q0 4 16 4h15q24 -4 41.5 -4t29.5 -3t17.5 -13t5.5 -34
q0 -15 -2.5 -22.5t-2.5 -16.5q0 -11 10 -15v-31l-59 4q3 10 -13 10q-15 0 -18 -10h-36q-3 0 -3.5 19t-0.5 40q0 8 2 22.5t2 33.5q0 6 -2 9t-2 7zM156 98v9h-9v-9h9z" />
    <glyph glyph-name="colon" unicode="&#xf03a;" horiz-adv-x="282" 
d="M71 381v81h35q6 9 14 9h72q0 -5 2 -26.5t3 -45.5t0 -43.5t-5 -19.5q-29 1 -58.5 2.5t-58.5 2.5q3 27 -4 40zM111 421v-4q0 -27 4 -27h11q0 32 -11 32q-3 0 -4 -1zM133 366v15h-13v-5q0 -10 13 -10zM71 166q0 4 16 4h15q24 -4 41.5 -4t29.5 -3t17.5 -13t5.5 -34
q0 -15 -2.5 -22.5t-2.5 -16.5q0 -11 10 -15v-31l-59 4q3 10 -13 10q-15 0 -18 -10h-36q-3 0 -3.5 19t-0.5 40q0 8 2 22.5t2 33.5q0 6 -2 9t-2 7zM156 98v9h-9v-9h9z" />
    <glyph glyph-name="semicolon" unicode=";" horiz-adv-x="282" 
d="M77 404q25 0 54.5 -1.5t64.5 -3.5q1 -8 1 -16v-16q0 -11 -3 -23.5t-3 -25.5q0 -18 3 -31t3 -18h-122q-1 0 -2.5 11t-1.5 29q0 26 3 50.5t3 44.5zM144 353q21 0 24 7.5t-2.5 13t-13.5 3t-8 -23.5zM71 8v90h127q0 -21 -3.5 -41t-3.5 -40q0 -12 1 -13q6 -10 2.5 -20
t-3.5 -15q0 -4 1 -4q6 -12 2.5 -21.5t-3.5 -17.5q0 -5 1 -6q6 -15 2 -18t-7 -9q-1 -3 -8 -21t-24 -39t-41 -21q-7 0 -18 1.5t-25 3.5q1 20 3.5 35.5t4.5 26.5q1 0 9 3.5t17 9t16.5 12.5t7.5 13v3q-5 14 -3.5 21t1.5 21h-46l-0.5 7t-1.5 14q-1 15 -8 25zM165 49h-9
q-1 -5 -1 -10v-10q0 -31 15 -31q0 18 -2.5 34.5z" />
    <glyph glyph-name="semicolon" unicode="&#xf03b;" horiz-adv-x="282" 
d="M77 404q25 0 54.5 -1.5t64.5 -3.5q1 -8 1 -16v-16q0 -11 -3 -23.5t-3 -25.5q0 -18 3 -31t3 -18h-122q-1 0 -2.5 11t-1.5 29q0 26 3 50.5t3 44.5zM144 353q21 0 24 7.5t-2.5 13t-13.5 3t-8 -23.5zM71 8v90h127q0 -21 -3.5 -41t-3.5 -40q0 -12 1 -13q6 -10 2.5 -20
t-3.5 -15q0 -4 1 -4q6 -12 2.5 -21.5t-3.5 -17.5q0 -5 1 -6q6 -15 2 -18t-7 -9q-1 -3 -8 -21t-24 -39t-41 -21q-7 0 -18 1.5t-25 3.5q1 20 3.5 35.5t4.5 26.5q1 0 9 3.5t17 9t16.5 12.5t7.5 13v3q-5 14 -3.5 21t1.5 21h-46l-0.5 7t-1.5 14q-1 15 -8 25zM165 49h-9
q-1 -5 -1 -10v-10q0 -31 15 -31q0 18 -2.5 34.5z" />
    <glyph glyph-name="less" unicode="&#x3c;" horiz-adv-x="520" 
d="M434 583q1 -17 12.5 -29.5t19 -22.5t4.5 -19t-31 -19q-33 -13 -69 -32t-75 -44q-49 -31 -98 -61.5t-99 -59.5v-5l107 -63l-4 -4q1 2 -15.5 4.5t-24.5 2.5v-7q14 -5 29.5 -14t19.5 -9q3 0 9 9q3 5 16 -1.5t27.5 -16t26 -18l11.5 -8.5q30 -17 55 -33t52 -26q3 -13 9 -18
q1 0 10 -3.5t20 -8t20 -10t9 -11.5q0 -16 -11.5 -33t-15.5 -27q-12 12 -29 24t-35 23t-33.5 19.5t-23.5 13.5q-45 18 -66.5 33t-46.5 34q-6 6 -23 11t-21 7q-16 13 -28.5 23.5t-21.5 12.5q-22 5 -35 17t-23 19q-14 7 -22 12t-12 11.5t-5 17t-1 28.5q0 9 12 21.5t29.5 25.5
t37 25t33.5 20q21 14 40.5 30.5t39.5 28.5q28 13 57.5 30.5t59.5 40.5q13 12 19.5 10.5t20.5 -1.5q6 0 15.5 6t18.5 14t17 16.5t12 13.5zM309 462v9h-9v-9h9zM304 430v9h-13v-9h13z" />
    <glyph glyph-name="less" unicode="&#xf03c;" horiz-adv-x="520" 
d="M434 583q1 -17 12.5 -29.5t19 -22.5t4.5 -19t-31 -19q-33 -13 -69 -32t-75 -44q-49 -31 -98 -61.5t-99 -59.5v-5l107 -63l-4 -4q1 2 -15.5 4.5t-24.5 2.5v-7q14 -5 29.5 -14t19.5 -9q3 0 9 9q3 5 16 -1.5t27.5 -16t26 -18l11.5 -8.5q30 -17 55 -33t52 -26q3 -13 9 -18
q1 0 10 -3.5t20 -8t20 -10t9 -11.5q0 -16 -11.5 -33t-15.5 -27q-12 12 -29 24t-35 23t-33.5 19.5t-23.5 13.5q-45 18 -66.5 33t-46.5 34q-6 6 -23 11t-21 7q-16 13 -28.5 23.5t-21.5 12.5q-22 5 -35 17t-23 19q-14 7 -22 12t-12 11.5t-5 17t-1 28.5q0 9 12 21.5t29.5 25.5
t37 25t33.5 20q21 14 40.5 30.5t39.5 28.5q28 13 57.5 30.5t59.5 40.5q13 12 19.5 10.5t20.5 -1.5q6 0 15.5 6t18.5 14t17 16.5t12 13.5zM309 462v9h-9v-9h9zM304 430v9h-13v-9h13z" />
    <glyph glyph-name="equal" unicode="=" horiz-adv-x="565" 
d="M35 439h-4l8 -4l494 -9q4 0 4 -15q0 -25 -4 -48l-166 4l-5 5l-19 2.5t-39 2.5q-10 0 -15 -5t-12 -5q1 0 -6.5 2t-18 5t-22 5t-17.5 2q-13 0 -28.5 -7t-28.5 -7h-23q-23 1 -47 2t-47 3q-4 1 -4 13v9q5 16 2.5 25.5t-2.5 19.5zM214 367q3 7 5 5t2 -5t-2 -5t-5 5zM39 188v67
l-4 5h112q94 0 190 -1.5t196 -3.5v-67l-193 4q0 10 -9 10q-10 0 -9 -10h-32q-1 0 -3 2.5t-6 2.5q-5 0 -6 -2.5t-5 -2.5q-14 0 -23.5 2.5t-12.5 2.5q-14 0 -24.5 -2t-17.5 -3h-30q-14 0 -23.5 2.5t-27.5 2.5q-19 0 -36 -4.5t-36 -4.5z" />
    <glyph glyph-name="equal" unicode="&#xf03d;" horiz-adv-x="565" 
d="M35 439h-4l8 -4l494 -9q4 0 4 -15q0 -25 -4 -48l-166 4l-5 5l-19 2.5t-39 2.5q-10 0 -15 -5t-12 -5q1 0 -6.5 2t-18 5t-22 5t-17.5 2q-13 0 -28.5 -7t-28.5 -7h-23q-23 1 -47 2t-47 3q-4 1 -4 13v9q5 16 2.5 25.5t-2.5 19.5zM214 367q3 7 5 5t2 -5t-2 -5t-5 5zM39 188v67
l-4 5h112q94 0 190 -1.5t196 -3.5v-67l-193 4q0 10 -9 10q-10 0 -9 -10h-32q-1 0 -3 2.5t-6 2.5q-5 0 -6 -2.5t-5 -2.5q-14 0 -23.5 2.5t-12.5 2.5q-14 0 -24.5 -2t-17.5 -3h-30q-14 0 -23.5 2.5t-27.5 2.5q-19 0 -36 -4.5t-36 -4.5z" />
    <glyph glyph-name="greater" unicode="&#x3e;" horiz-adv-x="520" 
d="M57 646q11 -12 33 -26t44.5 -27t41.5 -23t25 -14q25 -25 45 -40q6 -6 22 -14q30 -14 53.5 -25t36.5 -20q17 -12 25 -21t20 -15q16 -5 31.5 -13t31.5 -18q14 -8 13.5 -10t-0.5 -17q0 -17 2.5 -26t2.5 -20q0 -5 -11.5 -14t-26 -18t-27.5 -16t-16 -9q-40 -10 -70 -35
t-51 -42l-4 -2t-5 -2q-17 -2 -32.5 -10t-29.5 -18t-26.5 -20t-23.5 -15q-40 -19 -72 -40q-29 -18 -36 -18q-8 0 -9 4l-22 54l9.5 7t21.5 15t22.5 16.5t13.5 11.5q5 5 13 5v-17q15 0 23 29q20 8 41 18t39 23q28 20 47.5 34.5t33.5 23.5q28 19 58.5 32.5t49.5 26.5q5 3 5 6
q0 2 -16.5 12t-36 21.5t-37 21t-18.5 10.5q-43 33 -77 45q-39 19 -76.5 47.5t-84.5 51.5q-31 16 -31 29q0 8 5.5 18.5t12.5 20t12 16zM196 524v9h-8v-9h8zM253 489h-7v-5q0 -12 8 -21t18.5 -14.5t22 -8.5t18.5 -3v11q0 -6 -8 0t-18.5 15t-20.5 17.5t-13 8.5z" />
    <glyph glyph-name="greater" unicode="&#xf03e;" horiz-adv-x="520" 
d="M57 646q11 -12 33 -26t44.5 -27t41.5 -23t25 -14q25 -25 45 -40q6 -6 22 -14q30 -14 53.5 -25t36.5 -20q17 -12 25 -21t20 -15q16 -5 31.5 -13t31.5 -18q14 -8 13.5 -10t-0.5 -17q0 -17 2.5 -26t2.5 -20q0 -5 -11.5 -14t-26 -18t-27.5 -16t-16 -9q-40 -10 -70 -35
t-51 -42l-4 -2t-5 -2q-17 -2 -32.5 -10t-29.5 -18t-26.5 -20t-23.5 -15q-40 -19 -72 -40q-29 -18 -36 -18q-8 0 -9 4l-22 54l9.5 7t21.5 15t22.5 16.5t13.5 11.5q5 5 13 5v-17q15 0 23 29q20 8 41 18t39 23q28 20 47.5 34.5t33.5 23.5q28 19 58.5 32.5t49.5 26.5q5 3 5 6
q0 2 -16.5 12t-36 21.5t-37 21t-18.5 10.5q-43 33 -77 45q-39 19 -76.5 47.5t-84.5 51.5q-31 16 -31 29q0 8 5.5 18.5t12.5 20t12 16zM196 524v9h-8v-9h8zM253 489h-7v-5q0 -12 8 -21t18.5 -14.5t22 -8.5t18.5 -3v11q0 -6 -8 0t-18.5 15t-20.5 17.5t-13 8.5z" />
    <glyph glyph-name="question" unicode="?" horiz-adv-x="394" 
d="M54 475h-41q0 74 35 121q2 14 15 26.5t30.5 21.5t36 14.5t31.5 5.5h4q14 -5 18 -2.5t11 2.5q13 0 19.5 -2.5t7.5 -2.5l6 2.5t12 2.5q28 0 42.5 -11t36.5 -16q24 -23 36 -56.5t13 -60.5q4 -109 -90 -184q-15 -7 -16 -16.5t-11 -14.5q-12 -12 -16 -32.5t-4 -30.5h-83l-4 9
q-1 2 -1 20q0 16 2.5 35.5t9 37.5t17 32t25.5 18q-4 -2 5 6.5t21 22t22.5 30t10.5 31.5q0 11 -5.5 25t-15 26.5t-23 21t-30.5 8.5q-5 0 -12 -5.5t-14 -13t-12 -14.5t-5 -10t5 -11l-9 -49h-90q10 0 10 13zM84 523v55h-9q0 -2 -4.5 -12t-4.5 -23q0 -20 18 -20zM276 554
q16 0 16 23q-16 0 -16 -23zM309 480v53h-9v-53h9zM120 183l126 -9q-3 0 1 -12t4 -23q0 -13 -3 -26t-3 -24q0 -36 5 -49l-121 4q-1 22 -2.5 43.5t-6.5 42.5q-2 27 0 53zM214 125v9h-18v-9h18zM174 112q0 -12 2 -20t16 -8q10 0 15.5 8t6.5 14.5t-3.5 8t-14.5 -11.5
q-4 -10 -7 3t-3 21q-12 0 -12 -15z" />
    <glyph glyph-name="question" unicode="&#xf03f;" horiz-adv-x="394" 
d="M54 475h-41q0 74 35 121q2 14 15 26.5t30.5 21.5t36 14.5t31.5 5.5h4q14 -5 18 -2.5t11 2.5q13 0 19.5 -2.5t7.5 -2.5l6 2.5t12 2.5q28 0 42.5 -11t36.5 -16q24 -23 36 -56.5t13 -60.5q4 -109 -90 -184q-15 -7 -16 -16.5t-11 -14.5q-12 -12 -16 -32.5t-4 -30.5h-83l-4 9
q-1 2 -1 20q0 16 2.5 35.5t9 37.5t17 32t25.5 18q-4 -2 5 6.5t21 22t22.5 30t10.5 31.5q0 11 -5.5 25t-15 26.5t-23 21t-30.5 8.5q-5 0 -12 -5.5t-14 -13t-12 -14.5t-5 -10t5 -11l-9 -49h-90q10 0 10 13zM84 523v55h-9q0 -2 -4.5 -12t-4.5 -23q0 -20 18 -20zM276 554
q16 0 16 23q-16 0 -16 -23zM309 480v53h-9v-53h9zM120 183l126 -9q-3 0 1 -12t4 -23q0 -13 -3 -26t-3 -24q0 -36 5 -49l-121 4q-1 22 -2.5 43.5t-6.5 42.5q-2 27 0 53zM214 125v9h-18v-9h18zM174 112q0 -12 2 -20t16 -8q10 0 15.5 8t6.5 14.5t-3.5 8t-14.5 -11.5
q-4 -10 -7 3t-3 21q-12 0 -12 -15z" />
    <glyph glyph-name="at" unicode="@" horiz-adv-x="812" 
d="M376 628h99q11 -4 21 -7.5t19 -6.5q13 -1 20.5 -5t14 -8t12.5 -6t16 1l54 -45q27 -3 46 -27.5t35 -48.5q3 -22 15 -38.5t25 -33.5q-5 -29 9 -45q7 -9 9.5 -24t3.5 -30.5t0.5 -28.5t-0.5 -17q0 -6 4.5 -11t4.5 -10q-3 -7 -5.5 -12.5t-3.5 -9.5q-6 -17 -7.5 -42.5
t-5.5 -47.5q-1 -7 -16 -22.5t-33 -31.5t-34.5 -28t-19.5 -12q-13 -2 -27 -8t-25 -6q-3 0 -6 2.5t-5 2.5q-15 -5 -24.5 -6t-18 2t-18 9.5t-24.5 16.5q-3 2 -19 -2.5t-36.5 -10.5t-40 -12t-30.5 -6h-29q-26 0 -43 10t-31 17q-12 3 -26.5 15.5t-26.5 29t-20 34t-8 31.5
q0 3 2.5 7.5t2.5 5.5q0 5 -5 23t-5 27q0 19 5 38t9 36q-2 14 -0.5 24.5t4.5 20.5q12 35 41 49l4 4q40 55 105 55q9 0 26 -3t35 -8t33.5 -10.5t22.5 -10.5v-8q0 11 7.5 15.5t16.5 5.5t17.5 -0.5t10.5 -3.5l5 -9h26q0 12 12 12q0 -22 0.5 -43t1.5 -41q4 -14 4.5 -19t0.5 -19
q0 -21 -5 -29v-130q0 -32 35 -32q19 0 34.5 11t27 28t18 36.5t6.5 37.5q0 9 -4 13q9 110 -72 211q-8 10 -20.5 24t-26 26.5t-27 21.5t-23.5 9q-2 0 -6 -2.5t-5 -2.5q-6 0 -13 4q-46 28 -102 28q-19 0 -33 -14h-58q-9 0 -26.5 -10.5t-36 -23.5t-33.5 -24.5t-17 -13.5
q-14 -9 -17 -13q-11 -22 -15 -32t-28 -10q-7 -11 -0.5 -12t7.5 -5q5 -21 -16 -49v18h-11v-22q9 -1 9 -7q0 -23 -4.5 -30.5t-18.5 -7.5q-8 0 -10.5 -16t-3 -38t0.5 -43.5t1 -32.5h8q1 24 2.5 49t6.5 49l4 -4v-81q14 -23 14 -72q22 -22 31 -45q2 -8 8 -21.5t16 -28t23 -26.5
t29 -17q20 0 32.5 -6.5t25 -14t27.5 -14t41 -6.5q4 0 5 1q9 3 21.5 4t25 1t23 -0.5t15.5 -0.5q57 10 103 41q6 4 14 -2.5t15 -18t11.5 -25.5t4.5 -26q0 -16 -18 -18q-16 -1 -32 0q-2 -9 -13.5 -15t-25.5 -10t-27 -6.5t-19 -4.5q-5 -3 -16 -2.5t-22 2t-21 3t-13 1.5
q-26 1 -53 2.5t-54 2.5q-14 5 -35 16.5t-43 25.5t-40 27t-26 21q-19 13 -31.5 30t-26.5 27q-6 5 -12 21t-12 34.5t-11 36t-10 25.5q-6 7 -8.5 20t-3.5 26.5t-1 26v19.5v33l2 4t2 5q-2 25 -0.5 45t4.5 36q16 14 13.5 25t0.5 20q4 3 9.5 13.5t10 23t9 24.5l7.5 20q1 2 8.5 9
t17 16t17.5 17t11 12q50 59 116 85q26 1 40 10t28 12q20 -1 34.5 -1.5t23.5 6.5zM623 508v-10q0 -2 18 -5q18 -5 13.5 5t-31.5 10zM521 345h-13v-27q-12 3 -12 -11q0 -6 1 -7q11 -21 16 -20.5t6.5 12t1.5 27.5v26zM340 336q-14 -7 -22 -26t-12.5 -41.5t-5.5 -43.5t-1 -32
q0 -14 6.5 -27t15 -24t17 -19t11.5 -11q17 -14 38 -14q3 0 11 3t18 6.5t20 7.5t16 6q3 16 10 30.5t8 31.5q3 15 4 28t1 38v24q-10 7 -12.5 19t-7 22.5t-16 18.5t-40.5 8q-9 0 -24 -1.5zM273 239v21h-14v-5q0 -16 14 -16zM497 251v9h-9v-9h9zM739 173q13 0 14.5 8t-1.5 13.5
t-8 3t-5 -24.5zM327 -112v-10q30 0 53 6q1 1 1 4q0 10 -12 10q-5 0 -6 -1q-36 -6 -36 -9z" />
    <glyph glyph-name="at" unicode="&#xf040;" horiz-adv-x="812" 
d="M376 628h99q11 -4 21 -7.5t19 -6.5q13 -1 20.5 -5t14 -8t12.5 -6t16 1l54 -45q27 -3 46 -27.5t35 -48.5q3 -22 15 -38.5t25 -33.5q-5 -29 9 -45q7 -9 9.5 -24t3.5 -30.5t0.5 -28.5t-0.5 -17q0 -6 4.5 -11t4.5 -10q-3 -7 -5.5 -12.5t-3.5 -9.5q-6 -17 -7.5 -42.5
t-5.5 -47.5q-1 -7 -16 -22.5t-33 -31.5t-34.5 -28t-19.5 -12q-13 -2 -27 -8t-25 -6q-3 0 -6 2.5t-5 2.5q-15 -5 -24.5 -6t-18 2t-18 9.5t-24.5 16.5q-3 2 -19 -2.5t-36.5 -10.5t-40 -12t-30.5 -6h-29q-26 0 -43 10t-31 17q-12 3 -26.5 15.5t-26.5 29t-20 34t-8 31.5
q0 3 2.5 7.5t2.5 5.5q0 5 -5 23t-5 27q0 19 5 38t9 36q-2 14 -0.5 24.5t4.5 20.5q12 35 41 49l4 4q40 55 105 55q9 0 26 -3t35 -8t33.5 -10.5t22.5 -10.5v-8q0 11 7.5 15.5t16.5 5.5t17.5 -0.5t10.5 -3.5l5 -9h26q0 12 12 12q0 -22 0.5 -43t1.5 -41q4 -14 4.5 -19t0.5 -19
q0 -21 -5 -29v-130q0 -32 35 -32q19 0 34.5 11t27 28t18 36.5t6.5 37.5q0 9 -4 13q9 110 -72 211q-8 10 -20.5 24t-26 26.5t-27 21.5t-23.5 9q-2 0 -6 -2.5t-5 -2.5q-6 0 -13 4q-46 28 -102 28q-19 0 -33 -14h-58q-9 0 -26.5 -10.5t-36 -23.5t-33.5 -24.5t-17 -13.5
q-14 -9 -17 -13q-11 -22 -15 -32t-28 -10q-7 -11 -0.5 -12t7.5 -5q5 -21 -16 -49v18h-11v-22q9 -1 9 -7q0 -23 -4.5 -30.5t-18.5 -7.5q-8 0 -10.5 -16t-3 -38t0.5 -43.5t1 -32.5h8q1 24 2.5 49t6.5 49l4 -4v-81q14 -23 14 -72q22 -22 31 -45q2 -8 8 -21.5t16 -28t23 -26.5
t29 -17q20 0 32.5 -6.5t25 -14t27.5 -14t41 -6.5q4 0 5 1q9 3 21.5 4t25 1t23 -0.5t15.5 -0.5q57 10 103 41q6 4 14 -2.5t15 -18t11.5 -25.5t4.5 -26q0 -16 -18 -18q-16 -1 -32 0q-2 -9 -13.5 -15t-25.5 -10t-27 -6.5t-19 -4.5q-5 -3 -16 -2.5t-22 2t-21 3t-13 1.5
q-26 1 -53 2.5t-54 2.5q-14 5 -35 16.5t-43 25.5t-40 27t-26 21q-19 13 -31.5 30t-26.5 27q-6 5 -12 21t-12 34.5t-11 36t-10 25.5q-6 7 -8.5 20t-3.5 26.5t-1 26v19.5v33l2 4t2 5q-2 25 -0.5 45t4.5 36q16 14 13.5 25t0.5 20q4 3 9.5 13.5t10 23t9 24.5l7.5 20q1 2 8.5 9
t17 16t17.5 17t11 12q50 59 116 85q26 1 40 10t28 12q20 -1 34.5 -1.5t23.5 6.5zM623 508v-10q0 -2 18 -5q18 -5 13.5 5t-31.5 10zM521 345h-13v-27q-12 3 -12 -11q0 -6 1 -7q11 -21 16 -20.5t6.5 12t1.5 27.5v26zM340 336q-14 -7 -22 -26t-12.5 -41.5t-5.5 -43.5t-1 -32
q0 -14 6.5 -27t15 -24t17 -19t11.5 -11q17 -14 38 -14q3 0 11 3t18 6.5t20 7.5t16 6q3 16 10 30.5t8 31.5q3 15 4 28t1 38v24q-10 7 -12.5 19t-7 22.5t-16 18.5t-40.5 8q-9 0 -24 -1.5zM273 239v21h-14v-5q0 -16 14 -16zM497 251v9h-9v-9h9zM739 173q13 0 14.5 8t-1.5 13.5
t-8 3t-5 -24.5zM327 -112v-10q30 0 53 6q1 1 1 4q0 10 -12 10q-5 0 -6 -1q-36 -6 -36 -9z" />
    <glyph glyph-name="A" unicode="A" 
d="M159 616q4 0 5 -5.5t7 -5.5q10 0 15.5 5t11.5 5t13.5 -3t8.5 -3q18 0 18 5h36q2 -24 8 -38t13.5 -24.5t14 -22t9.5 -31.5q6 -29 11 -41.5t7 -30.5q-3 -20 0 -27q13 -13 20.5 -33.5t12 -43t8 -44t8.5 -36.5q10 -31 19.5 -69.5t12.5 -56.5q4 -16 13.5 -36t13.5 -31
q-6 -31 18 -49l-9 6h-126q-2 19 -7 41.5t-6 32.5q-22 14 -23 43h-38v26q0 -1 -7 -5t-15 -8t-16 -7.5t-9 -3.5h-67q0 -7 -4.5 -21.5t-10.5 -31t-12 -31.5t-9 -24q-4 -11 -14 -10t-22 1q-22 1 -43 2.5t-42 2.5q5 7 6 21t2 19q5 23 11 45.5t12 44.5q3 1 7 12t7.5 25l7 28
t5.5 20q16 40 13 68q6 2 16.5 29t21 60t19 62.5t11.5 36.5q1 3 2 7.5t2 10.5q4 48 18 81q15 19 15 33zM216 444q2 -23 -5 -36q-6 -18 -12.5 -36t-5.5 -40q-11 -9 -19 -38t-8 -57v-9l9 -4h86q4 0 4 15q0 21 -5.5 46t-12.5 47q-2 8 -13 26q-2 13 -4 36t-5 36q-3 8 -9 14z
M149 372v9h-9v-9h9zM144 332v31h-9v-31h9zM67 216q0 -38 28 -38q18 0 18 33q0 1 -10.5 11.5t-21.5 10.5q-14 0 -14 -17zM81 215q14 -2 14 -16q0 -2 -6.5 6t-7.5 10zM337 206q0 -22 13 -22v32q-13 0 -13 -10zM68 171v-25q23 0 23 11q0 14 -23 14z" />
    <glyph glyph-name="A" unicode="&#xf041;" 
d="M159 616q4 0 5 -5.5t7 -5.5q10 0 15.5 5t11.5 5t13.5 -3t8.5 -3q18 0 18 5h36q2 -24 8 -38t13.5 -24.5t14 -22t9.5 -31.5q6 -29 11 -41.5t7 -30.5q-3 -20 0 -27q13 -13 20.5 -33.5t12 -43t8 -44t8.5 -36.5q10 -31 19.5 -69.5t12.5 -56.5q4 -16 13.5 -36t13.5 -31
q-6 -31 18 -49l-9 6h-126q-2 19 -7 41.5t-6 32.5q-22 14 -23 43h-38v26q0 -1 -7 -5t-15 -8t-16 -7.5t-9 -3.5h-67q0 -7 -4.5 -21.5t-10.5 -31t-12 -31.5t-9 -24q-4 -11 -14 -10t-22 1q-22 1 -43 2.5t-42 2.5q5 7 6 21t2 19q5 23 11 45.5t12 44.5q3 1 7 12t7.5 25l7 28
t5.5 20q16 40 13 68q6 2 16.5 29t21 60t19 62.5t11.5 36.5q1 3 2 7.5t2 10.5q4 48 18 81q15 19 15 33zM216 444q2 -23 -5 -36q-6 -18 -12.5 -36t-5.5 -40q-11 -9 -19 -38t-8 -57v-9l9 -4h86q4 0 4 15q0 21 -5.5 46t-12.5 47q-2 8 -13 26q-2 13 -4 36t-5 36q-3 8 -9 14z
M149 372v9h-9v-9h9zM144 332v31h-9v-31h9zM67 216q0 -38 28 -38q18 0 18 33q0 1 -10.5 11.5t-21.5 10.5q-14 0 -14 -17zM81 215q14 -2 14 -16q0 -2 -6.5 6t-7.5 10zM337 206q0 -22 13 -22v32q-13 0 -13 -10zM68 171v-25q23 0 23 11q0 14 -23 14z" />
    <glyph glyph-name="B" unicode="B" horiz-adv-x="498" 
d="M206 618q22 0 39.5 9.5t29.5 9.5q44 0 68 -11.5t51 -24.5q17 -3 27 -22.5t15 -43.5t6.5 -47t1.5 -33q0 -18 -9 -29t-9 -27q-4 -3 -14.5 -11t-21.5 -16.5t-19.5 -14.5t-8.5 -5q0 -2 1 -3q70 -30 90 -98q5 -16 9 -23v-67q0 -11 -7 -30t-17.5 -37.5t-22 -33t-21.5 -16.5
q-4 0 -19 -2.5t-31 -6t-29 -7.5t-15 -6h-256q0 32 5 45q-1 41 0 81q6 18 1 29t-5 22q0 10 2 14.5t2 12.5q0 1 -2 6t-2 12q0 5 2 10t2 8q0 9 -2 14t-2 11q0 10 4 18v71q0 5 -2 9.5t-2 6.5v2q2 20 3 32.5t1 17.5q0 16 -2 20t-2 11v32q0 13 4.5 29t4.5 24q0 16 -4.5 24.5
t-4.5 18.5q0 3 5.5 8t12.5 9.5t14 8t10 3.5q4 0 5.5 -2.5t5.5 -2.5q7 0 9 5h72q3 0 8 -7t19 -7zM368 471v58h-9q-1 -16 -3 -31.5t-2 -32.5q14 0 14 6zM166 489q0 -7 4.5 -15t4.5 -22v-17q-1 -3 -2 -7.5t-3 -10.5q0 -18 5 -18h94q29 1 39 29.5t10 58.5v2l-54 27h-89
q-12 0 -9 -27zM133 362q16 0 16 27q-16 0 -16 -27zM287 287q-21 -9 -54 -8.5t-58 -0.5q0 -3 -1 -14t-3 -24.5t-3.5 -26t-1.5 -18.5q0 -12 4 -29q2 -11 16.5 -16t33.5 -6.5t39 -1t33 0.5q21 0 32.5 23.5t11.5 55.5q0 41 -49 65zM125 253v-29q-9 0 -9 -8q0 -23 3 -36.5
t2 -13.5l9 -5q-2 -11 0 -30t4 -19h10q0 39 -1.5 71.5t-3.5 58.5q0 11 -14 11zM421 224v9h-9v-9h9z" />
    <glyph glyph-name="B" unicode="&#xf042;" horiz-adv-x="498" 
d="M206 618q22 0 39.5 9.5t29.5 9.5q44 0 68 -11.5t51 -24.5q17 -3 27 -22.5t15 -43.5t6.5 -47t1.5 -33q0 -18 -9 -29t-9 -27q-4 -3 -14.5 -11t-21.5 -16.5t-19.5 -14.5t-8.5 -5q0 -2 1 -3q70 -30 90 -98q5 -16 9 -23v-67q0 -11 -7 -30t-17.5 -37.5t-22 -33t-21.5 -16.5
q-4 0 -19 -2.5t-31 -6t-29 -7.5t-15 -6h-256q0 32 5 45q-1 41 0 81q6 18 1 29t-5 22q0 10 2 14.5t2 12.5q0 1 -2 6t-2 12q0 5 2 10t2 8q0 9 -2 14t-2 11q0 10 4 18v71q0 5 -2 9.5t-2 6.5v2q2 20 3 32.5t1 17.5q0 16 -2 20t-2 11v32q0 13 4.5 29t4.5 24q0 16 -4.5 24.5
t-4.5 18.5q0 3 5.5 8t12.5 9.5t14 8t10 3.5q4 0 5.5 -2.5t5.5 -2.5q7 0 9 5h72q3 0 8 -7t19 -7zM368 471v58h-9q-1 -16 -3 -31.5t-2 -32.5q14 0 14 6zM166 489q0 -7 4.5 -15t4.5 -22v-17q-1 -3 -2 -7.5t-3 -10.5q0 -18 5 -18h94q29 1 39 29.5t10 58.5v2l-54 27h-89
q-12 0 -9 -27zM133 362q16 0 16 27q-16 0 -16 -27zM287 287q-21 -9 -54 -8.5t-58 -0.5q0 -3 -1 -14t-3 -24.5t-3.5 -26t-1.5 -18.5q0 -12 4 -29q2 -11 16.5 -16t33.5 -6.5t39 -1t33 0.5q21 0 32.5 23.5t11.5 55.5q0 41 -49 65zM125 253v-29q-9 0 -9 -8q0 -23 3 -36.5
t2 -13.5l9 -5q-2 -11 0 -30t4 -19h10q0 39 -1.5 71.5t-3.5 58.5q0 11 -14 11zM421 224v9h-9v-9h9z" />
    <glyph glyph-name="C" unicode="C" horiz-adv-x="493" 
d="M304 592q19 -10 45 -19t40 -17q36 -22 49 -58l9 -27q6 -19 9 -27q4 -11 6 -15t2.5 -6t0.5 -4.5v-10.5v-5q11 -11 7 -18t-4 -18q-29 0 -58.5 1.5t-60.5 3.5q-7 7 -11.5 23.5t-11 33t-17 29.5t-29.5 13q-10 0 -15 -2.5t-11 -2.5q-8 0 -8 5q-40 0 -55 -27q-8 -15 -13 -26.5
t-9 -18.5q-17 -35 -20 -82.5t-3 -88.5q0 2 2 -3.5t5 -12.5t5 -14t2 -10q1 -16 3 -25.5t5 -17.5t6.5 -16.5t8.5 -21.5q6 -24 32 -34.5t46 -10.5q31 0 49 14t36 36v49q0 3 15 8.5t19 5.5q5 0 7.5 -2.5t7.5 -2.5q23 0 44.5 3t39.5 3q0 -58 -27 -105q-10 -17 -20.5 -36
t-20.5 -39q-21 -13 -40.5 -22t-30.5 -9q-5 0 -14 -3.5t-18.5 -7.5t-17.5 -7.5t-13 -4.5q-11 6 -27 9t-34 5.5t-35 5t-30 7.5q-23 7 -33 22t-21 17q-18 0 -18.5 10t-3.5 17q-17 13 -24 25t-9.5 22.5t-2 19t-0.5 14.5q-13 21 -17.5 48.5t-4.5 47.5q0 75 13 146q4 23 6.5 47.5
t11.5 38.5q16 24 18 31q-2 11 18 34t45 38q31 21 36 36q22 -5 27 -5l3 1.5t10 3.5q15 7 37 5t30 -1l16 2t16 3zM349 507v9h-9v-9h9zM353 493q-1 -1 -1 -4q0 -20 30 -20q0 25 -18 25q-8 0 -11 -1zM111 390v13h-9v-13h9zM129 332v13h-9v-13h9zM101 226q0 -23 12 -44.5
t22 -21.5q0 2 -3 11t-7 20.5t-7 22t-3 15.5q0 14 9 17v44q-13 0 -18 -21t-5 -43zM133 215v13h-9v-13h9z" />
    <glyph glyph-name="C" unicode="&#xf043;" horiz-adv-x="493" 
d="M304 592q19 -10 45 -19t40 -17q36 -22 49 -58l9 -27q6 -19 9 -27q4 -11 6 -15t2.5 -6t0.5 -4.5v-10.5v-5q11 -11 7 -18t-4 -18q-29 0 -58.5 1.5t-60.5 3.5q-7 7 -11.5 23.5t-11 33t-17 29.5t-29.5 13q-10 0 -15 -2.5t-11 -2.5q-8 0 -8 5q-40 0 -55 -27q-8 -15 -13 -26.5
t-9 -18.5q-17 -35 -20 -82.5t-3 -88.5q0 2 2 -3.5t5 -12.5t5 -14t2 -10q1 -16 3 -25.5t5 -17.5t6.5 -16.5t8.5 -21.5q6 -24 32 -34.5t46 -10.5q31 0 49 14t36 36v49q0 3 15 8.5t19 5.5q5 0 7.5 -2.5t7.5 -2.5q23 0 44.5 3t39.5 3q0 -58 -27 -105q-10 -17 -20.5 -36
t-20.5 -39q-21 -13 -40.5 -22t-30.5 -9q-5 0 -14 -3.5t-18.5 -7.5t-17.5 -7.5t-13 -4.5q-11 6 -27 9t-34 5.5t-35 5t-30 7.5q-23 7 -33 22t-21 17q-18 0 -18.5 10t-3.5 17q-17 13 -24 25t-9.5 22.5t-2 19t-0.5 14.5q-13 21 -17.5 48.5t-4.5 47.5q0 75 13 146q4 23 6.5 47.5
t11.5 38.5q16 24 18 31q-2 11 18 34t45 38q31 21 36 36q22 -5 27 -5l3 1.5t10 3.5q15 7 37 5t30 -1l16 2t16 3zM349 507v9h-9v-9h9zM353 493q-1 -1 -1 -4q0 -20 30 -20q0 25 -18 25q-8 0 -11 -1zM111 390v13h-9v-13h9zM129 332v13h-9v-13h9zM101 226q0 -23 12 -44.5
t22 -21.5q0 2 -3 11t-7 20.5t-7 22t-3 15.5q0 14 9 17v44q-13 0 -18 -21t-5 -43zM133 215v13h-9v-13h9z" />
    <glyph glyph-name="D" unicode="D" horiz-adv-x="520" 
d="M120 589v16h134q5 5 18 5q22 0 45 -14q3 -2 13.5 -3.5t22.5 -4.5t23.5 -7.5t16.5 -11.5q19 -23 37 -44t26 -50q12 -22 18.5 -45t8.5 -36q10 -44 10 -109q0 -78 -28 -137q-19 -40 -22 -63q-2 -11 -10.5 -17t-21.5 -24q-8 -10 -18 -13.5t-19.5 -5.5t-17.5 -5t-12 -12
q-20 4 -41 -2t-35 -6q-5 0 -9 -4l-202 4l-5 4q2 26 -3 49.5t-5 53.5v26q0 8 4.5 22t4.5 31q0 22 -4.5 31.5t-4.5 25.5q0 14 2 21t2 14v42q0 18 -2 33t-2 32q0 19 4.5 42.5t3.5 29.5q-7 11 -7.5 15t-0.5 14v12q6 14 4.5 36.5t-0.5 30.5q2 21 9 22l40 9l5 9q-4 -7 5.5 -11.5
t12.5 -4.5zM272 489h-96q0 -31 -0.5 -61t-1.5 -61q-2 -26 -9 -80q0 -2 1 -14.5t3 -27.5t3.5 -28t1.5 -16q0 -13 -3.5 -19t-5.5 -16q-1 -4 4 -18q3 -26 12 -31.5t43 -5.5q62 0 98 37q14 14 23 45t22 71q8 24 8.5 51t0.5 52h-12v-18q-10 17 -15 36q-1 3 -3.5 15.5t-6.5 25.5
t-9.5 22t-12.5 5q-8 10 -23 23t-22 13zM385 408v9h-9v-9h9zM87 126q0 -17 1 -19l5 -4h31v31h-11v-18h-7q0 19 -4 32q2 4 8 8t6 13q0 15 -10 15q-4 0 -7.5 -7.5t-6 -17.5t-4 -19.5t-1.5 -13.5z" />
    <glyph glyph-name="D" unicode="&#xf044;" horiz-adv-x="520" 
d="M120 589v16h134q5 5 18 5q22 0 45 -14q3 -2 13.5 -3.5t22.5 -4.5t23.5 -7.5t16.5 -11.5q19 -23 37 -44t26 -50q12 -22 18.5 -45t8.5 -36q10 -44 10 -109q0 -78 -28 -137q-19 -40 -22 -63q-2 -11 -10.5 -17t-21.5 -24q-8 -10 -18 -13.5t-19.5 -5.5t-17.5 -5t-12 -12
q-20 4 -41 -2t-35 -6q-5 0 -9 -4l-202 4l-5 4q2 26 -3 49.5t-5 53.5v26q0 8 4.5 22t4.5 31q0 22 -4.5 31.5t-4.5 25.5q0 14 2 21t2 14v42q0 18 -2 33t-2 32q0 19 4.5 42.5t3.5 29.5q-7 11 -7.5 15t-0.5 14v12q6 14 4.5 36.5t-0.5 30.5q2 21 9 22l40 9l5 9q-4 -7 5.5 -11.5
t12.5 -4.5zM272 489h-96q0 -31 -0.5 -61t-1.5 -61q-2 -26 -9 -80q0 -2 1 -14.5t3 -27.5t3.5 -28t1.5 -16q0 -13 -3.5 -19t-5.5 -16q-1 -4 4 -18q3 -26 12 -31.5t43 -5.5q62 0 98 37q14 14 23 45t22 71q8 24 8.5 51t0.5 52h-12v-18q-10 17 -15 36q-1 3 -3.5 15.5t-6.5 25.5
t-9.5 22t-12.5 5q-8 10 -23 23t-22 13zM385 408v9h-9v-9h9zM87 126q0 -17 1 -19l5 -4h31v31h-11v-18h-7q0 19 -4 32q2 4 8 8t6 13q0 15 -10 15q-4 0 -7.5 -7.5t-6 -17.5t-4 -19.5t-1.5 -13.5z" />
    <glyph glyph-name="E" unicode="E" horiz-adv-x="448" 
d="M48 601v27h7q7 -1 26.5 -10.5t29.5 -10.5v21h94l5 -9h116q14 9 39 9q15 0 30 -1.5t30 -3.5q-2 -10 -1 -22.5t3 -24t4.5 -21t2.5 -13.5v-13q0 -18 -6 -18h-3q-78 1 -136.5 2.5t-96.5 2.5q-7 -1 -13 -1h-11q1 1 -1.5 -10.5t-2.5 -22.5q0 -10 2.5 -17t2.5 -12q2 -29 0 -59
l5 -6h224v-92q0 -1 2.5 -4t2.5 -10q0 -9 -4 -8.5t-9 4t-9.5 8.5l-4.5 5q-4 0 -13.5 -2t-18.5 -5t-15.5 -5t-5.5 -2q-13 0 -28.5 5t-28.5 5q-26 0 -50 -4.5t-42 -4.5v-99q-10 -10 -7 -21t12.5 -20.5t22.5 -15.5t23 -6q32 0 52 5q1 1 1 4q0 11 -15 9h139l5 -9h24q0 -16 6 -33
t6 -25q0 -17 -5 -29.5t-5 -20.5h-376q-1 15 -7 33t-6 30q0 16 2 23t2 18t-2 17.5t-2 13.5v5q10 14 5 30.5t-5 32.5v22q10 14 6 27.5t-6 21.5v9q0 18 2 22t2 19q0 11 -2 14t-2 8v22q0 4 2 16t2 27q0 11 -2 21t-2 22v27q6 16 7.5 23.5t1.5 22.5q0 14 -2.5 18.5t-2.5 11.5v27z
M106 533v-49q-2 6 -14 6q0 -17 9.5 -29.5t9.5 -21.5h9v85q8 2 6.5 6t-6 7t-9.5 3t-5 -7zM186 326q24 0 24 6v27q-24 0 -24 -33zM169 336v9h-9v-9h9zM328 121h-29v-5q0 -9 16 -9q13 0 13 14z" />
    <glyph glyph-name="E" unicode="&#xf045;" horiz-adv-x="448" 
d="M48 601v27h7q7 -1 26.5 -10.5t29.5 -10.5v21h94l5 -9h116q14 9 39 9q15 0 30 -1.5t30 -3.5q-2 -10 -1 -22.5t3 -24t4.5 -21t2.5 -13.5v-13q0 -18 -6 -18h-3q-78 1 -136.5 2.5t-96.5 2.5q-7 -1 -13 -1h-11q1 1 -1.5 -10.5t-2.5 -22.5q0 -10 2.5 -17t2.5 -12q2 -29 0 -59
l5 -6h224v-92q0 -1 2.5 -4t2.5 -10q0 -9 -4 -8.5t-9 4t-9.5 8.5l-4.5 5q-4 0 -13.5 -2t-18.5 -5t-15.5 -5t-5.5 -2q-13 0 -28.5 5t-28.5 5q-26 0 -50 -4.5t-42 -4.5v-99q-10 -10 -7 -21t12.5 -20.5t22.5 -15.5t23 -6q32 0 52 5q1 1 1 4q0 11 -15 9h139l5 -9h24q0 -16 6 -33
t6 -25q0 -17 -5 -29.5t-5 -20.5h-376q-1 15 -7 33t-6 30q0 16 2 23t2 18t-2 17.5t-2 13.5v5q10 14 5 30.5t-5 32.5v22q10 14 6 27.5t-6 21.5v9q0 18 2 22t2 19q0 11 -2 14t-2 8v22q0 4 2 16t2 27q0 11 -2 21t-2 22v27q6 16 7.5 23.5t1.5 22.5q0 14 -2.5 18.5t-2.5 11.5v27z
M106 533v-49q-2 6 -14 6q0 -17 9.5 -29.5t9.5 -21.5h9v85q8 2 6.5 6t-6 7t-9.5 3t-5 -7zM186 326q24 0 24 6v27q-24 0 -24 -33zM169 336v9h-9v-9h9zM328 121h-29v-5q0 -9 16 -9q13 0 13 14z" />
    <glyph glyph-name="F" unicode="F" horiz-adv-x="403" 
d="M49 650h-4l8 -7h225l9 -6h54q3 9 31 9q4 0 7 -2t7 -3q10 -4 11.5 -5.5t-0.5 -3.5l-6 -6t-5 -12q-2 -18 0 -36q-1 0 -2 -7.5t-2.5 -17t-2.5 -17t-2 -7.5h-198q-9 0 -9 -22q2 -7 3 -13t2 -10q2 -47 0 -94q17 4 14.5 -4t-2.5 -14h64q1 0 3 2.5t6 2.5q6 0 6.5 -5t8.5 -5
q12 0 27.5 8t15.5 15h51q0 -19 -3 -30t-3 -26q0 -19 3 -31.5t3 -20t-5.5 -10.5t-22.5 -3q-41 -1 -83 -2t-83 -3q-5 -5 -5 -20q0 -13 2.5 -15.5t2.5 -10.5q0 -21 -1.5 -44.5t-3.5 -48.5q-5 -17 -5 -21v-22q0 -4 2.5 -14.5t2.5 -23.5q0 -9 -9 -9h-117q0 17 2.5 33t2.5 32
q0 11 -2 18t-2 12v6v7q2 17 3 30t1 22q0 13 -2 27t-2 24q0 11 4.5 26.5t4.5 23.5q0 12 -4.5 38t-4.5 40q0 18 4.5 39t3.5 26q-6 12 -7 17.5t-1 15.5v12q4 14 3.5 27.5t0.5 21.5q1 9 3 16t2 11t-1 5q-1 29 -2.5 50t-1.5 35zM408 628q7 -3 5 -5t-5 -2t-5 2t5 5zM403 587
q7 -6 4 -16t-8 -15v4q0 12 4 27zM143 534v26h-13v-4q0 -22 13 -22zM399 542l4 -18q-1 4 -4 6t0 12zM103 502q-1 -4 -1 -9v-9q0 -14 2 -26t8 -14q7 -2 11 5v49q22 3 22 23q-13 0 -19 -2t-9 -5t-5.5 -6.5t-8.5 -5.5zM287 385h-5l5 5v-5z" />
    <glyph glyph-name="F" unicode="&#xf046;" horiz-adv-x="403" 
d="M49 650h-4l8 -7h225l9 -6h54q3 9 31 9q4 0 7 -2t7 -3q10 -4 11.5 -5.5t-0.5 -3.5l-6 -6t-5 -12q-2 -18 0 -36q-1 0 -2 -7.5t-2.5 -17t-2.5 -17t-2 -7.5h-198q-9 0 -9 -22q2 -7 3 -13t2 -10q2 -47 0 -94q17 4 14.5 -4t-2.5 -14h64q1 0 3 2.5t6 2.5q6 0 6.5 -5t8.5 -5
q12 0 27.5 8t15.5 15h51q0 -19 -3 -30t-3 -26q0 -19 3 -31.5t3 -20t-5.5 -10.5t-22.5 -3q-41 -1 -83 -2t-83 -3q-5 -5 -5 -20q0 -13 2.5 -15.5t2.5 -10.5q0 -21 -1.5 -44.5t-3.5 -48.5q-5 -17 -5 -21v-22q0 -4 2.5 -14.5t2.5 -23.5q0 -9 -9 -9h-117q0 17 2.5 33t2.5 32
q0 11 -2 18t-2 12v6v7q2 17 3 30t1 22q0 13 -2 27t-2 24q0 11 4.5 26.5t4.5 23.5q0 12 -4.5 38t-4.5 40q0 18 4.5 39t3.5 26q-6 12 -7 17.5t-1 15.5v12q4 14 3.5 27.5t0.5 21.5q1 9 3 16t2 11t-1 5q-1 29 -2.5 50t-1.5 35zM408 628q7 -3 5 -5t-5 -2t-5 2t5 5zM403 587
q7 -6 4 -16t-8 -15v4q0 12 4 27zM143 534v26h-13v-4q0 -22 13 -22zM399 542l4 -18q-1 4 -4 6t0 12zM103 502q-1 -4 -1 -9v-9q0 -14 2 -26t8 -14q7 -2 11 5v49q22 3 22 23q-13 0 -19 -2t-9 -5t-5.5 -6.5t-8.5 -5.5zM287 385h-5l5 5v-5z" />
    <glyph glyph-name="G" unicode="G" horiz-adv-x="538" 
d="M219 659q6 1 12 1h13q22 0 29.5 -4t17.5 -6q4 -1 18.5 -1.5t39.5 -2.5q24 -1 36.5 -7.5t20 -14.5t12 -17t12.5 -15q54 -46 54 -135q0 -9 -17.5 -12.5t-39.5 -5t-42 -1t-25 0.5q0 49 -24 72q-4 3 -20.5 11t-20.5 16h-58q-8 -8 -19 -13t-22 -9q0 -1 -3.5 -11t-8 -22
t-8.5 -23.5t-6 -15.5q-16 -14 -17.5 -29.5t-1.5 -47.5q0 -12 2.5 -18.5t2.5 -12.5v-31q0 -13 -2 -27t-2 -29q0 -9 5 -17.5l10 -17t8 -17t-1 -18.5q3 -2 5.5 -3t3.5 -2q13 -5 20.5 -12.5t14 -14.5t15.5 -12t24 -5q23 0 39 6t35 7q3 7 9 16.5l12 19t10.5 17t4.5 10.5
q0 14 -1.5 23.5t5.5 23.5h-85l-4 7q-4 6 -4 19.5t-1 20.5q-5 11 -3.5 17.5t3.5 14.5q6 20 6 31h208q0 -12 3 -22.5t3 -20.5q0 -14 -4.5 -26t-4.5 -19q0 -24 4.5 -48.5t4.5 -51.5v-18q-5 -11 -4 -24.5t0 -20.5q-5 -12 -5 -15.5v-14.5q0 -17 2.5 -20.5t2.5 -17.5v-13l-104 9v9
q0 14 14 31q-5 12 -15 3.5t-23 -23t-28 -29t-30 -14.5q-7 0 -11 2.5t-9 2.5q-35 0 -46 -9l-58 4q-1 0 -9.5 4.5t-18.5 10.5t-19 11t-11 6q-17 6 -31 21t-25 33t-19.5 36t-14.5 31q-2 4 -3 9t-2 9q2 29 2 50t-10 35v162l8 9q6 90 59 134q7 6 9 9q22 34 43 41t47 13
q22 6 31 18zM170 601v22h-9v-22h9zM286 308l3.5 -2l10.5 -6q26 -13 23 -3t-13.5 22t-12.5 14q-11 0 -11 -25zM403 314v9h-9v-9h9zM447 169q9 0 13 9.5t6 23t1.5 27.5t-0.5 22h-10q-1 0 -3 -12.5t-3.5 -27.5t-2.5 -28t-1 -14zM120 170q0 -15 23 -15v25q-23 0 -23 -10z
M102 167v-37q0 -3 9 -9t9 -9h24q0 34 -15 34v-17q0 1 -4 -1t-5 -3q-5 5 -6 12.5t-1.5 14t-2.5 11t-8 4.5z" />
    <glyph glyph-name="G" unicode="&#xf047;" horiz-adv-x="538" 
d="M219 659q6 1 12 1h13q22 0 29.5 -4t17.5 -6q4 -1 18.5 -1.5t39.5 -2.5q24 -1 36.5 -7.5t20 -14.5t12 -17t12.5 -15q54 -46 54 -135q0 -9 -17.5 -12.5t-39.5 -5t-42 -1t-25 0.5q0 49 -24 72q-4 3 -20.5 11t-20.5 16h-58q-8 -8 -19 -13t-22 -9q0 -1 -3.5 -11t-8 -22
t-8.5 -23.5t-6 -15.5q-16 -14 -17.5 -29.5t-1.5 -47.5q0 -12 2.5 -18.5t2.5 -12.5v-31q0 -13 -2 -27t-2 -29q0 -9 5 -17.5l10 -17t8 -17t-1 -18.5q3 -2 5.5 -3t3.5 -2q13 -5 20.5 -12.5t14 -14.5t15.5 -12t24 -5q23 0 39 6t35 7q3 7 9 16.5l12 19t10.5 17t4.5 10.5
q0 14 -1.5 23.5t5.5 23.5h-85l-4 7q-4 6 -4 19.5t-1 20.5q-5 11 -3.5 17.5t3.5 14.5q6 20 6 31h208q0 -12 3 -22.5t3 -20.5q0 -14 -4.5 -26t-4.5 -19q0 -24 4.5 -48.5t4.5 -51.5v-18q-5 -11 -4 -24.5t0 -20.5q-5 -12 -5 -15.5v-14.5q0 -17 2.5 -20.5t2.5 -17.5v-13l-104 9v9
q0 14 14 31q-5 12 -15 3.5t-23 -23t-28 -29t-30 -14.5q-7 0 -11 2.5t-9 2.5q-35 0 -46 -9l-58 4q-1 0 -9.5 4.5t-18.5 10.5t-19 11t-11 6q-17 6 -31 21t-25 33t-19.5 36t-14.5 31q-2 4 -3 9t-2 9q2 29 2 50t-10 35v162l8 9q6 90 59 134q7 6 9 9q22 34 43 41t47 13
q22 6 31 18zM170 601v22h-9v-22h9zM286 308l3.5 -2l10.5 -6q26 -13 23 -3t-13.5 22t-12.5 14q-11 0 -11 -25zM403 314v9h-9v-9h9zM447 169q9 0 13 9.5t6 23t1.5 27.5t-0.5 22h-10q-1 0 -3 -12.5t-3.5 -27.5t-2.5 -28t-1 -14zM120 170q0 -15 23 -15v25q-23 0 -23 -10z
M102 167v-37q0 -3 9 -9t9 -9h24q0 34 -15 34v-17q0 1 -4 -1t-5 -3q-5 5 -6 12.5t-1.5 14t-2.5 11t-8 4.5z" />
    <glyph glyph-name="H" unicode="H" horiz-adv-x="511" 
d="M331 646q15 2 33.5 3t40.5 1q13 0 19.5 1t6.5 -14h22l-3 -15t-3 -17q0 -7 5 -18t5 -24q0 -7 -2.5 -20t-2.5 -29v-7q2 -34 2.5 -58.5t1.5 -40.5q1 -3 1 -27q0 -4 -1.5 -15.5t-3.5 -25t-3.5 -27t-1.5 -20.5q0 -9 2 -19t3 -14q2 -17 3 -27t1 -14q-2 -12 -3 -16.5t-1 -14.5
q0 -16 2.5 -20t2.5 -20q0 -25 -3 -33t-3 -26q0 -7 2.5 -14t2.5 -15q0 -21 -12 -21q-16 0 -15 10h-27q3 -10 -13 -10q-9 0 -7.5 1.5t1.5 10.5q-13 0 -21 -11h-37v18t1 18q3 10 4 14.5t1.5 9t0 12t-0.5 22.5q0 18 -2.5 30t-2.5 33q0 4 2.5 14t2.5 24q0 6 -2.5 10.5t-2.5 9.5
q0 13 2.5 21.5l2.5 8.5q0 15 -5 15h-152q-2 0 -3 -6t-1.5 -14t-0.5 -15v-10q-2 -8 -3.5 -13t-1.5 -11q0 -5 5 -25q6 -12 3 -21t-3 -20v-8q7 -10 3.5 -26.5t-3.5 -27.5q0 -6 2.5 -17.5t2.5 -25.5q0 -8 -14.5 -12t-35.5 -4q-15 0 -17.5 2.5t-11.5 2.5q-12 0 -16 -9h-35v85
q9 15 9 20q0 14 -4.5 24t-4.5 17q0 10 2 16t2 13q0 5 -2 10t-2 8v4v5q9 24 4.5 34t-4.5 27q0 13 2 24t2 18v43q0 15 -2 30.5t-2 29.5v5q6 11 7 18.5t-1 15t-4 17.5t-2 25v9v9q4 26 5 44.5t-1 40.5q34 9 45 9q7 0 9 -7t8 -7q10 0 17 7.5t22 7.5q23 0 24 -6.5t1 -21.5
q0 -23 -4.5 -54.5t-4.5 -44.5q0 -11 4.5 -17t4.5 -13q0 -17 -2.5 -24t-2.5 -18q0 -24 19.5 -24.5t38.5 -1.5q4 -1 17 -1h35h26t26 1q-5 8 -5 24q0 14 2.5 24t2.5 19q0 17 -2.5 24t-2.5 19q0 2 2.5 9.5t2.5 17.5q0 9 -2.5 15.5t-2.5 11.5q0 13 2.5 21t2.5 12q0 14 -2.5 17.5
t-2.5 9.5q0 5 5 5zM425 610v9h-9v-9h9zM393 507h-26q-1 -4 -1 -8v-8q0 -11 1.5 -29.5t3.5 -36.5t4.5 -31t4.5 -13h9v40q14 2 14 37q0 17 -2.5 33t-7.5 16zM380 493q10 -6 10 -30q0 -27 -1.5 -28t-3.5 9.5t-3.5 26t-1.5 22.5zM102 278v-47q23 0 23 29q0 6 1.5 7.5l2.5 2.5
t2.5 4.5t1.5 13.5q-31 0 -31 -10zM389 255v18h-9v-18h9z" />
    <glyph glyph-name="H" unicode="&#xf048;" horiz-adv-x="511" 
d="M331 646q15 2 33.5 3t40.5 1q13 0 19.5 1t6.5 -14h22l-3 -15t-3 -17q0 -7 5 -18t5 -24q0 -7 -2.5 -20t-2.5 -29v-7q2 -34 2.5 -58.5t1.5 -40.5q1 -3 1 -27q0 -4 -1.5 -15.5t-3.5 -25t-3.5 -27t-1.5 -20.5q0 -9 2 -19t3 -14q2 -17 3 -27t1 -14q-2 -12 -3 -16.5t-1 -14.5
q0 -16 2.5 -20t2.5 -20q0 -25 -3 -33t-3 -26q0 -7 2.5 -14t2.5 -15q0 -21 -12 -21q-16 0 -15 10h-27q3 -10 -13 -10q-9 0 -7.5 1.5t1.5 10.5q-13 0 -21 -11h-37v18t1 18q3 10 4 14.5t1.5 9t0 12t-0.5 22.5q0 18 -2.5 30t-2.5 33q0 4 2.5 14t2.5 24q0 6 -2.5 10.5t-2.5 9.5
q0 13 2.5 21.5l2.5 8.5q0 15 -5 15h-152q-2 0 -3 -6t-1.5 -14t-0.5 -15v-10q-2 -8 -3.5 -13t-1.5 -11q0 -5 5 -25q6 -12 3 -21t-3 -20v-8q7 -10 3.5 -26.5t-3.5 -27.5q0 -6 2.5 -17.5t2.5 -25.5q0 -8 -14.5 -12t-35.5 -4q-15 0 -17.5 2.5t-11.5 2.5q-12 0 -16 -9h-35v85
q9 15 9 20q0 14 -4.5 24t-4.5 17q0 10 2 16t2 13q0 5 -2 10t-2 8v4v5q9 24 4.5 34t-4.5 27q0 13 2 24t2 18v43q0 15 -2 30.5t-2 29.5v5q6 11 7 18.5t-1 15t-4 17.5t-2 25v9v9q4 26 5 44.5t-1 40.5q34 9 45 9q7 0 9 -7t8 -7q10 0 17 7.5t22 7.5q23 0 24 -6.5t1 -21.5
q0 -23 -4.5 -54.5t-4.5 -44.5q0 -11 4.5 -17t4.5 -13q0 -17 -2.5 -24t-2.5 -18q0 -24 19.5 -24.5t38.5 -1.5q4 -1 17 -1h35h26t26 1q-5 8 -5 24q0 14 2.5 24t2.5 19q0 17 -2.5 24t-2.5 19q0 2 2.5 9.5t2.5 17.5q0 9 -2.5 15.5t-2.5 11.5q0 13 2.5 21t2.5 12q0 14 -2.5 17.5
t-2.5 9.5q0 5 5 5zM425 610v9h-9v-9h9zM393 507h-26q-1 -4 -1 -8v-8q0 -11 1.5 -29.5t3.5 -36.5t4.5 -31t4.5 -13h9v40q14 2 14 37q0 17 -2.5 33t-7.5 16zM380 493q10 -6 10 -30q0 -27 -1.5 -28t-3.5 9.5t-3.5 26t-1.5 22.5zM102 278v-47q23 0 23 29q0 6 1.5 7.5l2.5 2.5
t2.5 4.5t1.5 13.5q-31 0 -31 -10zM389 255v18h-9v-18h9z" />
    <glyph glyph-name="I" unicode="I" horiz-adv-x="228" 
d="M53 619l-4 4q1 1 4 1q11 0 20 -7t16 -7v13h36q-2 -14 9 -14q3 0 14 7.5t18 7.5q2 0 2 -11t-0.5 -24.5t-1.5 -25.5t-1 -14t5 -12.5t5 -27.5q0 -6 -4.5 -10.5t-4.5 -7.5q0 -12 2 -21.5t2 -14.5q0 -18 -2.5 -28.5t-2.5 -21.5q0 -3 5 -16.5t5 -18.5q0 -10 -2.5 -15t-2.5 -12
q0 -15 2.5 -20t2.5 -16q0 -13 -2.5 -18t-2.5 -14q0 -12 2.5 -16t2.5 -14q0 -17 -2.5 -31.5t-2.5 -23.5q0 -8 2.5 -23t2.5 -28v-36q-2 -18 -3 -31.5t-2 -22.5q-2 -27 -7 -30.5t-33 -5.5q-18 -1 -36.5 -1.5t-37.5 -0.5q0 17 -5.5 32.5t-5.5 28.5q0 14 4.5 36.5t4.5 38.5
q0 7 -4.5 27.5t-4.5 26.5q0 13 2 17.5t2 9.5v31q0 11 -2 26t-2 33q0 15 2 25t2 11q0 13 -2 21t-2 15v20q0 3 1.5 15t3 25.5t3 26.5t1.5 18q0 7 -1.5 20t-3.5 32q14 0 14 25q0 5 -10 11q-9 7 -8 18t8 18zM130 408v9h-9v-9h9zM102 271q27 0 28 7q1 16 2 33l2 34
q4 22 -0.5 18.5t-11.5 -19t-13.5 -37t-6.5 -36.5zM116 296q7 -3 5 -5t-5 -2t-5 2t5 5zM119 107h11q1 0 2 8t1.5 19l1 22t0.5 18h-10q-2 0 -4 -26q-1 -10 -1.5 -20.5t-0.5 -20.5z" />
    <glyph glyph-name="I" unicode="&#xf049;" horiz-adv-x="228" 
d="M53 619l-4 4q1 1 4 1q11 0 20 -7t16 -7v13h36q-2 -14 9 -14q3 0 14 7.5t18 7.5q2 0 2 -11t-0.5 -24.5t-1.5 -25.5t-1 -14t5 -12.5t5 -27.5q0 -6 -4.5 -10.5t-4.5 -7.5q0 -12 2 -21.5t2 -14.5q0 -18 -2.5 -28.5t-2.5 -21.5q0 -3 5 -16.5t5 -18.5q0 -10 -2.5 -15t-2.5 -12
q0 -15 2.5 -20t2.5 -16q0 -13 -2.5 -18t-2.5 -14q0 -12 2.5 -16t2.5 -14q0 -17 -2.5 -31.5t-2.5 -23.5q0 -8 2.5 -23t2.5 -28v-36q-2 -18 -3 -31.5t-2 -22.5q-2 -27 -7 -30.5t-33 -5.5q-18 -1 -36.5 -1.5t-37.5 -0.5q0 17 -5.5 32.5t-5.5 28.5q0 14 4.5 36.5t4.5 38.5
q0 7 -4.5 27.5t-4.5 26.5q0 13 2 17.5t2 9.5v31q0 11 -2 26t-2 33q0 15 2 25t2 11q0 13 -2 21t-2 15v20q0 3 1.5 15t3 25.5t3 26.5t1.5 18q0 7 -1.5 20t-3.5 32q14 0 14 25q0 5 -10 11q-9 7 -8 18t8 18zM130 408v9h-9v-9h9zM102 271q27 0 28 7q1 16 2 33l2 34
q4 22 -0.5 18.5t-11.5 -19t-13.5 -37t-6.5 -36.5zM116 296q7 -3 5 -5t-5 -2t-5 2t5 5zM119 107h11q1 0 2 8t1.5 19l1 22t0.5 18h-10q-2 0 -4 -26q-1 -10 -1.5 -20.5t-0.5 -20.5z" />
    <glyph glyph-name="J" unicode="J" horiz-adv-x="399" 
d="M228 637q31 -10 58 -10q13 0 14 1q17 10 27 7t15 -12.5t6 -23t1 -25.5v-27q-4 -12 -4 -23q0 -6 1.5 -20t3 -30t3 -31t1.5 -22v-18t-1 -18q-4 -4 -4.5 -20.5t1 -37.5t3 -42.5t1.5 -35.5q0 -23 -6.5 -60.5t-16.5 -72.5q-2 -17 -4.5 -27.5t-6.5 -18t-11 -14t-18 -16.5
q-29 -26 -51 -25.5t-44 -1.5q-4 0 -18.5 -4.5t-19.5 -4.5h-2q-13 6 -37.5 13.5t-49 21t-43 36t-18.5 58.5v10q6 16 1 23.5t-5 14.5q0 11 3 24t3 30q14 0 34 4.5t22 11.5h63v-72q-9 -1 -10.5 -6t1 -9.5t7 -6.5t7.5 4q9 -27 14.5 -32t21.5 -5q36 0 42.5 13t6.5 37q0 11 1 23.5
t3 26.5q2 12 9 22q-7 24 -9 50v67q0 41 7 78.5t7 78.5q3 2 3 18h-13v22.5t1 22.5q4 27 4 43q0 4 -4 11zM309 442v15h-14v-4q0 -11 14 -11zM309 318v58h-12v-35q-15 5 -15 -23h27zM291 282q-1 -1 -1 -4q0 -14 4.5 -15t7.5 3.5t2.5 10.5t-9.5 6q-3 0 -4 -1z" />
    <glyph glyph-name="J" unicode="&#xf04a;" horiz-adv-x="399" 
d="M228 637q31 -10 58 -10q13 0 14 1q17 10 27 7t15 -12.5t6 -23t1 -25.5v-27q-4 -12 -4 -23q0 -6 1.5 -20t3 -30t3 -31t1.5 -22v-18t-1 -18q-4 -4 -4.5 -20.5t1 -37.5t3 -42.5t1.5 -35.5q0 -23 -6.5 -60.5t-16.5 -72.5q-2 -17 -4.5 -27.5t-6.5 -18t-11 -14t-18 -16.5
q-29 -26 -51 -25.5t-44 -1.5q-4 0 -18.5 -4.5t-19.5 -4.5h-2q-13 6 -37.5 13.5t-49 21t-43 36t-18.5 58.5v10q6 16 1 23.5t-5 14.5q0 11 3 24t3 30q14 0 34 4.5t22 11.5h63v-72q-9 -1 -10.5 -6t1 -9.5t7 -6.5t7.5 4q9 -27 14.5 -32t21.5 -5q36 0 42.5 13t6.5 37q0 11 1 23.5
t3 26.5q2 12 9 22q-7 24 -9 50v67q0 41 7 78.5t7 78.5q3 2 3 18h-13v22.5t1 22.5q4 27 4 43q0 4 -4 11zM309 442v15h-14v-4q0 -11 14 -11zM309 318v58h-12v-35q-15 5 -15 -23h27zM291 282q-1 -1 -1 -4q0 -14 4.5 -15t7.5 3.5t2.5 10.5t-9.5 6q-3 0 -4 -1z" />
    <glyph glyph-name="K" unicode="K" horiz-adv-x="484" 
d="M122 547q3 0 12.5 11.5t16.5 11.5q1 -1 6.5 -8.5t12 -15.5t6.5 -7v-15q-6 -20 -7 -43t-0.5 -44t1.5 -38.5t1 -26.5q-4 -17 -4 -31t13 -14q3 0 9.5 11.5t15 25.5t17 26t16.5 13l36 72q2 5 8.5 9t9.5 9q10 29 27 41t27 31q14 1 29 2t29 2q20 1 40.5 1.5t40.5 0.5v-6
q0 -6 -11.5 -20.5t-15.5 -20.5q-15 -25 -45 -58q-5 -19 -14.5 -32t-20 -23.5l-19.5 -19.5t-13 -19q0 -12 -7 -18.5t-15.5 -12t-15.5 -12.5t-7 -20q0 -9 10.5 -25.5t23 -34.5t24 -32.5t14.5 -19.5q14 -25 27 -58q6 -15 16 -25.5t11 -15.5q20 -54 49 -98q15 -15 18 -26.5
t14 -22.5q-8 7 -31 9.5t-37 4.5v13h-15q-1 0 0.5 4t1.5 5q9 16 4.5 14.5t-14 -10t-20.5 -18t-15 -9.5q-22 0 -35.5 20.5t-13.5 45.5q0 22 -5 50h-11v-31q-11 24 -30.5 47t-34.5 38q-2 2 -7 14.5t-10.5 26.5t-11 25t-9.5 11q-8 0 -17.5 -20t-14.5 -37t-6 -20q-3 -14 -9 -27
l2 -147h-125q0 13 5.5 23.5t5.5 21.5q0 12 -4.5 28t-4.5 29v5v4q5 11 6 18t-0.5 15t-3.5 19t-2 29v27q3 15 3.5 19t0.5 19t-2 21t-2 13v9q0 9 4.5 26.5t4.5 30.5q0 17 -4.5 23t-4.5 16q0 14 2 19t2 15t-2 18t-2 13v14q0 1 2 11t2 25q0 5 -2 10t-2 8v7q0 1 4.5 9t4.5 22
q0 13 -2.5 22t-2.5 16h72q-14 0 -14 -9t14 -9zM135 342v21h-13v-5q0 -16 13 -16zM216 282v9h-9v-9h9zM124 260h-13v-23q0 12 -3 10.5t-3 -19.5q0 -7 -7.5 -6.5t-7.5 -8.5q3 -1 4.5 -9t4.5 -17t8.5 -16.5t16.5 -7.5q0 4 -5.5 12.5t-5.5 19.5t5.5 30t5.5 35zM117 148v9h-9v-9
h9zM319 94v9h-13v-9h13z" />
    <glyph glyph-name="K" unicode="&#xf04b;" horiz-adv-x="484" 
d="M122 547q3 0 12.5 11.5t16.5 11.5q1 -1 6.5 -8.5t12 -15.5t6.5 -7v-15q-6 -20 -7 -43t-0.5 -44t1.5 -38.5t1 -26.5q-4 -17 -4 -31t13 -14q3 0 9.5 11.5t15 25.5t17 26t16.5 13l36 72q2 5 8.5 9t9.5 9q10 29 27 41t27 31q14 1 29 2t29 2q20 1 40.5 1.5t40.5 0.5v-6
q0 -6 -11.5 -20.5t-15.5 -20.5q-15 -25 -45 -58q-5 -19 -14.5 -32t-20 -23.5l-19.5 -19.5t-13 -19q0 -12 -7 -18.5t-15.5 -12t-15.5 -12.5t-7 -20q0 -9 10.5 -25.5t23 -34.5t24 -32.5t14.5 -19.5q14 -25 27 -58q6 -15 16 -25.5t11 -15.5q20 -54 49 -98q15 -15 18 -26.5
t14 -22.5q-8 7 -31 9.5t-37 4.5v13h-15q-1 0 0.5 4t1.5 5q9 16 4.5 14.5t-14 -10t-20.5 -18t-15 -9.5q-22 0 -35.5 20.5t-13.5 45.5q0 22 -5 50h-11v-31q-11 24 -30.5 47t-34.5 38q-2 2 -7 14.5t-10.5 26.5t-11 25t-9.5 11q-8 0 -17.5 -20t-14.5 -37t-6 -20q-3 -14 -9 -27
l2 -147h-125q0 13 5.5 23.5t5.5 21.5q0 12 -4.5 28t-4.5 29v5v4q5 11 6 18t-0.5 15t-3.5 19t-2 29v27q3 15 3.5 19t0.5 19t-2 21t-2 13v9q0 9 4.5 26.5t4.5 30.5q0 17 -4.5 23t-4.5 16q0 14 2 19t2 15t-2 18t-2 13v14q0 1 2 11t2 25q0 5 -2 10t-2 8v7q0 1 4.5 9t4.5 22
q0 13 -2.5 22t-2.5 16h72q-14 0 -14 -9t14 -9zM135 342v21h-13v-5q0 -16 13 -16zM216 282v9h-9v-9h9zM124 260h-13v-23q0 12 -3 10.5t-3 -19.5q0 -7 -7.5 -6.5t-7.5 -8.5q3 -1 4.5 -9t4.5 -17t8.5 -16.5t16.5 -7.5q0 4 -5.5 12.5t-5.5 19.5t5.5 30t5.5 35zM117 148v9h-9v-9
h9zM319 94v9h-13v-9h13z" />
    <glyph glyph-name="L" unicode="L" horiz-adv-x="394" 
d="M48 650q22 -1 43 -1.5t42 -2.5q9 -1 18 -2.5t18 -2.5q5 -20 5 -56q0 -17 -7 -36.5t-7 -41.5q0 -2 4.5 -8.5t4.5 -16.5q0 -42 -13 -52q-2 -39 -4.5 -78t-4.5 -79q0 -10 5.5 -11.5t7.5 2.5l5 -9l9 -96h40v-15q15 0 22 4q20 2 40.5 2.5t40.5 1.5q18 2 36 0l5 5h31
q4 0 4.5 -11.5t0.5 -28.5q0 -21 -1.5 -39t-3.5 -34q-18 -2 -36 -3t-36 -1q-8 -1 -41.5 -1h-92.5h-67.5t-67.5 1q-4 13 -4 32q0 2 4.5 10.5t4.5 22.5q0 4 -1.5 15t-3 23.5t-3 23.5t-1.5 15q0 8 2 16t2 15q0 8 -4 20v224q10 19 8 45q-3 13 -5.5 22t-2.5 16q0 11 2 24.5t2 25.5
v38q-4 9 -4 18q0 4 4 4zM169 345q5 -5 5 -22q0 -3 -1.5 -13.5t-3.5 -18.5t-3.5 -7.5t-1.5 21.5q0 32 5 40zM331 121v9h-14v-9h14zM261 112h-7v-5q0 -13 5.5 -14t9.5 3t3.5 10t-11.5 6zM123 83q4 0 15.5 3.5t10.5 3.5q13 -1 12.5 -9t13.5 -9q0 35 -10 35q-42 0 -42 -24z
M156 71v9h-9v-9h9z" />
    <glyph glyph-name="L" unicode="&#xf04c;" horiz-adv-x="394" 
d="M48 650q22 -1 43 -1.5t42 -2.5q9 -1 18 -2.5t18 -2.5q5 -20 5 -56q0 -17 -7 -36.5t-7 -41.5q0 -2 4.5 -8.5t4.5 -16.5q0 -42 -13 -52q-2 -39 -4.5 -78t-4.5 -79q0 -10 5.5 -11.5t7.5 2.5l5 -9l9 -96h40v-15q15 0 22 4q20 2 40.5 2.5t40.5 1.5q18 2 36 0l5 5h31
q4 0 4.5 -11.5t0.5 -28.5q0 -21 -1.5 -39t-3.5 -34q-18 -2 -36 -3t-36 -1q-8 -1 -41.5 -1h-92.5h-67.5t-67.5 1q-4 13 -4 32q0 2 4.5 10.5t4.5 22.5q0 4 -1.5 15t-3 23.5t-3 23.5t-1.5 15q0 8 2 16t2 15q0 8 -4 20v224q10 19 8 45q-3 13 -5.5 22t-2.5 16q0 11 2 24.5t2 25.5
v38q-4 9 -4 18q0 4 4 4zM169 345q5 -5 5 -22q0 -3 -1.5 -13.5t-3.5 -18.5t-3.5 -7.5t-1.5 21.5q0 32 5 40zM331 121v9h-14v-9h14zM261 112h-7v-5q0 -13 5.5 -14t9.5 3t3.5 10t-11.5 6zM123 83q4 0 15.5 3.5t10.5 3.5q13 -1 12.5 -9t13.5 -9q0 35 -10 35q-42 0 -42 -24z
M156 71v9h-9v-9h9z" />
    <glyph glyph-name="M" unicode="M" horiz-adv-x="655" 
d="M156 565q17 2 29 3.5t19 1.5q9 0 17 -24t15.5 -54.5t13.5 -60t9 -41.5q19 -76 36 -130q19 -51 18 -90l4 -9q0 -1 3 14.5t7.5 38t11 46.5t14.5 40q9 15 18 38t16.5 48t13.5 47.5l10 37.5q6 15 7.5 36t1.5 35q2 16 5 19t8.5 0t15 -8.5t23.5 -5.5q9 0 13.5 7t11.5 7
q11 0 22.5 -7t27.5 -7q13 0 17 13h36q-5 -12 -5 -17q0 -8 2.5 -14.5t2.5 -10.5v-2q-12 -20 -6 -26t6 -17q0 -13 -2 -33.5t-3 -27.5q-2 -14 -3 -25t-1 -18v-6q11 -14 7.5 -24.5t-3.5 -20.5q0 -14 2.5 -22l2.5 -8q0 -10 -4 -16.5t-5 -11.5q6 -28 4.5 -60t-0.5 -48
q2 -10 3.5 -17t1.5 -12q0 -7 -1.5 -17.5t-3.5 -25.5q-2 -5 -1.5 -16.5t2 -24.5t3 -25t1.5 -18q0 -16 -3 -26.5t-3 -13.5h-115q-5 0 -7.5 10.5t-2.5 23.5q0 20 3 26.5t3 19.5q0 16 -3 19.5t-3 20.5q0 20 3 25t3 20q0 12 -2.5 17t-2.5 10q0 9 4 13v81q0 3 -2 6t-2 7
q2 10 3 13.5t1 11.5q0 29 -2.5 33t-6.5 -5.5t-8.5 -28t-9.5 -33.5q-2 -12 -9.5 -20.5t-8.5 -15.5q0 -46 -12 -80t-41 -54q-6 -4 -9 -14t-5 -21t-2.5 -21t-0.5 -15q6 0 11 9t9 19.5t7 19.5l3 9h6q0 9 -3 -6.5t-7.5 -37.5t-9 -42t-8.5 -20h-86q-6 0 -9 8.5t-5 20t-2.5 22.5
t-1.5 15q0 14 -4.5 29t-10 30t-10.5 29t-6 24q-2 20 -9 54q-1 10 -9.5 17.5t-8.5 30.5v6l-27 58q3 28 -4 41q-6 -4 -7.5 -12t-1 -17.5t2 -17.5t1.5 -12q0 -14 -2 -25t-2 -18q0 -19 4.5 -52t4.5 -64v-7q-6 -80 -6 -160h-116q-3 0 -4 11t-0.5 21t0.5 12q-2 20 -3 34t-1 24v17
q0 21 4 28v36v35q-4 12 -4 23v11q0 19 4 34q6 12 1 26t-5 25q0 2 2 10.5t2 18.5q0 14 -2 25.5t-2 19.5q0 11 2 22t2 21q0 12 -2 22t-2 16q0 10 4.5 28.5t4.5 41.5q0 11 -4.5 18t-4.5 8q0 17 4.5 18.5t11 -3t14.5 -11t15 -6.5t9.5 9.5t19.5 9.5q9 0 17 -5t12 -5q11 0 9 14z
M524 408h-5v-5q0 -18 4.5 -19.5t7.5 4t2.5 13t-9.5 7.5zM129 381v22h-9v-22h9zM526 323v31h-11q-1 -16 -5.5 -28t-4.5 -28q13 0 19 11v-27q-14 -2 -14 -25q0 -21 19 -21q17 0 17 28q0 20 -3 39t-3 36q-13 0 -14 -16zM429 305v9h-9v-9h9zM528 273q3 -10 -0.5 -14.5t-3.5 -0.5
q0 7 4 15zM120 188v58h-9q-1 -14 -2.5 -27t-2.5 -27q0 -17 7 -15t7 11zM105 26h24q5 0 5 26q0 9 -1 10l-9 5v26q-6 0 -10 -7t-6 -17.5t-2.5 -22t-0.5 -20.5z" />
    <glyph glyph-name="M" unicode="&#xf04d;" horiz-adv-x="655" 
d="M156 565q17 2 29 3.5t19 1.5q9 0 17 -24t15.5 -54.5t13.5 -60t9 -41.5q19 -76 36 -130q19 -51 18 -90l4 -9q0 -1 3 14.5t7.5 38t11 46.5t14.5 40q9 15 18 38t16.5 48t13.5 47.5l10 37.5q6 15 7.5 36t1.5 35q2 16 5 19t8.5 0t15 -8.5t23.5 -5.5q9 0 13.5 7t11.5 7
q11 0 22.5 -7t27.5 -7q13 0 17 13h36q-5 -12 -5 -17q0 -8 2.5 -14.5t2.5 -10.5v-2q-12 -20 -6 -26t6 -17q0 -13 -2 -33.5t-3 -27.5q-2 -14 -3 -25t-1 -18v-6q11 -14 7.5 -24.5t-3.5 -20.5q0 -14 2.5 -22l2.5 -8q0 -10 -4 -16.5t-5 -11.5q6 -28 4.5 -60t-0.5 -48
q2 -10 3.5 -17t1.5 -12q0 -7 -1.5 -17.5t-3.5 -25.5q-2 -5 -1.5 -16.5t2 -24.5t3 -25t1.5 -18q0 -16 -3 -26.5t-3 -13.5h-115q-5 0 -7.5 10.5t-2.5 23.5q0 20 3 26.5t3 19.5q0 16 -3 19.5t-3 20.5q0 20 3 25t3 20q0 12 -2.5 17t-2.5 10q0 9 4 13v81q0 3 -2 6t-2 7
q2 10 3 13.5t1 11.5q0 29 -2.5 33t-6.5 -5.5t-8.5 -28t-9.5 -33.5q-2 -12 -9.5 -20.5t-8.5 -15.5q0 -46 -12 -80t-41 -54q-6 -4 -9 -14t-5 -21t-2.5 -21t-0.5 -15q6 0 11 9t9 19.5t7 19.5l3 9h6q0 9 -3 -6.5t-7.5 -37.5t-9 -42t-8.5 -20h-86q-6 0 -9 8.5t-5 20t-2.5 22.5
t-1.5 15q0 14 -4.5 29t-10 30t-10.5 29t-6 24q-2 20 -9 54q-1 10 -9.5 17.5t-8.5 30.5v6l-27 58q3 28 -4 41q-6 -4 -7.5 -12t-1 -17.5t2 -17.5t1.5 -12q0 -14 -2 -25t-2 -18q0 -19 4.5 -52t4.5 -64v-7q-6 -80 -6 -160h-116q-3 0 -4 11t-0.5 21t0.5 12q-2 20 -3 34t-1 24v17
q0 21 4 28v36v35q-4 12 -4 23v11q0 19 4 34q6 12 1 26t-5 25q0 2 2 10.5t2 18.5q0 14 -2 25.5t-2 19.5q0 11 2 22t2 21q0 12 -2 22t-2 16q0 10 4.5 28.5t4.5 41.5q0 11 -4.5 18t-4.5 8q0 17 4.5 18.5t11 -3t14.5 -11t15 -6.5t9.5 9.5t19.5 9.5q9 0 17 -5t12 -5q11 0 9 14z
M524 408h-5v-5q0 -18 4.5 -19.5t7.5 4t2.5 13t-9.5 7.5zM129 381v22h-9v-22h9zM526 323v31h-11q-1 -16 -5.5 -28t-4.5 -28q13 0 19 11v-27q-14 -2 -14 -25q0 -21 19 -21q17 0 17 28q0 20 -3 39t-3 36q-13 0 -14 -16zM429 305v9h-9v-9h9zM528 273q3 -10 -0.5 -14.5t-3.5 -0.5
q0 7 4 15zM120 188v58h-9q-1 -14 -2.5 -27t-2.5 -27q0 -17 7 -15t7 11zM105 26h24q5 0 5 26q0 9 -1 10l-9 5v26q-6 0 -10 -7t-6 -17.5t-2.5 -22t-0.5 -20.5z" />
    <glyph glyph-name="N" unicode="N" horiz-adv-x="529" 
d="M49 655q1 -1 3.5 -2t5.5 -3q8 -5 15 -5q16 0 21 5h76q4 -18 15.5 -30.5t11.5 -27.5q0 -5 -2.5 -7t-2.5 -7q0 -27 18 -27q10 0 9 9q11 -6 11 -22h-18q0 -6 9 -18.5t20 -26t20.5 -24.5t11.5 -12q1 -5 8.5 -30.5t18 -54.5t22.5 -52t23 -23v70q0 5 2.5 11.5t2.5 15.5
q0 15 -2.5 20t-2.5 14q0 11 1.5 17t3.5 11t3.5 12t1.5 21t-5 26.5t-5 22.5q0 1 1 6.5t3 11.5t5.5 10t8.5 3v27l-9 5q2 -1 3.5 5.5t1.5 7.5q0 2 -7 16t-7 16q0 4 5 4h127q0 -20 -3.5 -29t-3.5 -31q0 -23 1 -25q3 -9 4 -14t1.5 -9.5t0 -10.5t-0.5 -18q0 -27 -1 -29
q-6 -16 -4.5 -37t0.5 -30q-5 -12 -5 -16v-16q0 -4 4.5 -13.5t4.5 -24.5q0 -7 -2.5 -16.5t-2.5 -19.5q0 -7 3 -18t3 -24q0 -8 -5 -16.5t-5 -12.5q0 -10 2.5 -16t2.5 -7q0 -13 -2.5 -18.5t-2.5 -17.5q0 -14 2.5 -16.5t2.5 -16.5q0 -4 -2.5 -13t-2.5 -21q0 -14 3.5 -30t3.5 -36
h-35.5t-34.5 1q-14 1 -29 2t-29 2q0 6 -3.5 15.5t-8.5 20t-9 19.5t-6 13q-5 5 -13.5 21t-18 36t-18 41t-13.5 36q-5 17 -14 30t-17 29q3 -3 -4.5 11.5t-16.5 33t-16.5 34t-5.5 15.5q-8 0 -10.5 -5.5t-2.5 -13t1 -15.5t1 -13q0 -12 -2.5 -20t-2.5 -16q0 -11 2.5 -15t2.5 -12
q0 -1 -2 -7.5t-2 -19.5q0 -8 2 -13.5t2 -10.5v-5q-1 -14 -2 -29l-2 -30q9 -23 9 -31v-107q-11 0 -14 -1q-30 -2 -52.5 -2.5t-37.5 -1.5q-7 -1 -13.5 -1h-13.5v59t1 59q1 24 2.5 42t1.5 29v74v74q-4 4 -4 16q0 15 2 23.5t2 17.5q0 7 -2 13.5t-2 10.5v7q0 20 4.5 32t4.5 23
q0 9 -1 10q-1 18 -2 31.5t-2 22.5q-1 36 0 72zM363 533v9h-9v-9h9zM411 393q13 0 14.5 5t-1.5 8t-8 1.5t-5 -14.5zM116 260v18h-9v-18h9zM389 249q13 0 14.5 5t-1.5 8.5t-8 1.5t-5 -15zM87 179h14v49l6 -31h9q1 0 3 8.5t2 21.5q0 24 -21 24q-9 0 -11 -14q-1 -14 -1 -29
t-1 -29zM372 166q0 -10 14 -10q6 0 8.5 6.5t4 15t1.5 16v10.5q-11 0 -15.5 -14t-12.5 -24z" />
    <glyph glyph-name="N" unicode="&#xf04e;" horiz-adv-x="529" 
d="M49 655q1 -1 3.5 -2t5.5 -3q8 -5 15 -5q16 0 21 5h76q4 -18 15.5 -30.5t11.5 -27.5q0 -5 -2.5 -7t-2.5 -7q0 -27 18 -27q10 0 9 9q11 -6 11 -22h-18q0 -6 9 -18.5t20 -26t20.5 -24.5t11.5 -12q1 -5 8.5 -30.5t18 -54.5t22.5 -52t23 -23v70q0 5 2.5 11.5t2.5 15.5
q0 15 -2.5 20t-2.5 14q0 11 1.5 17t3.5 11t3.5 12t1.5 21t-5 26.5t-5 22.5q0 1 1 6.5t3 11.5t5.5 10t8.5 3v27l-9 5q2 -1 3.5 5.5t1.5 7.5q0 2 -7 16t-7 16q0 4 5 4h127q0 -20 -3.5 -29t-3.5 -31q0 -23 1 -25q3 -9 4 -14t1.5 -9.5t0 -10.5t-0.5 -18q0 -27 -1 -29
q-6 -16 -4.5 -37t0.5 -30q-5 -12 -5 -16v-16q0 -4 4.5 -13.5t4.5 -24.5q0 -7 -2.5 -16.5t-2.5 -19.5q0 -7 3 -18t3 -24q0 -8 -5 -16.5t-5 -12.5q0 -10 2.5 -16t2.5 -7q0 -13 -2.5 -18.5t-2.5 -17.5q0 -14 2.5 -16.5t2.5 -16.5q0 -4 -2.5 -13t-2.5 -21q0 -14 3.5 -30t3.5 -36
h-35.5t-34.5 1q-14 1 -29 2t-29 2q0 6 -3.5 15.5t-8.5 20t-9 19.5t-6 13q-5 5 -13.5 21t-18 36t-18 41t-13.5 36q-5 17 -14 30t-17 29q3 -3 -4.5 11.5t-16.5 33t-16.5 34t-5.5 15.5q-8 0 -10.5 -5.5t-2.5 -13t1 -15.5t1 -13q0 -12 -2.5 -20t-2.5 -16q0 -11 2.5 -15t2.5 -12
q0 -1 -2 -7.5t-2 -19.5q0 -8 2 -13.5t2 -10.5v-5q-1 -14 -2 -29l-2 -30q9 -23 9 -31v-107q-11 0 -14 -1q-30 -2 -52.5 -2.5t-37.5 -1.5q-7 -1 -13.5 -1h-13.5v59t1 59q1 24 2.5 42t1.5 29v74v74q-4 4 -4 16q0 15 2 23.5t2 17.5q0 7 -2 13.5t-2 10.5v7q0 20 4.5 32t4.5 23
q0 9 -1 10q-1 18 -2 31.5t-2 22.5q-1 36 0 72zM363 533v9h-9v-9h9zM411 393q13 0 14.5 5t-1.5 8t-8 1.5t-5 -14.5zM116 260v18h-9v-18h9zM389 249q13 0 14.5 5t-1.5 8.5t-8 1.5t-5 -15zM87 179h14v49l6 -31h9q1 0 3 8.5t2 21.5q0 24 -21 24q-9 0 -11 -14q-1 -14 -1 -29
t-1 -29zM372 166q0 -10 14 -10q6 0 8.5 6.5t4 15t1.5 16v10.5q-11 0 -15.5 -14t-12.5 -24z" />
    <glyph glyph-name="O" unicode="O" horiz-adv-x="538" 
d="M196 655q15 10 26.5 14t36.5 4t39 -6.5t38 -2.5l4 -5q6 -7 18 -13t25.5 -11t25 -10t16.5 -11q1 -10 7.5 -19.5t14 -18t13.5 -16t6 -13.5t-2.5 -7t-2.5 -7q0 4 5 -2t11 -14.5t11 -16l5 -7.5q-1 -16 -0.5 -25t4.5 -20q3 -17 5.5 -28t4.5 -19.5t3 -17.5t1 -21
q0 -27 -5 -38.5t-5 -31.5q0 -16 2.5 -20.5t2.5 -11.5q0 -10 -5.5 -7t-10.5 9t-6 7q-4 0 -9 -9t-8.5 -21.5t-6 -25.5t-3.5 -21q-1 -1 -1 -7q0 -7 7 -12t7 -7q0 -36 -45 -81q-6 -14 -21.5 -20.5t-23.5 -11.5q-9 -6 -27.5 -13.5t-38 -13t-35.5 -5.5t-20 10q-50 -9 -103 18
q-22 11 -51 39.5t-48 72.5q-3 7 -7 24t-11 25q-14 14 -16 28t-2 40q0 6 2.5 11t2.5 9q0 1 -1 10t-4 20t-8 13q10 6 7 14.5t-3 14.5q0 4 2.5 8t2.5 7q0 5 -2.5 8.5t-2.5 5.5q0 30 13 40q-1 21 5 50l9 26.5t27 58.5t44.5 58.5t60.5 26.5q6 0 11 -2.5t9 -1.5zM202 610h-15v-21
q15 0 15 21zM156 403l-9 -4q-1 -27 -13 -45q-2 -19 -3.5 -37.5t-1.5 -37.5q0 -22 13 -22q0 13 1 28.5t2 29t1.5 22.5t0.5 8l5 9q-3 -6 -2 -19.5t2 -20.5q2 -20 3.5 -40t7.5 -40.5t19 -42t37 -43.5q1 6 9 4t9 -9h31q1 0 3 -2.5t6 -2.5q7 0 18 7t23 16q13 7 18 13t8.5 14
t7.5 19.5t15 29.5q7 19 5 46.5t-1 48.5q1 14 3 36t2 50q0 9 -6.5 32t-19.5 46.5t-32.5 42t-44.5 18.5q-13 0 -32.5 -8.5t-44.5 -15.5q-12 -5 -20.5 -22.5t-13 -38.5t-6.5 -40.5t0 -28.5zM461 507h-4q-1 -2 -1 -9q0 1 6 -14.5t8 -26.5h12q0 13 -4 31.5t-17 18.5zM485 426h-10
q-1 -20 -5.5 -44t-4.5 -41q0 -9 -0.5 -26.5t12.5 -17.5q0 16 0.5 32.5t1.5 33.5q4 15 5 31t1 32zM488 210q3 -16 -1 -23t-4 1q0 5 5 22zM304 69v20h-13q-1 -1 -1 -4q0 -16 14 -16z" />
    <glyph glyph-name="O" unicode="&#xf04f;" horiz-adv-x="538" 
d="M196 655q15 10 26.5 14t36.5 4t39 -6.5t38 -2.5l4 -5q6 -7 18 -13t25.5 -11t25 -10t16.5 -11q1 -10 7.5 -19.5t14 -18t13.5 -16t6 -13.5t-2.5 -7t-2.5 -7q0 4 5 -2t11 -14.5t11 -16l5 -7.5q-1 -16 -0.5 -25t4.5 -20q3 -17 5.5 -28t4.5 -19.5t3 -17.5t1 -21
q0 -27 -5 -38.5t-5 -31.5q0 -16 2.5 -20.5t2.5 -11.5q0 -10 -5.5 -7t-10.5 9t-6 7q-4 0 -9 -9t-8.5 -21.5t-6 -25.5t-3.5 -21q-1 -1 -1 -7q0 -7 7 -12t7 -7q0 -36 -45 -81q-6 -14 -21.5 -20.5t-23.5 -11.5q-9 -6 -27.5 -13.5t-38 -13t-35.5 -5.5t-20 10q-50 -9 -103 18
q-22 11 -51 39.5t-48 72.5q-3 7 -7 24t-11 25q-14 14 -16 28t-2 40q0 6 2.5 11t2.5 9q0 1 -1 10t-4 20t-8 13q10 6 7 14.5t-3 14.5q0 4 2.5 8t2.5 7q0 5 -2.5 8.5t-2.5 5.5q0 30 13 40q-1 21 5 50l9 26.5t27 58.5t44.5 58.5t60.5 26.5q6 0 11 -2.5t9 -1.5zM202 610h-15v-21
q15 0 15 21zM156 403l-9 -4q-1 -27 -13 -45q-2 -19 -3.5 -37.5t-1.5 -37.5q0 -22 13 -22q0 13 1 28.5t2 29t1.5 22.5t0.5 8l5 9q-3 -6 -2 -19.5t2 -20.5q2 -20 3.5 -40t7.5 -40.5t19 -42t37 -43.5q1 6 9 4t9 -9h31q1 0 3 -2.5t6 -2.5q7 0 18 7t23 16q13 7 18 13t8.5 14
t7.5 19.5t15 29.5q7 19 5 46.5t-1 48.5q1 14 3 36t2 50q0 9 -6.5 32t-19.5 46.5t-32.5 42t-44.5 18.5q-13 0 -32.5 -8.5t-44.5 -15.5q-12 -5 -20.5 -22.5t-13 -38.5t-6.5 -40.5t0 -28.5zM461 507h-4q-1 -2 -1 -9q0 1 6 -14.5t8 -26.5h12q0 13 -4 31.5t-17 18.5zM485 426h-10
q-1 -20 -5.5 -44t-4.5 -41q0 -9 -0.5 -26.5t12.5 -17.5q0 16 0.5 32.5t1.5 33.5q4 15 5 31t1 32zM488 210q3 -16 -1 -23t-4 1q0 5 5 22zM304 69v20h-13q-1 -1 -1 -4q0 -16 14 -16z" />
    <glyph glyph-name="P" unicode="P" horiz-adv-x="471" 
d="M48 578q13 1 26 1h26q48 0 51 -1q33 -1 36 -4l5 -5l22 -2t55 -2q10 0 24 7t21 7q19 0 29.5 -3t17 -7.5t11.5 -10t13 -11.5q14 -7 23.5 -12.5t16 -14.5t11.5 -23.5t11 -39.5q10 -37 10 -84q0 -29 -8 -49t-15 -42q2 -14 -11.5 -31.5t-35 -33.5t-47.5 -27t-48 -11
q-17 0 -34 2t-26 2q-2 1 -29 1h-14.5t-14.5 -1q-9 -3 -9 -29q0 -5 9 -29v-90q0 -2 -2.5 -5.5t-2.5 -7.5q0 -12 2.5 -21.5t2.5 -13.5v-18l-130 5v4v5q2 44 3 68.5t1 50.5q0 17 -2 23.5t-2 13.5v6q0 18 2 23t2 18q0 2 -2 9t-2 18q0 4 8 15l-8 32v103q11 11 5.5 23.5t-5.5 19.5
q0 10 2 15.5t2 6.5q0 8 -2 14.5t-2 10.5v11q0 15 8 52q-8 11 -8 32q0 23 4 30zM194 556h-7q-1 -1 -1 -5q0 -5 8 -8t18.5 -4t21 -1h16.5v13q-15 1 -28.5 3t-27.5 2zM353 480h-4q-1 -1 -1 -5q0 -29 9.5 -60.5t9.5 -63.5q13 0 13 26q0 54 -4 71q-8 32 -23 32zM174 462
q-8 -4 -9 -11t1 -16.5t5 -22t3 -27.5v-36q-2 -6 -3.5 -12t-1.5 -17q0 -12 9.5 -17.5t22 -7t24.5 -1t18 0.5q31 0 57 28t26 65q0 31 -20 54.5t-38 23.5h-5q-23 -1 -45 -2zM74 402q20 0 20 35q-20 0 -20 -35zM333 294q17 0 19.5 6.5t-2 11t-11 2t-6.5 -19.5zM78 233h10
q2 0 3.5 9t2 21t0.5 24v18h-10q-2 0 -5 -41q-1 -8 -1 -15.5v-15.5zM120 139v22h-9v-22h9z" />
    <glyph glyph-name="P" unicode="&#xf050;" horiz-adv-x="471" 
d="M48 578q13 1 26 1h26q48 0 51 -1q33 -1 36 -4l5 -5l22 -2t55 -2q10 0 24 7t21 7q19 0 29.5 -3t17 -7.5t11.5 -10t13 -11.5q14 -7 23.5 -12.5t16 -14.5t11.5 -23.5t11 -39.5q10 -37 10 -84q0 -29 -8 -49t-15 -42q2 -14 -11.5 -31.5t-35 -33.5t-47.5 -27t-48 -11
q-17 0 -34 2t-26 2q-2 1 -29 1h-14.5t-14.5 -1q-9 -3 -9 -29q0 -5 9 -29v-90q0 -2 -2.5 -5.5t-2.5 -7.5q0 -12 2.5 -21.5t2.5 -13.5v-18l-130 5v4v5q2 44 3 68.5t1 50.5q0 17 -2 23.5t-2 13.5v6q0 18 2 23t2 18q0 2 -2 9t-2 18q0 4 8 15l-8 32v103q11 11 5.5 23.5t-5.5 19.5
q0 10 2 15.5t2 6.5q0 8 -2 14.5t-2 10.5v11q0 15 8 52q-8 11 -8 32q0 23 4 30zM194 556h-7q-1 -1 -1 -5q0 -5 8 -8t18.5 -4t21 -1h16.5v13q-15 1 -28.5 3t-27.5 2zM353 480h-4q-1 -1 -1 -5q0 -29 9.5 -60.5t9.5 -63.5q13 0 13 26q0 54 -4 71q-8 32 -23 32zM174 462
q-8 -4 -9 -11t1 -16.5t5 -22t3 -27.5v-36q-2 -6 -3.5 -12t-1.5 -17q0 -12 9.5 -17.5t22 -7t24.5 -1t18 0.5q31 0 57 28t26 65q0 31 -20 54.5t-38 23.5h-5q-23 -1 -45 -2zM74 402q20 0 20 35q-20 0 -20 -35zM333 294q17 0 19.5 6.5t-2 11t-11 2t-6.5 -19.5zM78 233h10
q2 0 3.5 9t2 21t0.5 24v18h-10q-2 0 -5 -41q-1 -8 -1 -15.5v-15.5zM120 139v22h-9v-22h9z" />
    <glyph glyph-name="Q" unicode="Q" horiz-adv-x="538" 
d="M268 646q5 -4 18 -5q21 1 31 0q20 -2 39.5 -16.5t27.5 -19.5q8 -3 13.5 -5t9.5 -4q-5 2 9 -10.5t33 -35t35.5 -54.5t16.5 -70q0 -13 4.5 -32t4.5 -27v-98q0 -13 -6 -34.5t-7 -28.5q-3 -9 -7 -26t-9 -34.5t-12.5 -30.5t-17.5 -13q0 18 2.5 30.5t2.5 22.5q0 9 -18 9v-79
q0 -2 5 -5q24 -16 36.5 -37t12.5 -35q-14 -22 -22.5 -31.5t-26.5 -29.5q-4 -8 -11 2t-15.5 26.5t-17.5 32.5t-17 19q-2 0 -7 -5q-11 -15 -35 -18.5t-43 -3.5q-13 0 -32 2t-42 2q-6 0 -12.5 -2t-10.5 -2h-7q-16 0 -25.5 3t-17 8.5t-14 12.5t-16.5 16q-18 15 -31.5 33
l-22.5 30q-18 16 -17 26.5t-1 22.5q1 -3 -3 10t-9.5 30.5t-11 32.5t-7.5 17v63q0 2 2 9t2 19q0 5 -2 17t-2 27q0 18 6.5 40.5t10.5 44.5q0 1 1.5 8t3.5 15.5t4.5 16t4.5 9.5q20 7 33.5 27t24.5 40q6 15 11.5 21t10.5 8.5t12 3t16 3.5q9 12 23.5 17.5t30 8t31 3t27.5 3.5z
M340 583q-1 -2 -1 -7q0 -6 1 -7q6 -27 9 -27h10v13.5t-1 13.5q-2 15 -14 15q-3 0 -4 -1zM169 457q-3 -27 -9 -54q-2 -6 -8 -21.5t-6 -28.5t1.5 -23t3.5 -30q1 -18 0 -54q1 -5 9.5 -18.5t8.5 -21.5q0 -42 23 -64t65 -22q30 0 60 10q-6 10 -10 15t-6.5 9.5t-3.5 9.5t-1 15
q0 6 -10.5 7t-21.5 1q0 15 14.5 36t25.5 32q5 8 13 0.5t15.5 -20.5t13.5 -26.5t7 -16.5q1 0 5.5 10t9 24.5t8.5 30.5t4 28q0 5 -9 33v90q0 12 -7.5 26t-5.5 23l-54 54l-5 9q-1 1 -18 1q-11 0 -31 0.5t-27 -14.5q-19 -5 -26.5 -8.5t-10.5 -9t-5.5 -13t-11.5 -19.5zM88 452
q0 -22 -9.5 -46t-9.5 -34h10q2 4 6.5 12t9 15t8 11t3.5 2q0 -7 -2.5 -18.5t-2.5 -24.5q9 0 13.5 10t6 23.5t1 28t-0.5 24.5q-7 0 -13 -4.5t-6 -2.5v5q5 18 3.5 22.5t-5.5 1.5t-8 -10.5t-4 -14.5zM438 318v18h-9v-18h9zM79 269v49h-9v-49h9zM429 219v63h-9q-2 -14 -2.5 -27
t-1.5 -27q-1 -24 -3.5 -36t-2.5 -23q32 0 35 13.5t3 30.5q-19 0 -19 6z" />
    <glyph glyph-name="Q" unicode="&#xf051;" horiz-adv-x="538" 
d="M268 646q5 -4 18 -5q21 1 31 0q20 -2 39.5 -16.5t27.5 -19.5q8 -3 13.5 -5t9.5 -4q-5 2 9 -10.5t33 -35t35.5 -54.5t16.5 -70q0 -13 4.5 -32t4.5 -27v-98q0 -13 -6 -34.5t-7 -28.5q-3 -9 -7 -26t-9 -34.5t-12.5 -30.5t-17.5 -13q0 18 2.5 30.5t2.5 22.5q0 9 -18 9v-79
q0 -2 5 -5q24 -16 36.5 -37t12.5 -35q-14 -22 -22.5 -31.5t-26.5 -29.5q-4 -8 -11 2t-15.5 26.5t-17.5 32.5t-17 19q-2 0 -7 -5q-11 -15 -35 -18.5t-43 -3.5q-13 0 -32 2t-42 2q-6 0 -12.5 -2t-10.5 -2h-7q-16 0 -25.5 3t-17 8.5t-14 12.5t-16.5 16q-18 15 -31.5 33
l-22.5 30q-18 16 -17 26.5t-1 22.5q1 -3 -3 10t-9.5 30.5t-11 32.5t-7.5 17v63q0 2 2 9t2 19q0 5 -2 17t-2 27q0 18 6.5 40.5t10.5 44.5q0 1 1.5 8t3.5 15.5t4.5 16t4.5 9.5q20 7 33.5 27t24.5 40q6 15 11.5 21t10.5 8.5t12 3t16 3.5q9 12 23.5 17.5t30 8t31 3t27.5 3.5z
M340 583q-1 -2 -1 -7q0 -6 1 -7q6 -27 9 -27h10v13.5t-1 13.5q-2 15 -14 15q-3 0 -4 -1zM169 457q-3 -27 -9 -54q-2 -6 -8 -21.5t-6 -28.5t1.5 -23t3.5 -30q1 -18 0 -54q1 -5 9.5 -18.5t8.5 -21.5q0 -42 23 -64t65 -22q30 0 60 10q-6 10 -10 15t-6.5 9.5t-3.5 9.5t-1 15
q0 6 -10.5 7t-21.5 1q0 15 14.5 36t25.5 32q5 8 13 0.5t15.5 -20.5t13.5 -26.5t7 -16.5q1 0 5.5 10t9 24.5t8.5 30.5t4 28q0 5 -9 33v90q0 12 -7.5 26t-5.5 23l-54 54l-5 9q-1 1 -18 1q-11 0 -31 0.5t-27 -14.5q-19 -5 -26.5 -8.5t-10.5 -9t-5.5 -13t-11.5 -19.5zM88 452
q0 -22 -9.5 -46t-9.5 -34h10q2 4 6.5 12t9 15t8 11t3.5 2q0 -7 -2.5 -18.5t-2.5 -24.5q9 0 13.5 10t6 23.5t1 28t-0.5 24.5q-7 0 -13 -4.5t-6 -2.5v5q5 18 3.5 22.5t-5.5 1.5t-8 -10.5t-4 -14.5zM438 318v18h-9v-18h9zM79 269v49h-9v-49h9zM429 219v63h-9q-2 -14 -2.5 -27
t-1.5 -27q-1 -24 -3.5 -36t-2.5 -23q32 0 35 13.5t3 30.5q-19 0 -19 6z" />
    <glyph glyph-name="R" unicode="R" horiz-adv-x="489" 
d="M49 601h125q-1 -4 8.5 -7t22.5 -4.5t25 -2t16 -0.5q30 0 35 9q23 -2 45 0q12 5 14 5q39 0 62 -27q14 -16 19 -25t13 -16q12 -10 17 -21t5.5 -23.5t-0.5 -27.5t0 -31q3 -16 4 -23t1 -18t-10 -26.5t-13 -21.5q-7 -16 -11.5 -26.5t-6.5 -14.5q-1 -2 -7.5 -5t-14.5 -6
t-14.5 -5.5t-7.5 -5.5q13 -8 24.5 -14.5t20 -15.5t13.5 -22t5 -33q0 -2 -2.5 -7.5t-2.5 -13.5q0 -3 2.5 -7.5t2.5 -5.5q0 -10 -2.5 -17.5t-2.5 -11.5v-14q6 -16 5.5 -35.5t-1.5 -36.5q24 -14 24 -49h-16.5t-16.5 1q-23 1 -47 2t-47 2q-2 4 -4.5 12l-5 16t-4.5 14t-4 7
q5 30 5 29q0 6 -2.5 12l-2.5 6q0 27 9 47q-2 9 -5.5 18t-7.5 18q-17 36 -38 36h-3q-7 -7 -9.5 -3.5t-8.5 3.5h-19q-17 0 -33 -1.5t-33 -3.5v-2q0 -4 2.5 -7.5t2.5 -5.5v-3q-2 -48 -3 -84t-2 -59v-53h-123q0 16 0.5 33t1.5 33q6 17 1 28.5t-5 22.5q0 17 2 26.5t2 19.5
q0 7 -2 16t-2 13q0 16 4.5 33.5t4.5 35.5q0 23 -4.5 44.5t-4.5 39.5v26q5 11 2.5 20.5t-2.5 15.5v12v11q3 13 5 20.5t3 13.5t1 13v19q0 23 -4.5 29.5t-4.5 18.5q0 17 2.5 30.5t2.5 30.5zM236 601q7 7 10.5 5.5t3.5 -5.5t-3.5 -5.5t-10.5 5.5zM114 583h37q6 0 6 13h-37
q-6 0 -6 -13zM376 516q-11 -38 -11 -90h11q2 16 5 37t19 22q0 16 -10.5 24t-9.5 8q-3 0 -4 -1zM268 484h-93q0 -30 -6 -36q1 -29 0 -57t-4 -55v-2q0 -2 12.5 -3.5t29 -2t32 -1t21.5 -0.5q67 0 67 82q0 37 -17.5 56t-41.5 19zM398 471h-5v-7q0 -17 3 -27.5t2 -10.5h11
q0 9 -0.5 18t-1.5 18t-9 9zM380 345v9h-13v-9h13zM129 300v14h-9v-14h9zM97 166q-9 -38 -9 -55q0 -31 23 -31q7 0 11 8t6 19.5t2.5 23.5t0.5 21h-11q-1 -33 -14 -49l-4 9l9 40q1 4 27 18v11q-18 0 -41 -15z" />
    <glyph glyph-name="R" unicode="&#xf052;" horiz-adv-x="489" 
d="M49 601h125q-1 -4 8.5 -7t22.5 -4.5t25 -2t16 -0.5q30 0 35 9q23 -2 45 0q12 5 14 5q39 0 62 -27q14 -16 19 -25t13 -16q12 -10 17 -21t5.5 -23.5t-0.5 -27.5t0 -31q3 -16 4 -23t1 -18t-10 -26.5t-13 -21.5q-7 -16 -11.5 -26.5t-6.5 -14.5q-1 -2 -7.5 -5t-14.5 -6
t-14.5 -5.5t-7.5 -5.5q13 -8 24.5 -14.5t20 -15.5t13.5 -22t5 -33q0 -2 -2.5 -7.5t-2.5 -13.5q0 -3 2.5 -7.5t2.5 -5.5q0 -10 -2.5 -17.5t-2.5 -11.5v-14q6 -16 5.5 -35.5t-1.5 -36.5q24 -14 24 -49h-16.5t-16.5 1q-23 1 -47 2t-47 2q-2 4 -4.5 12l-5 16t-4.5 14t-4 7
q5 30 5 29q0 6 -2.5 12l-2.5 6q0 27 9 47q-2 9 -5.5 18t-7.5 18q-17 36 -38 36h-3q-7 -7 -9.5 -3.5t-8.5 3.5h-19q-17 0 -33 -1.5t-33 -3.5v-2q0 -4 2.5 -7.5t2.5 -5.5v-3q-2 -48 -3 -84t-2 -59v-53h-123q0 16 0.5 33t1.5 33q6 17 1 28.5t-5 22.5q0 17 2 26.5t2 19.5
q0 7 -2 16t-2 13q0 16 4.5 33.5t4.5 35.5q0 23 -4.5 44.5t-4.5 39.5v26q5 11 2.5 20.5t-2.5 15.5v12v11q3 13 5 20.5t3 13.5t1 13v19q0 23 -4.5 29.5t-4.5 18.5q0 17 2.5 30.5t2.5 30.5zM236 601q7 7 10.5 5.5t3.5 -5.5t-3.5 -5.5t-10.5 5.5zM114 583h37q6 0 6 13h-37
q-6 0 -6 -13zM376 516q-11 -38 -11 -90h11q2 16 5 37t19 22q0 16 -10.5 24t-9.5 8q-3 0 -4 -1zM268 484h-93q0 -30 -6 -36q1 -29 0 -57t-4 -55v-2q0 -2 12.5 -3.5t29 -2t32 -1t21.5 -0.5q67 0 67 82q0 37 -17.5 56t-41.5 19zM398 471h-5v-7q0 -17 3 -27.5t2 -10.5h11
q0 9 -0.5 18t-1.5 18t-9 9zM380 345v9h-13v-9h13zM129 300v14h-9v-14h9zM97 166q-9 -38 -9 -55q0 -31 23 -31q7 0 11 8t6 19.5t2.5 23.5t0.5 21h-11q-1 -33 -14 -49l-4 9l9 40q1 4 27 18v11q-18 0 -41 -15z" />
    <glyph glyph-name="S" unicode="S" horiz-adv-x="453" 
d="M259 668q39 -7 68 -27q14 -10 32.5 -21.5t20.5 -14.5q23 -32 27 -76q1 -12 5.5 -22t4.5 -16q0 -11 -23 -11h-99q-2 0 -9 22q-3 34 -20 39.5t-49 5.5q-5 0 -11.5 -4t-9.5 -5q-45 -15 -45 -44q0 -19 19 -41q12 -16 29 -25t35.5 -14.5t36.5 -9.5t33 -10q19 -7 32.5 -12.5
t21.5 -9.5q22 -11 35 -28t20 -35.5t9.5 -36.5t2.5 -30t1.5 -19t3.5 -13t3.5 -12t1.5 -17q0 -13 -5 -19.5t-10 -12.5t-7.5 -15t3.5 -27q-11 -5 -20.5 -16t-24.5 -29q-6 -13 -21 -21.5t-34.5 -13.5t-42 -7.5t-43.5 -2.5q-16 0 -34 5q-26 -2 -43.5 2t-30 11t-23.5 14.5
t-24 12.5q-13 6 -19.5 19.5t-11.5 16.5q-10 6 -16.5 30t-14.5 38v62q0 10 25.5 10h50.5q8 0 25 0.5t20 -5.5q10 -22 16.5 -39.5t15.5 -30t22.5 -19t36.5 -6.5q45 0 60 15.5t15 55.5q0 14 -5 17.5t-5 13.5q0 4 4 3t9.5 -5t10.5 -7.5t7 -3.5q0 15 -6.5 22t-15.5 10t-18.5 3.5
t-16.5 1.5q-8 2 -25 9.5t-35 15t-34 13t-23 3.5q-113 41 -117 148v40v40q4 1 5 5q7 52 42 84t97 37q30 3 49 2.5t36 6.5zM129 596v9h-13v-9h13zM48 543q1 0 7 5t13 12.5t13 16t6 15.5h-12q-9 0 -19 -16.5t-8 -32.5zM56 502h10q2 0 4 14t2 25q-16 0 -16 -39zM214 323v9h-22
v-9h22zM308 113q8 0 12.5 7t6 17.5t1.5 22v19.5h-10q1 0 -4.5 -19.5t-5.5 -46.5zM89 98q0 -8 14 -13t22 -5q28 0 47.5 3.5t19.5 5.5v5q-21 0 -36 4q-5 1 -11 8t-16 7t-13.5 2t-4.5 4.5t-2 4.5t-6 2q-14 0 -14 -28z" />
    <glyph glyph-name="S" unicode="&#xf053;" horiz-adv-x="453" 
d="M259 668q39 -7 68 -27q14 -10 32.5 -21.5t20.5 -14.5q23 -32 27 -76q1 -12 5.5 -22t4.5 -16q0 -11 -23 -11h-99q-2 0 -9 22q-3 34 -20 39.5t-49 5.5q-5 0 -11.5 -4t-9.5 -5q-45 -15 -45 -44q0 -19 19 -41q12 -16 29 -25t35.5 -14.5t36.5 -9.5t33 -10q19 -7 32.5 -12.5
t21.5 -9.5q22 -11 35 -28t20 -35.5t9.5 -36.5t2.5 -30t1.5 -19t3.5 -13t3.5 -12t1.5 -17q0 -13 -5 -19.5t-10 -12.5t-7.5 -15t3.5 -27q-11 -5 -20.5 -16t-24.5 -29q-6 -13 -21 -21.5t-34.5 -13.5t-42 -7.5t-43.5 -2.5q-16 0 -34 5q-26 -2 -43.5 2t-30 11t-23.5 14.5
t-24 12.5q-13 6 -19.5 19.5t-11.5 16.5q-10 6 -16.5 30t-14.5 38v62q0 10 25.5 10h50.5q8 0 25 0.5t20 -5.5q10 -22 16.5 -39.5t15.5 -30t22.5 -19t36.5 -6.5q45 0 60 15.5t15 55.5q0 14 -5 17.5t-5 13.5q0 4 4 3t9.5 -5t10.5 -7.5t7 -3.5q0 15 -6.5 22t-15.5 10t-18.5 3.5
t-16.5 1.5q-8 2 -25 9.5t-35 15t-34 13t-23 3.5q-113 41 -117 148v40v40q4 1 5 5q7 52 42 84t97 37q30 3 49 2.5t36 6.5zM129 596v9h-13v-9h13zM48 543q1 0 7 5t13 12.5t13 16t6 15.5h-12q-9 0 -19 -16.5t-8 -32.5zM56 502h10q2 0 4 14t2 25q-16 0 -16 -39zM214 323v9h-22
v-9h22zM308 113q8 0 12.5 7t6 17.5t1.5 22v19.5h-10q1 0 -4.5 -19.5t-5.5 -46.5zM89 98q0 -8 14 -13t22 -5q28 0 47.5 3.5t19.5 5.5v5q-21 0 -36 4q-5 1 -11 8t-16 7t-13.5 2t-4.5 4.5t-2 4.5t-6 2q-14 0 -14 -28z" />
    <glyph glyph-name="T" unicode="T" horiz-adv-x="403" 
d="M346 623l4 9h45q4 0 6.5 -5.5t4 -12t2.5 -11.5t1 -4q0 -16 -5 -25t-5 -20q0 -24 10 -47h-143q-1 0 -1 -3t0 -2q10 -22 -4 -31v-99h-27v-9l22 -9q-2 -14 3.5 -31t5.5 -43q0 -10 -2.5 -15.5t-2.5 -6.5q0 -16 1.5 -21t-14.5 -18q-12 -11 -12 -18h17q-2 0 5.5 -11.5
t7.5 -34.5q0 -15 -2 -23.5t-2 -17.5v-7q5 -19 1.5 -43.5t-3.5 -46.5h-115q0 3 -2 24t-4.5 47t-2.5 30q0 16 1.5 32t3.5 24q4 17 4 32q0 20 -4.5 44.5t-4.5 31.5v5q1 25 2.5 44t2.5 32v15q0 14 2.5 30.5t2.5 42.5q0 34 -5 56q-11 1 -22.5 2t-22.5 2q-25 1 -49.5 2.5
t-49.5 2.5q1 15 0 31q-7 13 -1 20t6 13q0 8 -2.5 14.5t-2.5 10.5q0 7 1 15.5t12 8.5q5 0 11.5 -7.5t20.5 -7.5q16 0 27 14h215q7 -6 43 -6q19 0 20 1zM140 614v9h-14v-9h14zM115 592h-7v-5q0 -11 -2.5 -12.5t-2.5 -9.5q0 -11 36 -11q0 2 -9 6.5t-9 10.5q0 5 2.5 6t2.5 6
q0 9 -11 9zM144 583q-6 -1 -6 -14h41q2 -5 -1 -6.5t-3 -6.5q0 -9 9 -9h5q9 19 9 28t-7 11.5t-19 0.5t-28 -4zM238 300v14h-9v-14h9zM220 188v9h-9v-9h9z" />
    <glyph glyph-name="T" unicode="&#xf054;" horiz-adv-x="403" 
d="M346 623l4 9h45q4 0 6.5 -5.5t4 -12t2.5 -11.5t1 -4q0 -16 -5 -25t-5 -20q0 -24 10 -47h-143q-1 0 -1 -3t0 -2q10 -22 -4 -31v-99h-27v-9l22 -9q-2 -14 3.5 -31t5.5 -43q0 -10 -2.5 -15.5t-2.5 -6.5q0 -16 1.5 -21t-14.5 -18q-12 -11 -12 -18h17q-2 0 5.5 -11.5
t7.5 -34.5q0 -15 -2 -23.5t-2 -17.5v-7q5 -19 1.5 -43.5t-3.5 -46.5h-115q0 3 -2 24t-4.5 47t-2.5 30q0 16 1.5 32t3.5 24q4 17 4 32q0 20 -4.5 44.5t-4.5 31.5v5q1 25 2.5 44t2.5 32v15q0 14 2.5 30.5t2.5 42.5q0 34 -5 56q-11 1 -22.5 2t-22.5 2q-25 1 -49.5 2.5
t-49.5 2.5q1 15 0 31q-7 13 -1 20t6 13q0 8 -2.5 14.5t-2.5 10.5q0 7 1 15.5t12 8.5q5 0 11.5 -7.5t20.5 -7.5q16 0 27 14h215q7 -6 43 -6q19 0 20 1zM140 614v9h-14v-9h14zM115 592h-7v-5q0 -11 -2.5 -12.5t-2.5 -9.5q0 -11 36 -11q0 2 -9 6.5t-9 10.5q0 5 2.5 6t2.5 6
q0 9 -11 9zM144 583q-6 -1 -6 -14h41q2 -5 -1 -6.5t-3 -6.5q0 -9 9 -9h5q9 19 9 28t-7 11.5t-19 0.5t-28 -4zM238 300v14h-9v-14h9zM220 188v9h-9v-9h9z" />
    <glyph glyph-name="U" unicode="U" horiz-adv-x="511" 
d="M36 542q4 16 3.5 30.5t0.5 23.5q2 18 4 18h118q0 -29 -3 -47t-2 -18h-18v-13h27q4 0 4 -25q-6 -24 -8 -47.5t-1 -55.5q1 -2 -10 -8t-11 -22q4 0 7.5 1.5t6.5 1.5q4 0 8 -16t4 -22q0 -14 -2.5 -20.5t-2.5 -17.5q0 -15 2.5 -21t2.5 -17q0 -17 -2.5 -31.5t-2.5 -23.5
q0 -7 3 -18t7 -22.5t8 -20.5t5 -12q0 -17 22.5 -27t41.5 -10q17 0 52 23q16 10 23.5 30.5t9.5 44.5t1 47.5t-2 39.5q9 13 9 22q0 12 -4 23.5t-5 16.5q-1 1 -1 5q0 10 5 25t5 28q0 6 -2.5 19t-2.5 31q0 14 2.5 18.5t2.5 15.5t-2 19.5t-3 13.5v27q0 36 5 63h11h11q23 -1 47 -2
t47 -2q1 -21 3 -42.5t2 -43.5v-8q-4 -19 -4.5 -25.5t-0.5 -22.5q0 -21 5 -29q-1 -49 0 -98q4 -15 4.5 -20.5t0.5 -19.5q0 -22 -13 -32.5t-13 -23.5q18 0 17 -17t-1 -31q5 -15 5 -18q0 -12 -3 -30.5t-9 -35.5t-16.5 -29t-25.5 -12q-16 0 -16 -28h13q0 -6 -19 -15.5t-43 -19
t-46.5 -16t-28.5 -6.5q-54 0 -102 17q-8 4 -14 4q-40 7 -56 29.5t-29 38.5q-12 14 -15 29t-3 38v5q-9 5 -11 13t0 16t4.5 14.5t2.5 7.5q0 5 -4.5 10t-4.5 8q0 7 4.5 11t4.5 9q0 24 -4.5 43.5t-4.5 32.5v41q2 12 3 21t1 15q1 18 0.5 36t-2.5 36v13q-1 17 -1.5 34t-0.5 33z
M98 318v-11q0 -12 2 -23t3 -11h7q0 8 3.5 26.5t3.5 41.5h-14q-2 0 -5 -23zM97 225q16 0 16 38q-16 0 -16 -38zM432 215h-11q-2 -24 -3.5 -43t-1.5 -33h10q2 0 3 9.5t2 22t1 25v19.5zM114 166h-7v-5q0 -15 10.5 -23t12.5 -8v31q0 5 -16 5z" />
    <glyph glyph-name="U" unicode="&#xf055;" horiz-adv-x="511" 
d="M36 542q4 16 3.5 30.5t0.5 23.5q2 18 4 18h118q0 -29 -3 -47t-2 -18h-18v-13h27q4 0 4 -25q-6 -24 -8 -47.5t-1 -55.5q1 -2 -10 -8t-11 -22q4 0 7.5 1.5t6.5 1.5q4 0 8 -16t4 -22q0 -14 -2.5 -20.5t-2.5 -17.5q0 -15 2.5 -21t2.5 -17q0 -17 -2.5 -31.5t-2.5 -23.5
q0 -7 3 -18t7 -22.5t8 -20.5t5 -12q0 -17 22.5 -27t41.5 -10q17 0 52 23q16 10 23.5 30.5t9.5 44.5t1 47.5t-2 39.5q9 13 9 22q0 12 -4 23.5t-5 16.5q-1 1 -1 5q0 10 5 25t5 28q0 6 -2.5 19t-2.5 31q0 14 2.5 18.5t2.5 15.5t-2 19.5t-3 13.5v27q0 36 5 63h11h11q23 -1 47 -2
t47 -2q1 -21 3 -42.5t2 -43.5v-8q-4 -19 -4.5 -25.5t-0.5 -22.5q0 -21 5 -29q-1 -49 0 -98q4 -15 4.5 -20.5t0.5 -19.5q0 -22 -13 -32.5t-13 -23.5q18 0 17 -17t-1 -31q5 -15 5 -18q0 -12 -3 -30.5t-9 -35.5t-16.5 -29t-25.5 -12q-16 0 -16 -28h13q0 -6 -19 -15.5t-43 -19
t-46.5 -16t-28.5 -6.5q-54 0 -102 17q-8 4 -14 4q-40 7 -56 29.5t-29 38.5q-12 14 -15 29t-3 38v5q-9 5 -11 13t0 16t4.5 14.5t2.5 7.5q0 5 -4.5 10t-4.5 8q0 7 4.5 11t4.5 9q0 24 -4.5 43.5t-4.5 32.5v41q2 12 3 21t1 15q1 18 0.5 36t-2.5 36v13q-1 17 -1.5 34t-0.5 33z
M98 318v-11q0 -12 2 -23t3 -11h7q0 8 3.5 26.5t3.5 41.5h-14q-2 0 -5 -23zM97 225q16 0 16 38q-16 0 -16 -38zM432 215h-11q-2 -24 -3.5 -43t-1.5 -33h10q2 0 3 9.5t2 22t1 25v19.5zM114 166h-7v-5q0 -15 10.5 -23t12.5 -8v31q0 5 -16 5z" />
    <glyph glyph-name="V" unicode="V" horiz-adv-x="408" 
d="M67 574h54l9 -50q1 -2 -2 -10t-7 -16.5t-7.5 -15.5t-3.5 -8q13 0 16 10q8 -4 13.5 -20.5t8.5 -24.5q-5 -11 -4 -18q0 -2 2.5 -13.5t5.5 -25t6 -25.5t3 -16q5 -31 11.5 -45t6.5 -35q0 -23 8.5 -47t9.5 -48q2 -20 5 -13.5t6 22t5 32.5l2 17q11 21 10.5 34.5t3.5 23.5
q10 18 15 32.5t8 28.5t5.5 28.5t7.5 31.5q1 6 2 10.5t2 7.5q3 18 4.5 30t3.5 22t4 21t6 26q6 17 8.5 27t2.5 23q27 0 60 -1.5t73 -3.5q-11 -15 -13 -28t-5 -30q-3 -7 -5 -13t-4 -10q-4 -9 -8 -24t-7.5 -31t-6.5 -30.5t-5 -22.5q-2 -15 -8 -34t-12.5 -38t-12 -35.5
t-8.5 -26.5q2 -12 1 -21.5t-10 -14.5q-7 -43 -14 -78t-26 -79q-10 -15 -8.5 -29.5t-0.5 -23.5q-6 -8 -10 -15.5t-4 -15.5h-120l-6.5 16.5t-14 37t-14 38t-6.5 19.5v184q0 10 -13 10v-100q-15 20 -18.5 40t-8.5 32q-5 16 -9 26t-5 14q1 18 0 27q0 19 -13.5 38.5t-13.5 31.5
q0 5 2.5 8t2.5 7q0 15 -5.5 33.5t-12.5 37.5t-13.5 37t-9.5 31q-2 13 -4 22t-4 14h53q0 -9 9 -9q19 0 27 14zM52 378l5 -1.5l15 -4.5q13 -4 9 7t-14 11q-15 0 -15 -12zM305 278v9h-13v-9h13zM301 188v13h-9v-13h9zM249 85h11q3 0 7 16.5t4 28.5h-11q-2 0 -6.5 -16.5
t-4.5 -28.5z" />
    <glyph glyph-name="V" unicode="&#xf056;" horiz-adv-x="408" 
d="M67 574h54l9 -50q1 -2 -2 -10t-7 -16.5t-7.5 -15.5t-3.5 -8q13 0 16 10q8 -4 13.5 -20.5t8.5 -24.5q-5 -11 -4 -18q0 -2 2.5 -13.5t5.5 -25t6 -25.5t3 -16q5 -31 11.5 -45t6.5 -35q0 -23 8.5 -47t9.5 -48q2 -20 5 -13.5t6 22t5 32.5l2 17q11 21 10.5 34.5t3.5 23.5
q10 18 15 32.5t8 28.5t5.5 28.5t7.5 31.5q1 6 2 10.5t2 7.5q3 18 4.5 30t3.5 22t4 21t6 26q6 17 8.5 27t2.5 23q27 0 60 -1.5t73 -3.5q-11 -15 -13 -28t-5 -30q-3 -7 -5 -13t-4 -10q-4 -9 -8 -24t-7.5 -31t-6.5 -30.5t-5 -22.5q-2 -15 -8 -34t-12.5 -38t-12 -35.5
t-8.5 -26.5q2 -12 1 -21.5t-10 -14.5q-7 -43 -14 -78t-26 -79q-10 -15 -8.5 -29.5t-0.5 -23.5q-6 -8 -10 -15.5t-4 -15.5h-120l-6.5 16.5t-14 37t-14 38t-6.5 19.5v184q0 10 -13 10v-100q-15 20 -18.5 40t-8.5 32q-5 16 -9 26t-5 14q1 18 0 27q0 19 -13.5 38.5t-13.5 31.5
q0 5 2.5 8t2.5 7q0 15 -5.5 33.5t-12.5 37.5t-13.5 37t-9.5 31q-2 13 -4 22t-4 14h53q0 -9 9 -9q19 0 27 14zM52 378l5 -1.5l15 -4.5q13 -4 9 7t-14 11q-15 0 -15 -12zM305 278v9h-13v-9h13zM301 188v13h-9v-13h9zM249 85h11q3 0 7 16.5t4 28.5h-11q-2 0 -6.5 -16.5
t-4.5 -28.5z" />
    <glyph glyph-name="W" unicode="W" horiz-adv-x="623" 
d="M258 569l103 -4l4 -5q8 -86 36 -152q6 -14 3 -26t-3 -19q0 -27 10 -58.5t13 -62.5q0 -7 6.5 -18t6.5 -16q0 -12 -2.5 -21t-2.5 -13q0 -22 19 -35v2q0 11 -2.5 16t-2.5 6q0 35 9 71.5t14 70.5q1 14 2 24.5t2 15.5q12 12 10.5 32.5t3.5 34.5q5 17 8 34.5t5 33.5
q2 17 5.5 41.5t12.5 43.5q35 2 65 3.5t53 1.5q0 -34 -9.5 -76t-9.5 -75v-2q-16 -21 -16.5 -49t-1.5 -41q-2 -15 -5 -22q-33 -83 -36 -180q-10 -10 -13.5 -21t-4.5 -22t0 -21t0 -17q-8 -63 -58 -70q-22 3 -22 -18h-68q-3 0 -3.5 18t0 42.5l1 49t0.5 37.5h-13v-45l-7 -5
q-6 8 -10 24t-6.5 34t-4 35.5t-2.5 27.5q-1 6 -1.5 20t-1.5 30t-3.5 32t-6.5 26q-14 14 -11.5 22t2.5 21q0 20 -13 42q-6 -3 -9 -12.5t-4 -21t-1 -22v-15.5q-9 -11 -8.5 -17.5t-0.5 -14.5q-5 -16 -9 -28.5t-4 -22.5q0 -5 2 -10t2 -8q0 1 -2 -5t-5 -14t-5 -15.5t-2 -10.5
l2.5 -6t2.5 -12q0 -27 -10 -57t-12 -58q-2 -17 -7 -25.5t-32 -8.5q-8 0 -25 -6.5t-22 -7.5q-4 -1 -9 -13h-49q-1 0 -3.5 6t-4.5 13.5t-3.5 14.5t-1.5 10q-4 53 -18 112q-7 9 -11.5 31.5t-7.5 46.5t-5 44t-3 26q-11 22 -12.5 37t-5.5 30q-11 47 -21 93t-20 100q-8 10 -9 21.5
t-1 23.5h78q-2 -14 8 -14q2 0 10 5q5 3 6.5 3t2 -2t2 -4t7.5 -2q13 0 13.5 -13.5t8.5 -35.5q4 -10 7 -16t3 -12q-8 0 -10 1q-9 3 -11 1t-0.5 -6t5.5 -8t6 -5l-27 -36v-18q8 0 14 9q18 34 24.5 24t6.5 -40q0 -3 -2.5 -5t-2.5 -6q0 1 10.5 -10t12.5 -30q-2 -22 -1 -31t5 -27
q9 -23 8.5 -41t0.5 -31q7 -21 9 -32q4 -12 4 -49h5q2 16 5.5 32t8.5 31q4 12 4 18q-1 33 0 49q6 6 9 20t4.5 31t2.5 33.5t2 27.5q9 15 11.5 27.5t2.5 23v21.5t4 23q17 19 13 32t-4 24q0 19 14 42zM347 498v9h-13v-9h13zM240 336v9h-9v-9h9zM100 201q0 -8 10 -9q3 -3 7.5 -12
t9 -15t7.5 -3t3 24q0 4 -7 16t-7 17v52q-5 0 -9 -8.5t-7 -20t-5 -23.5t-2 -18zM374 224h-4v-5q0 -12 1.5 -24.5t2.5 -24.5h9v49q0 5 -9 5zM500 0v8h-9v-8h9z" />
    <glyph glyph-name="W" unicode="&#xf057;" horiz-adv-x="623" 
d="M258 569l103 -4l4 -5q8 -86 36 -152q6 -14 3 -26t-3 -19q0 -27 10 -58.5t13 -62.5q0 -7 6.5 -18t6.5 -16q0 -12 -2.5 -21t-2.5 -13q0 -22 19 -35v2q0 11 -2.5 16t-2.5 6q0 35 9 71.5t14 70.5q1 14 2 24.5t2 15.5q12 12 10.5 32.5t3.5 34.5q5 17 8 34.5t5 33.5
q2 17 5.5 41.5t12.5 43.5q35 2 65 3.5t53 1.5q0 -34 -9.5 -76t-9.5 -75v-2q-16 -21 -16.5 -49t-1.5 -41q-2 -15 -5 -22q-33 -83 -36 -180q-10 -10 -13.5 -21t-4.5 -22t0 -21t0 -17q-8 -63 -58 -70q-22 3 -22 -18h-68q-3 0 -3.5 18t0 42.5l1 49t0.5 37.5h-13v-45l-7 -5
q-6 8 -10 24t-6.5 34t-4 35.5t-2.5 27.5q-1 6 -1.5 20t-1.5 30t-3.5 32t-6.5 26q-14 14 -11.5 22t2.5 21q0 20 -13 42q-6 -3 -9 -12.5t-4 -21t-1 -22v-15.5q-9 -11 -8.5 -17.5t-0.5 -14.5q-5 -16 -9 -28.5t-4 -22.5q0 -5 2 -10t2 -8q0 1 -2 -5t-5 -14t-5 -15.5t-2 -10.5
l2.5 -6t2.5 -12q0 -27 -10 -57t-12 -58q-2 -17 -7 -25.5t-32 -8.5q-8 0 -25 -6.5t-22 -7.5q-4 -1 -9 -13h-49q-1 0 -3.5 6t-4.5 13.5t-3.5 14.5t-1.5 10q-4 53 -18 112q-7 9 -11.5 31.5t-7.5 46.5t-5 44t-3 26q-11 22 -12.5 37t-5.5 30q-11 47 -21 93t-20 100q-8 10 -9 21.5
t-1 23.5h78q-2 -14 8 -14q2 0 10 5q5 3 6.5 3t2 -2t2 -4t7.5 -2q13 0 13.5 -13.5t8.5 -35.5q4 -10 7 -16t3 -12q-8 0 -10 1q-9 3 -11 1t-0.5 -6t5.5 -8t6 -5l-27 -36v-18q8 0 14 9q18 34 24.5 24t6.5 -40q0 -3 -2.5 -5t-2.5 -6q0 1 10.5 -10t12.5 -30q-2 -22 -1 -31t5 -27
q9 -23 8.5 -41t0.5 -31q7 -21 9 -32q4 -12 4 -49h5q2 16 5.5 32t8.5 31q4 12 4 18q-1 33 0 49q6 6 9 20t4.5 31t2.5 33.5t2 27.5q9 15 11.5 27.5t2.5 23v21.5t4 23q17 19 13 32t-4 24q0 19 14 42zM347 498v9h-13v-9h13zM240 336v9h-9v-9h9zM100 201q0 -8 10 -9q3 -3 7.5 -12
t9 -15t7.5 -3t3 24q0 4 -7 16t-7 17v52q-5 0 -9 -8.5t-7 -20t-5 -23.5t-2 -18zM374 224h-4v-5q0 -12 1.5 -24.5t2.5 -24.5h9v49q0 5 -9 5zM500 0v8h-9v-8h9z" />
    <glyph glyph-name="X" unicode="X" horiz-adv-x="462" 
d="M5 599v2h9q11 0 15.5 -4.5t12.5 -4.5q20 0 51.5 5.5t50.5 5.5v-25h13q-2 -17 11 -35t16 -27q16 -56 27 -81q5 -7 8.5 -13t5.5 -10q2 -7 9 4.5t16 32.5t19.5 47.5t19.5 49.5t16 39t10 16h116l23 -5q-2 -12 -15.5 -26t-16.5 -19q-7 -10 -18 -44q-2 -15 -6.5 -21t-10.5 -7
t-12.5 1t-12.5 2q0 -2 11 -16q3 -5 -1.5 -17.5t-11.5 -27t-14.5 -27.5t-8.5 -18h-17q-2 -1 1 -17.5t3 -21.5q0 -12 -7 -16.5t-7 -13.5q0 -25 22 -56q19 -27 28.5 -49t9.5 -58q12 0 15.5 1.5t4.5 1t1 -5t4 -16.5q15 -21 12.5 -34t-2.5 -33h25q1 0 -1.5 9t-2.5 13q0 8 5 -2.5
t12.5 -27.5t15.5 -34.5t13 -23.5h-148q-3 0 -8.5 11t-11 24.5t-10 25.5t-6.5 14q-12 20 -20 42.5t-25 47.5q-7 7 -10.5 22.5t-7.5 21.5l-14 -27h-2q-18 0 -16.5 1.5t1.5 -16.5q0 -33 -13.5 -65.5t-23.5 -53.5q-3 -7 -10.5 -11.5t-15 -7.5t-13.5 -5t-6 -3q0 -10 29 -10
q0 -8 -17 -7.5t-25 0.5q-29 0 -58 1t-58 3q9 6 16 23t10 21q17 16 26 35.5t15.5 39t15 37.5t24.5 32q7 5 13.5 18.5t13 29.5t13 32.5t14.5 27.5q1 2 1 9q0 6 -6 19.5t-14 29t-15.5 30.5t-10.5 24q-5 18 -20.5 42.5t-32 51t-29 52t-12.5 45.5zM171 390v13h-9v-13h9zM175 300
q0 -7 5 -7t5 -6q0 -8 -10 -27q-12 -26 -23.5 -49t-11.5 -42q16 0 18 7t4 21q0 -2 5.5 3t12.5 17t13 29.5t6 40.5t-14 23q-10 0 -10 -10z" />
    <glyph glyph-name="X" unicode="&#xf058;" horiz-adv-x="462" 
d="M5 599v2h9q11 0 15.5 -4.5t12.5 -4.5q20 0 51.5 5.5t50.5 5.5v-25h13q-2 -17 11 -35t16 -27q16 -56 27 -81q5 -7 8.5 -13t5.5 -10q2 -7 9 4.5t16 32.5t19.5 47.5t19.5 49.5t16 39t10 16h116l23 -5q-2 -12 -15.5 -26t-16.5 -19q-7 -10 -18 -44q-2 -15 -6.5 -21t-10.5 -7
t-12.5 1t-12.5 2q0 -2 11 -16q3 -5 -1.5 -17.5t-11.5 -27t-14.5 -27.5t-8.5 -18h-17q-2 -1 1 -17.5t3 -21.5q0 -12 -7 -16.5t-7 -13.5q0 -25 22 -56q19 -27 28.5 -49t9.5 -58q12 0 15.5 1.5t4.5 1t1 -5t4 -16.5q15 -21 12.5 -34t-2.5 -33h25q1 0 -1.5 9t-2.5 13q0 8 5 -2.5
t12.5 -27.5t15.5 -34.5t13 -23.5h-148q-3 0 -8.5 11t-11 24.5t-10 25.5t-6.5 14q-12 20 -20 42.5t-25 47.5q-7 7 -10.5 22.5t-7.5 21.5l-14 -27h-2q-18 0 -16.5 1.5t1.5 -16.5q0 -33 -13.5 -65.5t-23.5 -53.5q-3 -7 -10.5 -11.5t-15 -7.5t-13.5 -5t-6 -3q0 -10 29 -10
q0 -8 -17 -7.5t-25 0.5q-29 0 -58 1t-58 3q9 6 16 23t10 21q17 16 26 35.5t15.5 39t15 37.5t24.5 32q7 5 13.5 18.5t13 29.5t13 32.5t14.5 27.5q1 2 1 9q0 6 -6 19.5t-14 29t-15.5 30.5t-10.5 24q-5 18 -20.5 42.5t-32 51t-29 52t-12.5 45.5zM171 390v13h-9v-13h9zM175 300
q0 -7 5 -7t5 -6q0 -8 -10 -27q-12 -26 -23.5 -49t-11.5 -42q16 0 18 7t4 21q0 -2 5.5 3t12.5 17t13 29.5t6 40.5t-14 23q-10 0 -10 -10z" />
    <glyph glyph-name="Y" unicode="Y" horiz-adv-x="417" 
d="M-22 574h141q0 -11 -11 -50q2 -4 2 -7t7 -1q12 9 19.5 -1.5t7.5 -16.5v-77h11v23q0 -7 5 -18.5t11.5 -23.5t13 -22.5t8.5 -16.5q2 -13 7 -21t11 -19q15 57 40 85q1 13 2 25t3 24q0 -4 7.5 13.5t16.5 40.5t16.5 43t8.5 20h130q-1 -2 -4 -10.5t-7 -19.5t-7 -20.5t-4 -12.5
q-42 -92 -45 -92h-22q-7 0 -5 -3.5t7 -7.5t10.5 -8t5.5 -6q0 -10 -8 -28t-18 -36.5t-19.5 -34.5t-13.5 -22q-16 -25 -31 -56t-15 -44q12 0 13.5 -5.5t1.5 -15.5q0 -14 -5 -22.5t-4 -8.5h-11q-3 0 -3 -6.5v-7.5q10 -6 8 -15t-2 -16h12q1 -21 3 -42t2 -41q0 -10 -2.5 -16.5
t-2.5 -7.5q-29 -2 -59.5 -3.5t-62.5 -1.5q0 10 3 18t3 10q0 15 -5 36t-5 39q0 38 1 40q4 9 4 18q1 34 0 67l4 5q1 1 -4.5 12t-13.5 25.5t-16.5 29t-14.5 23.5q-11 19 -18 36q-5 12 -10.5 26.5t-11.5 31.5q-2 14 -8 29.5t-13.5 30t-14 26t-9.5 17.5q-13 28 -23.5 49.5
t-16.5 40.5z" />
    <glyph glyph-name="Y" unicode="&#xf059;" horiz-adv-x="417" 
d="M-22 574h141q0 -11 -11 -50q2 -4 2 -7t7 -1q12 9 19.5 -1.5t7.5 -16.5v-77h11v23q0 -7 5 -18.5t11.5 -23.5t13 -22.5t8.5 -16.5q2 -13 7 -21t11 -19q15 57 40 85q1 13 2 25t3 24q0 -4 7.5 13.5t16.5 40.5t16.5 43t8.5 20h130q-1 -2 -4 -10.5t-7 -19.5t-7 -20.5t-4 -12.5
q-42 -92 -45 -92h-22q-7 0 -5 -3.5t7 -7.5t10.5 -8t5.5 -6q0 -10 -8 -28t-18 -36.5t-19.5 -34.5t-13.5 -22q-16 -25 -31 -56t-15 -44q12 0 13.5 -5.5t1.5 -15.5q0 -14 -5 -22.5t-4 -8.5h-11q-3 0 -3 -6.5v-7.5q10 -6 8 -15t-2 -16h12q1 -21 3 -42t2 -41q0 -10 -2.5 -16.5
t-2.5 -7.5q-29 -2 -59.5 -3.5t-62.5 -1.5q0 10 3 18t3 10q0 15 -5 36t-5 39q0 38 1 40q4 9 4 18q1 34 0 67l4 5q1 1 -4.5 12t-13.5 25.5t-16.5 29t-14.5 23.5q-11 19 -18 36q-5 12 -10.5 26.5t-11.5 31.5q-2 14 -8 29.5t-13.5 30t-14 26t-9.5 17.5q-13 28 -23.5 49.5
t-16.5 40.5z" />
    <glyph glyph-name="Z" unicode="Z" horiz-adv-x="426" 
d="M13 601l9 4h112v-11q15 0 23 11h40q-4 -2 -9 -7.5l-5 -5.5q0 -10 14 -10q7 0 9.5 5t8.5 5q7 0 9 -5h74v18h92q14 0 14 -26q0 -4 -1 -5q-2 -22 -3.5 -27.5t-0.5 -25.5q0 -10 -5.5 -23.5t-13.5 -27.5t-16.5 -28t-14.5 -25q-3 -9 -9 -12t-11.5 -4.5t-8 -4t2.5 -11.5
q-4 4 -16 4q-5 -5 1 -8t6 -11q0 -14 -13 -33t-14 -28h-9q3 14 12 36t9 28q-6 0 -12 -7t-11.5 -17t-8.5 -20.5t-3 -17.5q0 -10 -4.5 -22.5t-11.5 -26t-15 -26t-14 -21.5q-32 -44 -45 -76q-2 -4 -5 -10.5t-8 -14.5h103q3 0 4 -3t1 -4q-7 -17 -1 -14.5t19 10.5q17 12 39 12.5
t57 0.5h25q5 -12 5 -22q0 -8 -2.5 -13t-2.5 -10v-13q0 -3 1 -11t2.5 -18t3 -20.5t2.5 -16.5l-9 4l-400 8q2 14 0 27q-8 29 -3.5 41t4.5 28q0 9 -2.5 12.5t-2.5 11.5q0 2 8 12.5t17.5 23.5t18 25t10.5 16q8 20 22.5 28.5t17.5 21.5q3 31 14.5 45t21.5 27q23 31 43.5 61.5
t37.5 59.5q13 12 17 16.5t4 25.5h-142v13q-14 14 -27 8q-11 -6 -9 -18h-35q0 13 -2 32t-4 36.5t-3.5 30t-0.5 13.5zM125 100v-38q0 -5 11 -5l6.5 0.5t13.5 2t13 4.5t6 7q0 14 -21 14q-8 0 -11 2.5t-5 5t-4.5 5t-8.5 2.5zM76 48v14h-18q-1 -1 -1 -4q0 -10 19 -10z" />
    <glyph glyph-name="Z" unicode="&#xf05a;" horiz-adv-x="426" 
d="M13 601l9 4h112v-11q15 0 23 11h40q-4 -2 -9 -7.5l-5 -5.5q0 -10 14 -10q7 0 9.5 5t8.5 5q7 0 9 -5h74v18h92q14 0 14 -26q0 -4 -1 -5q-2 -22 -3.5 -27.5t-0.5 -25.5q0 -10 -5.5 -23.5t-13.5 -27.5t-16.5 -28t-14.5 -25q-3 -9 -9 -12t-11.5 -4.5t-8 -4t2.5 -11.5
q-4 4 -16 4q-5 -5 1 -8t6 -11q0 -14 -13 -33t-14 -28h-9q3 14 12 36t9 28q-6 0 -12 -7t-11.5 -17t-8.5 -20.5t-3 -17.5q0 -10 -4.5 -22.5t-11.5 -26t-15 -26t-14 -21.5q-32 -44 -45 -76q-2 -4 -5 -10.5t-8 -14.5h103q3 0 4 -3t1 -4q-7 -17 -1 -14.5t19 10.5q17 12 39 12.5
t57 0.5h25q5 -12 5 -22q0 -8 -2.5 -13t-2.5 -10v-13q0 -3 1 -11t2.5 -18t3 -20.5t2.5 -16.5l-9 4l-400 8q2 14 0 27q-8 29 -3.5 41t4.5 28q0 9 -2.5 12.5t-2.5 11.5q0 2 8 12.5t17.5 23.5t18 25t10.5 16q8 20 22.5 28.5t17.5 21.5q3 31 14.5 45t21.5 27q23 31 43.5 61.5
t37.5 59.5q13 12 17 16.5t4 25.5h-142v13q-14 14 -27 8q-11 -6 -9 -18h-35q0 13 -2 32t-4 36.5t-3.5 30t-0.5 13.5zM125 100v-38q0 -5 11 -5l6.5 0.5t13.5 2t13 4.5t6 7q0 14 -21 14q-8 0 -11 2.5t-5 5t-4.5 5t-8.5 2.5zM76 48v14h-18q-1 -1 -1 -4q0 -10 19 -10z" />
    <glyph glyph-name="bracketleft" unicode="[" horiz-adv-x="300" 
d="M76 629q11 0 17.5 -4.5t9.5 -9.5t4.5 -9.5t3.5 -4.5q14 0 27.5 1.5t26.5 2.5v11h-45v9q78 0 135 -6q9 -17 9 -45q0 -19 -14.5 -24t-31.5 -5.5t-31.5 -1t-14.5 -10.5h-15q-7 0 -7 -5.5t2 -7.5q8 -8 18 -4q-3 -39 0 -77q5 -19 7 -28t2 -23q0 -12 -2 -22.5t-3 -16.5
q2 -9 -6 -13t-8 -15q0 -14 9 -18.5t10 -6.5v-27q0 -9 -2.5 -22t-2.5 -28q0 -6 2.5 -11t2.5 -9q0 -2 -5 -20v-94q0 -5 -2 -9t-2 -9q-2 -31 0 -63q-26 -8 -26 -21h28v-41l87 -9q1 -11 5.5 -25t4.5 -22q0 -10 -7 -18t-3 -7q-31 -2 -65 -3t-71 -1h-48q-4 17 -4 44q0 17 4.5 28.5
t4.5 28.5v29q-6 17 -3 29.5t3 21.5v2q-3 22 -4 34.5t-1 26.5t9.5 33t9.5 41q0 10 -12 8v36l-7 5q-1 16 -2 31.5t-2 31.5q-6 17 -0.5 22.5t5.5 15.5t-2.5 16.5t-2.5 7.5v9q3 10 4 15t1.5 10t0 12.5t-0.5 22.5q0 33 -1 35q-4 23 -5.5 39.5l-2.5 27.5q1 9 2.5 14.5t1.5 10.5
t-2 9t-2 6q0 14 4.5 32t4.5 37zM152 336v144h-9v-144h9z" />
    <glyph glyph-name="bracketleft" unicode="&#xf05b;" horiz-adv-x="300" 
d="M76 629q11 0 17.5 -4.5t9.5 -9.5t4.5 -9.5t3.5 -4.5q14 0 27.5 1.5t26.5 2.5v11h-45v9q78 0 135 -6q9 -17 9 -45q0 -19 -14.5 -24t-31.5 -5.5t-31.5 -1t-14.5 -10.5h-15q-7 0 -7 -5.5t2 -7.5q8 -8 18 -4q-3 -39 0 -77q5 -19 7 -28t2 -23q0 -12 -2 -22.5t-3 -16.5
q2 -9 -6 -13t-8 -15q0 -14 9 -18.5t10 -6.5v-27q0 -9 -2.5 -22t-2.5 -28q0 -6 2.5 -11t2.5 -9q0 -2 -5 -20v-94q0 -5 -2 -9t-2 -9q-2 -31 0 -63q-26 -8 -26 -21h28v-41l87 -9q1 -11 5.5 -25t4.5 -22q0 -10 -7 -18t-3 -7q-31 -2 -65 -3t-71 -1h-48q-4 17 -4 44q0 17 4.5 28.5
t4.5 28.5v29q-6 17 -3 29.5t3 21.5v2q-3 22 -4 34.5t-1 26.5t9.5 33t9.5 41q0 10 -12 8v36l-7 5q-1 16 -2 31.5t-2 31.5q-6 17 -0.5 22.5t5.5 15.5t-2.5 16.5t-2.5 7.5v9q3 10 4 15t1.5 10t0 12.5t-0.5 22.5q0 33 -1 35q-4 23 -5.5 39.5l-2.5 27.5q1 9 2.5 14.5t1.5 10.5
t-2 9t-2 6q0 14 4.5 32t4.5 37zM152 336v144h-9v-144h9z" />
    <glyph glyph-name="backslash" unicode="\" horiz-adv-x="287" 
d="M-17 605l62 -4q5 0 10.5 -8.5t10.5 -21t8 -27t3 -26.5q0 -16 -4 -23t-4 -17q21 0 27 -22t12 -53q4 -19 6.5 -30t3.5 -21t1.5 -21.5t0.5 -31.5q14 0 11 15l18 -9q3 -37 8 -54q10 -20 10 -30q0 -1 -1 -2q-3 -10 -4.5 -19t-1 -14t4 -4.5t10.5 10.5q5 9 5.5 7t-1 -8l-3 -12
t-1.5 -4q0 -12 9.5 -33.5t13.5 -25.5q16 -11 22.5 -28t13.5 -35q5 -11 4 -28t0 -25q2 -7 11 -24t12 -38q0 -19 10.5 -44.5t20.5 -50.5q2 -6 -3.5 -8.5t-14 -3.5t-18 -1h-15.5q-1 0 -8.5 13t-15 30.5t-14 34t-6.5 23.5q0 5 8.5 11t8.5 12q-26 -1 -27.5 13.5t-6.5 36.5
q-3 8 -13 25t-10 31q0 10 8 17t8 11l-7.5 -2t-12.5 -2q-3 0 -10 21t-16 48.5t-18 55.5t-14 42q-13 29 -17.5 61t-18.5 46l-27 95q3 13 -9 36q-18 22 -21 36t-2 26t-0.5 24t-16.5 30z" />
    <glyph glyph-name="backslash" unicode="&#xf05c;" horiz-adv-x="287" 
d="M-17 605l62 -4q5 0 10.5 -8.5t10.5 -21t8 -27t3 -26.5q0 -16 -4 -23t-4 -17q21 0 27 -22t12 -53q4 -19 6.5 -30t3.5 -21t1.5 -21.5t0.5 -31.5q14 0 11 15l18 -9q3 -37 8 -54q10 -20 10 -30q0 -1 -1 -2q-3 -10 -4.5 -19t-1 -14t4 -4.5t10.5 10.5q5 9 5.5 7t-1 -8l-3 -12
t-1.5 -4q0 -12 9.5 -33.5t13.5 -25.5q16 -11 22.5 -28t13.5 -35q5 -11 4 -28t0 -25q2 -7 11 -24t12 -38q0 -19 10.5 -44.5t20.5 -50.5q2 -6 -3.5 -8.5t-14 -3.5t-18 -1h-15.5q-1 0 -8.5 13t-15 30.5t-14 34t-6.5 23.5q0 5 8.5 11t8.5 12q-26 -1 -27.5 13.5t-6.5 36.5
q-3 8 -13 25t-10 31q0 10 8 17t8 11l-7.5 -2t-12.5 -2q-3 0 -10 21t-16 48.5t-18 55.5t-14 42q-13 29 -17.5 61t-18.5 46l-27 95q3 13 -9 36q-18 22 -21 36t-2 26t-0.5 24t-16.5 30z" />
    <glyph glyph-name="bracketright" unicode="]" horiz-adv-x="305" 
d="M30 641h-4q13 0 32 -7t27 -7q26 0 51.5 7t60.5 7q20 -1 18.5 -17t-1.5 -32q4 -19 4.5 -27.5t0.5 -22.5t-2.5 -19.5t-2.5 -13.5q0 -11 2.5 -18t2.5 -14q0 -19 -12 -37t-12 -28q0 -4 1 -4q14 -2 18 -16.5t4 -34t-2 -40.5t-2 -35v-4q9 -56 9 -88q0 -15 -4.5 -23.5
t-4.5 -10.5q0 -24 4.5 -45t4.5 -39q0 -23 -23 -28q-13 -20 -11 -38t2 -41h5q1 7 1.5 15t2.5 16q6 21 12 27.5t6 -10.5q0 -6 -4 -9v-138h-18q-52 -2 -84 -3.5t-60 -1.5h-18l-4 90l45 -4q4 -10 23 -10q6 0 6 7.5t7 7.5q6 0 5.5 -7.5t7.5 -7.5q10 0 10 22q0 5 -11.5 13
t-11.5 21q0 60 9 105v3q0 5 -9 20q8 15 9 29t-1 28.5t-5 31t-3 36.5q0 12 9 18v72q0 5 -2.5 9.5t-2.5 8.5q0 10 2.5 15.5t2.5 13.5v7q-2 20 -3.5 35.5t-1.5 27.5v40q5 8 5 40v18l-5 5h-86q1 0 2 6t2 14t1.5 15.5t0.5 9.5q0 4 -2.5 14.5t-2.5 25.5zM183 569v9h-9v-9h9z
M185 346q22 0 22 39h-11q-2 0 -6.5 -13.5t-4.5 -25.5zM168 288q16 0 16 35h-10q-2 0 -4 -13t-2 -22zM160 246v-9q0 -13 2 -22t3 -9h10v13.5t-1 13.5q-2 14 -9 14q-4 0 -5 -1z" />
    <glyph glyph-name="bracketright" unicode="&#xf05d;" horiz-adv-x="305" 
d="M30 641h-4q13 0 32 -7t27 -7q26 0 51.5 7t60.5 7q20 -1 18.5 -17t-1.5 -32q4 -19 4.5 -27.5t0.5 -22.5t-2.5 -19.5t-2.5 -13.5q0 -11 2.5 -18t2.5 -14q0 -19 -12 -37t-12 -28q0 -4 1 -4q14 -2 18 -16.5t4 -34t-2 -40.5t-2 -35v-4q9 -56 9 -88q0 -15 -4.5 -23.5
t-4.5 -10.5q0 -24 4.5 -45t4.5 -39q0 -23 -23 -28q-13 -20 -11 -38t2 -41h5q1 7 1.5 15t2.5 16q6 21 12 27.5t6 -10.5q0 -6 -4 -9v-138h-18q-52 -2 -84 -3.5t-60 -1.5h-18l-4 90l45 -4q4 -10 23 -10q6 0 6 7.5t7 7.5q6 0 5.5 -7.5t7.5 -7.5q10 0 10 22q0 5 -11.5 13
t-11.5 21q0 60 9 105v3q0 5 -9 20q8 15 9 29t-1 28.5t-5 31t-3 36.5q0 12 9 18v72q0 5 -2.5 9.5t-2.5 8.5q0 10 2.5 15.5t2.5 13.5v7q-2 20 -3.5 35.5t-1.5 27.5v40q5 8 5 40v18l-5 5h-86q1 0 2 6t2 14t1.5 15.5t0.5 9.5q0 4 -2.5 14.5t-2.5 25.5zM183 569v9h-9v-9h9z
M185 346q22 0 22 39h-11q-2 0 -6.5 -13.5t-4.5 -25.5zM168 288q16 0 16 35h-10q-2 0 -4 -13t-2 -22zM160 246v-9q0 -13 2 -22t3 -9h10v13.5t-1 13.5q-2 14 -9 14q-4 0 -5 -1z" />
    <glyph glyph-name="asciicircum" unicode="^" horiz-adv-x="332" 
d="M75 637q13 1 25 2t25 2q4 1 18.5 1h39.5q14 0 25.5 1.5t19.5 -1t12.5 -12t4.5 -32.5q18 0 19 25q20 -29 28 -57t21 -46q-20 -5 -51 -5q-16 0 -28.5 6t-22 14.5t-16.5 16.5t-12 13q-12 10 -22 22h-5l-72 -71l-71 4q4 15 13 28t18 22.5t16 15.5l7 6q0 6 -5 12.5t-5 12.5
q0 5 18 20zM107 632q-1 -1 -1 -4q0 -14 9 -14q10 0 10 9q0 10 -12 10q-5 0 -6 -1zM214 605v-6q0 -21 11 -21q12 0 12 10q0 18 -18 18q-4 0 -5 -1z" />
    <glyph glyph-name="asciicircum" unicode="&#xf05e;" horiz-adv-x="332" 
d="M75 637q13 1 25 2t25 2q4 1 18.5 1h39.5q14 0 25.5 1.5t19.5 -1t12.5 -12t4.5 -32.5q18 0 19 25q20 -29 28 -57t21 -46q-20 -5 -51 -5q-16 0 -28.5 6t-22 14.5t-16.5 16.5t-12 13q-12 10 -22 22h-5l-72 -71l-71 4q4 15 13 28t18 22.5t16 15.5l7 6q0 6 -5 12.5t-5 12.5
q0 5 18 20zM107 632q-1 -1 -1 -4q0 -14 9 -14q10 0 10 9q0 10 -12 10q-5 0 -6 -1zM214 605v-6q0 -21 11 -21q12 0 12 10q0 18 -18 18q-4 0 -5 -1z" />
    <glyph glyph-name="underscore" unicode="_" horiz-adv-x="323" 
d="M247 -130q11 0 30 5t35 5q14 0 15 -10.5t2 -10.5h-23v-13h26q-4 -15 -4 -30q0 -9 4 -13l-161 5q-5 9 -23 9q-9 0 -8 -9h-153q-4 0 -4 22q0 36 22 41t50 4q7 0 7 -5t8 -5q12 0 16 10h54l4 -2.5t11 -2.5q14 0 16.5 2.5t13.5 2.5q9 0 10.5 -2.5t9.5 -2.5t9.5 2.5t10.5 2.5
q11 0 11 -2.5t11 -2.5z" />
    <glyph glyph-name="underscore" unicode="&#xf05f;" horiz-adv-x="323" 
d="M247 -130q11 0 30 5t35 5q14 0 15 -10.5t2 -10.5h-23v-13h26q-4 -15 -4 -30q0 -9 4 -13l-161 5q-5 9 -23 9q-9 0 -8 -9h-153q-4 0 -4 22q0 36 22 41t50 4q7 0 7 -5t8 -5q12 0 16 10h54l4 -2.5t11 -2.5q14 0 16.5 2.5t13.5 2.5q9 0 10.5 -2.5t9.5 -2.5t9.5 2.5t10.5 2.5
q11 0 11 -2.5t11 -2.5z" />
    <glyph glyph-name="grave" unicode="`" horiz-adv-x="188" 
d="M-22 632h103q-7 -14 -4 -25t13 3q3 3 11 -10.5t16 -31t14.5 -33t7.5 -15.5h-44v16t-1 15q-2 23 -4 23h-12v-40q-14 -16 -24 -14t-18 13t-14.5 26t-12.5 24q-12 30 -31 49zM63 596v9h-14v-9h14z" />
    <glyph glyph-name="grave" unicode="&#xf060;" horiz-adv-x="188" 
d="M-22 632h103q-7 -14 -4 -25t13 3q3 3 11 -10.5t16 -31t14.5 -33t7.5 -15.5h-44v16t-1 15q-2 23 -4 23h-12v-40q-14 -16 -24 -14t-18 13t-14.5 26t-12.5 24q-12 30 -31 49zM63 596v9h-14v-9h14z" />
    <glyph glyph-name="a" unicode="a" horiz-adv-x="408" 
d="M152 426q10 4 18 -5q-12 -12 -6 -12.5t17 3t22 9t8 5.5q18 0 41.5 -4t45.5 -14.5t39 -27.5t21 -44q6 -19 12 -34.5t6 -23.5q0 -15 -11 -32v-107h-16v-18q-2 -35 -3 -55t-1 -40q8 0 11.5 9.5t5 22.5t1.5 27v22q9 -13 9 -22q0 -10 -2.5 -19.5t-2.5 -14.5q0 -34 9.5 -51.5
t9.5 -30.5h-109q-2 7 -6.5 21t-8.5 14h-3q-5 -9 -15.5 -18.5t-23 -17t-24.5 -12.5t-19 -5q-17 0 -35 1.5t-35 3.5q-13 4 -23.5 10.5t-17.5 7.5q-44 35 -44 106q0 1 1 8.5t2.5 17.5t2.5 20.5t2 16.5l45 49q6 6 25 10.5t38 7.5q10 2 24 10t21 8h54q5 0 11.5 19.5t6.5 33.5
q0 23 -11.5 41.5t-35.5 18.5q-32 0 -43 -32q-6 -14 -9.5 -22t-7 -12.5t-9 -5.5t-17.5 -1q-22 0 -24 1q-55 2 -59 4l-4 5q-9 10 4 37.5t36 56.5q27 33 77 54zM340 206v18h-9v-18h9zM259 174q-5 -2 -23.5 -7t-39 -12t-37 -17t-16.5 -22v-58q0 -18 33 -18q8 0 11 -2.5t7 -2.5
q2 0 11 5.5t19 13.5t18 16.5t8 14.5q0 -3 1.5 10t4 30t3.5 32t0 17zM102 130v9h-9v-9h9zM66 85q0 -7 5 -9l9 -45h9q-1 15 6.5 23.5t7.5 17.5q0 10 -14 8v49q-6 0 -14.5 -16t-8.5 -28z" />
    <glyph glyph-name="a" unicode="&#xf061;" horiz-adv-x="408" 
d="M152 426q10 4 18 -5q-12 -12 -6 -12.5t17 3t22 9t8 5.5q18 0 41.5 -4t45.5 -14.5t39 -27.5t21 -44q6 -19 12 -34.5t6 -23.5q0 -15 -11 -32v-107h-16v-18q-2 -35 -3 -55t-1 -40q8 0 11.5 9.5t5 22.5t1.5 27v22q9 -13 9 -22q0 -10 -2.5 -19.5t-2.5 -14.5q0 -34 9.5 -51.5
t9.5 -30.5h-109q-2 7 -6.5 21t-8.5 14h-3q-5 -9 -15.5 -18.5t-23 -17t-24.5 -12.5t-19 -5q-17 0 -35 1.5t-35 3.5q-13 4 -23.5 10.5t-17.5 7.5q-44 35 -44 106q0 1 1 8.5t2.5 17.5t2.5 20.5t2 16.5l45 49q6 6 25 10.5t38 7.5q10 2 24 10t21 8h54q5 0 11.5 19.5t6.5 33.5
q0 23 -11.5 41.5t-35.5 18.5q-32 0 -43 -32q-6 -14 -9.5 -22t-7 -12.5t-9 -5.5t-17.5 -1q-22 0 -24 1q-55 2 -59 4l-4 5q-9 10 4 37.5t36 56.5q27 33 77 54zM340 206v18h-9v-18h9zM259 174q-5 -2 -23.5 -7t-39 -12t-37 -17t-16.5 -22v-58q0 -18 33 -18q8 0 11 -2.5t7 -2.5
q2 0 11 5.5t19 13.5t18 16.5t8 14.5q0 -3 1.5 10t4 30t3.5 32t0 17zM102 130v9h-9v-9h9zM66 85q0 -7 5 -9l9 -45h9q-1 15 6.5 23.5t7.5 17.5q0 10 -14 8v49q-6 0 -14.5 -16t-8.5 -28z" />
    <glyph glyph-name="b" unicode="b" 
d="M32 659q16 -2 38.5 -1.5t37.5 -2.5q11 -3 11 -9v-41h13v27q0 14 21 9q4 -1 4 -8q0 -9 -1 -21.5t-3 -28.5q-1 -11 -4 -14.5t-6.5 -4.5t-6 -2t-2.5 -6q0 -11 14 -9v-99q8 17 17.5 26t20.5 13.5t22 7.5t21 7h67l36 -18q5 -15 23 -22q11 -2 19 -20.5t12 -24.5
q8 -22 15.5 -46.5t11.5 -56.5q1 -8 -5 -14v-126q0 -11 -7 -29.5t-17 -36.5t-20.5 -32.5t-17.5 -17.5q-7 -4 -20.5 -9.5t-33.5 -13.5q-11 -4 -50 -4q-37 0 -56.5 22.5t-41.5 44.5q2 -23 -3.5 -34t-16.5 -15.5t-27 -4.5h-34q-23 0 -25 10.5t-2 32.5q0 14 2 18t2 11
q-2 9 -2.5 15.5t-1.5 11.5q-2 19 -3 42t-1 51q0 20 1 38t3 35v4v5q-2 26 -3 45t-1 32q0 22 4.5 44.5t4.5 36.5q0 9 -2.5 13t-2.5 12v10q2 19 3.5 31t1.5 23q0 7 -2 15l-3 12q2 20 -2 34t-2 33zM143 257q0 -19 7.5 -45.5t11.5 -59.5q4 -14 25 -20.5t42 -6.5q16 0 28 11.5
t19.5 27.5t11.5 33t4 27q0 9 -0.5 12.5t-4.5 14.5q0 1 1.5 13.5t3.5 24.5t4.5 17.5t4.5 -6.5q0 -3 1 -15.5t3.5 -26.5t8 -25t15.5 -11q0 5 -1.5 24.5t-5 40.5t-9 37.5t-12.5 16.5q-6 0 -9 -0.5t-4.5 2.5t-2.5 11.5t-2 26.5q-31 36 -77 36q-19 0 -30 -10.5t-17 -26.5t-8 -34
t-3 -32q-2 -16 -3.5 -30t-1.5 -27zM112 285v20h-13q-1 -2 -1 -7q0 -13 14 -13zM112 183v36h-9v-36h9zM332 166v17h-9v-17h9z" />
    <glyph glyph-name="b" unicode="&#xf062;" 
d="M32 659q16 -2 38.5 -1.5t37.5 -2.5q11 -3 11 -9v-41h13v27q0 14 21 9q4 -1 4 -8q0 -9 -1 -21.5t-3 -28.5q-1 -11 -4 -14.5t-6.5 -4.5t-6 -2t-2.5 -6q0 -11 14 -9v-99q8 17 17.5 26t20.5 13.5t22 7.5t21 7h67l36 -18q5 -15 23 -22q11 -2 19 -20.5t12 -24.5
q8 -22 15.5 -46.5t11.5 -56.5q1 -8 -5 -14v-126q0 -11 -7 -29.5t-17 -36.5t-20.5 -32.5t-17.5 -17.5q-7 -4 -20.5 -9.5t-33.5 -13.5q-11 -4 -50 -4q-37 0 -56.5 22.5t-41.5 44.5q2 -23 -3.5 -34t-16.5 -15.5t-27 -4.5h-34q-23 0 -25 10.5t-2 32.5q0 14 2 18t2 11
q-2 9 -2.5 15.5t-1.5 11.5q-2 19 -3 42t-1 51q0 20 1 38t3 35v4v5q-2 26 -3 45t-1 32q0 22 4.5 44.5t4.5 36.5q0 9 -2.5 13t-2.5 12v10q2 19 3.5 31t1.5 23q0 7 -2 15l-3 12q2 20 -2 34t-2 33zM143 257q0 -19 7.5 -45.5t11.5 -59.5q4 -14 25 -20.5t42 -6.5q16 0 28 11.5
t19.5 27.5t11.5 33t4 27q0 9 -0.5 12.5t-4.5 14.5q0 1 1.5 13.5t3.5 24.5t4.5 17.5t4.5 -6.5q0 -3 1 -15.5t3.5 -26.5t8 -25t15.5 -11q0 5 -1.5 24.5t-5 40.5t-9 37.5t-12.5 16.5q-6 0 -9 -0.5t-4.5 2.5t-2.5 11.5t-2 26.5q-31 36 -77 36q-19 0 -30 -10.5t-17 -26.5t-8 -34
t-3 -32q-2 -16 -3.5 -30t-1.5 -27zM112 285v20h-13q-1 -2 -1 -7q0 -13 14 -13zM112 183v36h-9v-36h9zM332 166v17h-9v-17h9z" />
    <glyph glyph-name="c" unicode="c" horiz-adv-x="399" 
d="M39 345l63 63q16 2 36 7.5t49 14.5q20 5 33 5q11 0 22 -1.5t22 -3.5q8 -2 11 -12.5t7 -10.5q9 0 9 10q1 -1 3.5 -2t5.5 -3q5 -4 13 -8.5t18 -9.5q8 -4 15.5 -20t13 -37t9 -42t3.5 -35h-90v24q-13 0 -18 -20q-4 8 -5.5 21t-6 25.5t-14.5 21.5t-33 9q-5 -5 -11 -5h-19
t-14 -13q-2 -17 -17 -24t-15 -12q0 -9 9 -14q-2 -17 -3.5 -35.5t-1.5 -38.5v-12t1 -13q7 -4 3 -12t-4 -12q0 -11 4.5 -27t5.5 -20q5 -29 26 -44t34 -15q26 0 36 15t14 32.5t7.5 32.5t16.5 15q8 0 0.5 -4t-7.5 -13q13 0 21 2t14.5 4l13 4t17.5 2q36 0 44 -4q1 -3 1 -14
q0 -15 -6 -25.5t-8 -19.5q-5 -36 -23.5 -49.5t-43.5 -29.5q-18 -16 -37 -26.5t-33 -10.5q-48 0 -75 11t-57 26q-22 8 -28 19t-13 20q-24 29 -34 65.5t-10 69.5q0 8 1.5 15t2.5 11q1 44 5.5 73.5t7.5 52.5q4 22 9 27zM92 179h10q2 0 3.5 10.5t3 24t2.5 25.5t1 16h-10
q-1 0 -4 -18q-6 -30 -6 -58zM89 151v-52q14 0 14 26t-14 26z" />
    <glyph glyph-name="c" unicode="&#xf063;" horiz-adv-x="399" 
d="M39 345l63 63q16 2 36 7.5t49 14.5q20 5 33 5q11 0 22 -1.5t22 -3.5q8 -2 11 -12.5t7 -10.5q9 0 9 10q1 -1 3.5 -2t5.5 -3q5 -4 13 -8.5t18 -9.5q8 -4 15.5 -20t13 -37t9 -42t3.5 -35h-90v24q-13 0 -18 -20q-4 8 -5.5 21t-6 25.5t-14.5 21.5t-33 9q-5 -5 -11 -5h-19
t-14 -13q-2 -17 -17 -24t-15 -12q0 -9 9 -14q-2 -17 -3.5 -35.5t-1.5 -38.5v-12t1 -13q7 -4 3 -12t-4 -12q0 -11 4.5 -27t5.5 -20q5 -29 26 -44t34 -15q26 0 36 15t14 32.5t7.5 32.5t16.5 15q8 0 0.5 -4t-7.5 -13q13 0 21 2t14.5 4l13 4t17.5 2q36 0 44 -4q1 -3 1 -14
q0 -15 -6 -25.5t-8 -19.5q-5 -36 -23.5 -49.5t-43.5 -29.5q-18 -16 -37 -26.5t-33 -10.5q-48 0 -75 11t-57 26q-22 8 -28 19t-13 20q-24 29 -34 65.5t-10 69.5q0 8 1.5 15t2.5 11q1 44 5.5 73.5t7.5 52.5q4 22 9 27zM92 179h10q2 0 3.5 10.5t3 24t2.5 25.5t1 16h-10
q-1 0 -4 -18q-6 -30 -6 -58zM89 151v-52q14 0 14 26t-14 26z" />
    <glyph glyph-name="d" unicode="d" 
d="M277 560v73h13.5t13.5 -1q22 -1 45 -2t45 -2v-5v-4q-8 -37 -6 -58t2 -46q0 -16 -2.5 -24t-2.5 -16q0 -5 4.5 -21.5t4.5 -23.5q0 -13 -4.5 -28.5t-4.5 -22.5v-3q2 -19 3.5 -33t1.5 -24q0 -26 -1 -28q-2 -54 -4 -58l-23 -27v-11q16 0 27 15q5 0 5 -17v-14q-5 -17 -5 -36.5
v-28.5q0 -16 3.5 -38t3.5 -50h-110q-1 10 -1.5 20.5t-2.5 20.5q-3 10 -9 -2.5t-18 -24.5q-13 -26 -27 -26.5t-36 -0.5q-19 0 -25 -2.5t-20 -2.5q-43 0 -85 54q-12 26 -28.5 52.5t-16.5 43.5q0 14 2.5 23t2.5 16q0 24 -4.5 42t-4.5 28v6q7 30 9 47.5t4 42.5q9 4 13 31
q3 16 8.5 22.5t12 9.5l13 6t11.5 12q10 14 23.5 20.5t27.5 9.5t27.5 3.5t24.5 2.5q1 1 15.5 -1.5t31 -7.5t30 -12.5t13.5 -17.5q0 3 -2 14t-2 27v2q12 14 6 25.5t-6 19.5q3 6 6 11t3 9q0 3 -5 11zM134 305q-1 -19 -2 -38.5t-3 -38.5q0 -6 -4 -13q-3 -13 -6 -29t-3.5 -26
t3.5 -8.5t15 22.5q4 9 9.5 -4.5t8.5 -21.5q6 -23 22 -38.5t38 -15.5q21 0 32 17t24 28q4 36 9 65.5t5 71.5q0 21 -5 42t-15 38t-23.5 28t-31.5 11q-12 0 -23.5 -11.5t-21 -26.5t-17 -30t-11.5 -22zM318 390q-1 -2 -1 -9v-9t1 -17t3 -16.5t6 -7.5q18 0 18 19q0 6 -3 12t-3 17
q35 0 27 8.5t-48 2.5zM107 298q0 -17 2 -27.5l2 -10.5h11v58q0 22 -7.5 20t-7.5 -40zM89 109v21h-14v-5q0 -16 14 -16z" />
    <glyph glyph-name="d" unicode="&#xf064;" 
d="M277 560v73h13.5t13.5 -1q22 -1 45 -2t45 -2v-5v-4q-8 -37 -6 -58t2 -46q0 -16 -2.5 -24t-2.5 -16q0 -5 4.5 -21.5t4.5 -23.5q0 -13 -4.5 -28.5t-4.5 -22.5v-3q2 -19 3.5 -33t1.5 -24q0 -26 -1 -28q-2 -54 -4 -58l-23 -27v-11q16 0 27 15q5 0 5 -17v-14q-5 -17 -5 -36.5
v-28.5q0 -16 3.5 -38t3.5 -50h-110q-1 10 -1.5 20.5t-2.5 20.5q-3 10 -9 -2.5t-18 -24.5q-13 -26 -27 -26.5t-36 -0.5q-19 0 -25 -2.5t-20 -2.5q-43 0 -85 54q-12 26 -28.5 52.5t-16.5 43.5q0 14 2.5 23t2.5 16q0 24 -4.5 42t-4.5 28v6q7 30 9 47.5t4 42.5q9 4 13 31
q3 16 8.5 22.5t12 9.5l13 6t11.5 12q10 14 23.5 20.5t27.5 9.5t27.5 3.5t24.5 2.5q1 1 15.5 -1.5t31 -7.5t30 -12.5t13.5 -17.5q0 3 -2 14t-2 27v2q12 14 6 25.5t-6 19.5q3 6 6 11t3 9q0 3 -5 11zM134 305q-1 -19 -2 -38.5t-3 -38.5q0 -6 -4 -13q-3 -13 -6 -29t-3.5 -26
t3.5 -8.5t15 22.5q4 9 9.5 -4.5t8.5 -21.5q6 -23 22 -38.5t38 -15.5q21 0 32 17t24 28q4 36 9 65.5t5 71.5q0 21 -5 42t-15 38t-23.5 28t-31.5 11q-12 0 -23.5 -11.5t-21 -26.5t-17 -30t-11.5 -22zM318 390q-1 -2 -1 -9v-9t1 -17t3 -16.5t6 -7.5q18 0 18 19q0 6 -3 12t-3 17
q35 0 27 8.5t-48 2.5zM107 298q0 -17 2 -27.5l2 -10.5h11v58q0 22 -7.5 20t-7.5 -40zM89 109v21h-14v-5q0 -16 14 -16z" />
    <glyph glyph-name="e" unicode="e" horiz-adv-x="421" 
d="M179 444q5 -5 24 -5q18 0 43 5l4 -9q8 1 19 -2.5t22.5 -8.5t21 -9.5t14.5 -6.5v-24q11 0 21.5 -10t19 -22.5t14.5 -25t7 -17.5q-1 -31 0 -65t5 -70l-56 -2l-56 -2h-8q-18 0 -34.5 7t-29.5 7q-14 0 -18 -16h-77q9 0 15.5 -18.5t15 -41t20 -41t30.5 -18.5q56 0 72 40
q9 20 19 19.5t26 -0.5q24 0 43 -1.5t33 -3.5l-9 -18q-10 -17 -17 -30.5t-14.5 -24t-16.5 -20t-23 -18.5q-8 -3 -13.5 -5.5t-9.5 -3.5q-14 -16 -25 -12.5t-20 3.5q-1 0 -13 -5t-14 -4q5 -2 -14 1t-43.5 9t-46 13.5t-21.5 13.5q0 7 3.5 13t3.5 9q-3 5 -7 2q-12 -16 -23 -9.5
t-20 24t-14.5 40t-5.5 38.5q0 13 2.5 13t2.5 9q0 4 -9 18t-9 45q0 26 4 44.5t4 38.5q0 5 5.5 22t13.5 35t18.5 32t19.5 14q3 0 4 -5t6 -5q10 0 10 12q0 1 -2.5 5.5t-2.5 8.5q0 1 13.5 6l13.5 5q11 8 30 12.5t29 14.5zM170 341l-34 -54v18h-14q0 -6 1 -16t2.5 -19.5t4 -16.5
t6.5 -7h2q34 1 67.5 2.5t67.5 2.5q4 8 4 22q0 6 4 15.5t3 11.5h-16q-8 25 -17.5 37.5t-33.5 12.5q-32 0 -47 -9zM318 291v14h-9v-14h9zM303 216q13 0 14.5 11t-1.5 18t-8 3.5t-5 -32.5z" />
    <glyph glyph-name="e" unicode="&#xf065;" horiz-adv-x="421" 
d="M179 444q5 -5 24 -5q18 0 43 5l4 -9q8 1 19 -2.5t22.5 -8.5t21 -9.5t14.5 -6.5v-24q11 0 21.5 -10t19 -22.5t14.5 -25t7 -17.5q-1 -31 0 -65t5 -70l-56 -2l-56 -2h-8q-18 0 -34.5 7t-29.5 7q-14 0 -18 -16h-77q9 0 15.5 -18.5t15 -41t20 -41t30.5 -18.5q56 0 72 40
q9 20 19 19.5t26 -0.5q24 0 43 -1.5t33 -3.5l-9 -18q-10 -17 -17 -30.5t-14.5 -24t-16.5 -20t-23 -18.5q-8 -3 -13.5 -5.5t-9.5 -3.5q-14 -16 -25 -12.5t-20 3.5q-1 0 -13 -5t-14 -4q5 -2 -14 1t-43.5 9t-46 13.5t-21.5 13.5q0 7 3.5 13t3.5 9q-3 5 -7 2q-12 -16 -23 -9.5
t-20 24t-14.5 40t-5.5 38.5q0 13 2.5 13t2.5 9q0 4 -9 18t-9 45q0 26 4 44.5t4 38.5q0 5 5.5 22t13.5 35t18.5 32t19.5 14q3 0 4 -5t6 -5q10 0 10 12q0 1 -2.5 5.5t-2.5 8.5q0 1 13.5 6l13.5 5q11 8 30 12.5t29 14.5zM170 341l-34 -54v18h-14q0 -6 1 -16t2.5 -19.5t4 -16.5
t6.5 -7h2q34 1 67.5 2.5t67.5 2.5q4 8 4 22q0 6 4 15.5t3 11.5h-16q-8 25 -17.5 37.5t-33.5 12.5q-32 0 -47 -9zM318 291v14h-9v-14h9zM303 216q13 0 14.5 11t-1.5 18t-8 3.5t-5 -32.5z" />
    <glyph glyph-name="f" unicode="f" horiz-adv-x="251" 
d="M162 605q10 0 21 4t15 5h4q14 0 25.5 -4t24.5 -5q-2 -13 0 -27q4 -15 4 -27q0 -14 -13 -40q-5 5 -25 5q-52 0 -52 -50q0 -11 4 -16t8 -8t8 -7t4 -12q24 0 26 12h31q5 0 5 -11q0 -15 -2.5 -27.5t-2.5 -13.5q0 -26 5 -34q-7 0 -20.5 -1l-27 -2t-23.5 -2.5t-10 -2.5v-54
l-9 -5v-67h18q2 -14 -8.5 -16.5t-10.5 -10.5q0 -10 10 -9v-130l9 -36l-9 -13q-1 -4 -25 -4h-49h-38q-5 25 -5 49.5t9 48.5v157q0 14 -2 22.5t-2 11.5q0 4 4 11v53h-63q1 0 -3.5 16t-4.5 43t8 27h63q-9 14 -6.5 27.5t2.5 24.5q0 3 -2.5 5.5t-2.5 5.5q1 38 23.5 64t39.5 25
q4 0 10 11.5t15 11.5q6 0 11 -2.5t9 -2.5zM95 516v8h-14v-8h14zM122 408v9h-9v-9h9zM86 206v18h-9v-18h9zM86 130v67h-9q-2 -22 -3.5 -42.5t-1.5 -42.5q14 0 14 18z" />
    <glyph glyph-name="f" unicode="&#xf066;" horiz-adv-x="251" 
d="M162 605q10 0 21 4t15 5h4q14 0 25.5 -4t24.5 -5q-2 -13 0 -27q4 -15 4 -27q0 -14 -13 -40q-5 5 -25 5q-52 0 -52 -50q0 -11 4 -16t8 -8t8 -7t4 -12q24 0 26 12h31q5 0 5 -11q0 -15 -2.5 -27.5t-2.5 -13.5q0 -26 5 -34q-7 0 -20.5 -1l-27 -2t-23.5 -2.5t-10 -2.5v-54
l-9 -5v-67h18q2 -14 -8.5 -16.5t-10.5 -10.5q0 -10 10 -9v-130l9 -36l-9 -13q-1 -4 -25 -4h-49h-38q-5 25 -5 49.5t9 48.5v157q0 14 -2 22.5t-2 11.5q0 4 4 11v53h-63q1 0 -3.5 16t-4.5 43t8 27h63q-9 14 -6.5 27.5t2.5 24.5q0 3 -2.5 5.5t-2.5 5.5q1 38 23.5 64t39.5 25
q4 0 10 11.5t15 11.5q6 0 11 -2.5t9 -2.5zM95 516v8h-14v-8h14zM122 408v9h-9v-9h9zM86 206v18h-9v-18h9zM86 130v67h-9q-2 -22 -3.5 -42.5t-1.5 -42.5q14 0 14 18z" />
    <glyph glyph-name="g" unicode="g" horiz-adv-x="439" 
d="M153 390h8q15 36 33 36q58 0 88 -63q0 2 1.5 12t4.5 21.5t7 11.5q23 -1 45 -2.5t45 -2.5q14 -23 14 -40q0 -13 -2.5 -21t-2.5 -17q0 -1 2.5 -8t2.5 -19q0 -9 -5 -16t-5 -13q0 -25 5 -51.5t5 -55.5q0 -9 -1 -10q-7 -9 -7.5 -18t1.5 -19t4.5 -22t2.5 -28q0 -22 -5 -30v-84
q-8 -9 -11 -21t-7 -24q-2 -20 -10 -36.5t-21 -35.5q-4 -4 -15.5 -11t-25.5 -13.5t-27.5 -11t-21.5 -4.5q-7 0 -7 19q-11 0 -21 -12t-12 -12q-12 0 -28.5 2t-34.5 8q-30 9 -53 25.5t-28 18.5l-32 63v2q1 23 26 24t53 1h29q4 -1 5 -4q20 -60 71 -45l5 -5q6 0 15 10t17.5 23
t14.5 25.5t7 18.5q0 2 -2.5 16.5t-4.5 31.5t-2 18q-23 -25 -39.5 -31t-41.5 -8q-10 -9 -18 -9q-13 9 -28.5 12t-29.5 6q-10 -2 -16 0.5t-10.5 8t-9.5 12.5t-14 13q-19 10 -16.5 18t-1.5 18q-20 32 -23 55t-3 55q0 34 2 68t6 69q7 49 44.5 81t82.5 32q0 -8 -2 -14.5t-2 -17.5
zM143 269l-23 -9v-16h23q-9 -17 -11 -28.5t-1 -23.5t3.5 -27t3.5 -40q2 -12 10.5 -22.5t18 -18.5t16.5 -12.5t5 -4.5h44q11 0 20.5 14t16 34t10 42t3.5 38q0 14 -2.5 35.5t-2.5 47.5q-1 10 -7.5 16.5t-13.5 12.5t-11.5 11.5t-3.5 13.5q-17 4 -45 4q-18 0 -22 -4l-5 -9
t-11 -20.5t-11 -21.5t-4 -12zM120 161v31h-13v-4q0 -27 4 -27h9zM358 152v18h-9v-18h9zM277 44v9h-9v-9h9zM97 -170h59v9q-23 4 -31 9q-6 2 -9 3.5l-3 1.5q-16 0 -16 -23z" />
    <glyph glyph-name="g" unicode="&#xf067;" horiz-adv-x="439" 
d="M153 390h8q15 36 33 36q58 0 88 -63q0 2 1.5 12t4.5 21.5t7 11.5q23 -1 45 -2.5t45 -2.5q14 -23 14 -40q0 -13 -2.5 -21t-2.5 -17q0 -1 2.5 -8t2.5 -19q0 -9 -5 -16t-5 -13q0 -25 5 -51.5t5 -55.5q0 -9 -1 -10q-7 -9 -7.5 -18t1.5 -19t4.5 -22t2.5 -28q0 -22 -5 -30v-84
q-8 -9 -11 -21t-7 -24q-2 -20 -10 -36.5t-21 -35.5q-4 -4 -15.5 -11t-25.5 -13.5t-27.5 -11t-21.5 -4.5q-7 0 -7 19q-11 0 -21 -12t-12 -12q-12 0 -28.5 2t-34.5 8q-30 9 -53 25.5t-28 18.5l-32 63v2q1 23 26 24t53 1h29q4 -1 5 -4q20 -60 71 -45l5 -5q6 0 15 10t17.5 23
t14.5 25.5t7 18.5q0 2 -2.5 16.5t-4.5 31.5t-2 18q-23 -25 -39.5 -31t-41.5 -8q-10 -9 -18 -9q-13 9 -28.5 12t-29.5 6q-10 -2 -16 0.5t-10.5 8t-9.5 12.5t-14 13q-19 10 -16.5 18t-1.5 18q-20 32 -23 55t-3 55q0 34 2 68t6 69q7 49 44.5 81t82.5 32q0 -8 -2 -14.5t-2 -17.5
zM143 269l-23 -9v-16h23q-9 -17 -11 -28.5t-1 -23.5t3.5 -27t3.5 -40q2 -12 10.5 -22.5t18 -18.5t16.5 -12.5t5 -4.5h44q11 0 20.5 14t16 34t10 42t3.5 38q0 14 -2.5 35.5t-2.5 47.5q-1 10 -7.5 16.5t-13.5 12.5t-11.5 11.5t-3.5 13.5q-17 4 -45 4q-18 0 -22 -4l-5 -9
t-11 -20.5t-11 -21.5t-4 -12zM120 161v31h-13v-4q0 -27 4 -27h9zM358 152v18h-9v-18h9zM277 44v9h-9v-9h9zM97 -170h59v9q-23 4 -31 9q-6 2 -9 3.5l-3 1.5q-16 0 -16 -23z" />
    <glyph glyph-name="h" unicode="h" horiz-adv-x="421" 
d="M33 659q5 0 8 -4q2 -17 8 -13t15 4v11q14 0 27 -0.5t27 -1.5q7 -1 13 -7h-18v-9q9 -4 27 -2q4 0 9 2.5t5 -2.5q0 -15 -2.5 -26t-2.5 -15q0 -20 2.5 -27t2.5 -20v-11q-3 -34 -3 -72h12l31 32q14 -2 27 0q12 4 22 4q2 1 28 1q61 0 85 -55q22 -48 22 -54q-1 -45 0 -67
q8 -24 9 -36v-7q0 -14 -4.5 -18.5t-4.5 -16.5q0 -19 4 -30v-130q-7 -16 -4 -40q-27 -2 -53 -3.5t-53 -1.5q0 34 -3 62t-8 51v2q0 18 6 31t3 29l9 5q0 22 9.5 50t9.5 42q0 17 -20 17q0 -7 -2 -17.5t-4 -20t-4 -16l-2 -6.5q0 8 2 13.5t2 9.5q0 21 -5 48t-13 55q-2 11 -10 12.5
t-17 1.5q-53 0 -67 -59q-1 -1 -2 -1q-2 0 -2 1q-14 14 -16 10.5t1.5 -14t9 -22t5.5 -12.5q0 -20 -2.5 -28t-2.5 -22q0 -2 2.5 -17t4.5 -31.5l2 -16.5l-4 -4q-2 -2 -5 7.5t-4 19.5h-9v-50l9 -4q2 -2 4 -54q1 -27 0 -54l9 -18l-117 5q1 13 2 33.5t-6 29.5v116q0 5 2 11t2 12
q-6 23 -7 45t-1 42q0 23 4.5 30t4.5 26q0 6 -4.5 18.5t-4.5 29.5q0 10 4.5 18t4.5 13q0 24 -9 38q9 3 9 19q0 14 -2.5 20.5t-2.5 16.5q0 13 2.5 19t2.5 15q0 10 -4 20t-5 16q-2 11 0 22zM288 429v-36q14 0 14 12q0 24 -14 24zM84 303q17 0 19.5 6.5t-2 11t-11 2t-6.5 -19.5z
M266 246q9 -6 0 -13q-9 7 0 13zM100 152v54h-9v-54h9zM100 98v9h-9v-9h9z" />
    <glyph glyph-name="h" unicode="&#xf068;" horiz-adv-x="421" 
d="M33 659q5 0 8 -4q2 -17 8 -13t15 4v11q14 0 27 -0.5t27 -1.5q7 -1 13 -7h-18v-9q9 -4 27 -2q4 0 9 2.5t5 -2.5q0 -15 -2.5 -26t-2.5 -15q0 -20 2.5 -27t2.5 -20v-11q-3 -34 -3 -72h12l31 32q14 -2 27 0q12 4 22 4q2 1 28 1q61 0 85 -55q22 -48 22 -54q-1 -45 0 -67
q8 -24 9 -36v-7q0 -14 -4.5 -18.5t-4.5 -16.5q0 -19 4 -30v-130q-7 -16 -4 -40q-27 -2 -53 -3.5t-53 -1.5q0 34 -3 62t-8 51v2q0 18 6 31t3 29l9 5q0 22 9.5 50t9.5 42q0 17 -20 17q0 -7 -2 -17.5t-4 -20t-4 -16l-2 -6.5q0 8 2 13.5t2 9.5q0 21 -5 48t-13 55q-2 11 -10 12.5
t-17 1.5q-53 0 -67 -59q-1 -1 -2 -1q-2 0 -2 1q-14 14 -16 10.5t1.5 -14t9 -22t5.5 -12.5q0 -20 -2.5 -28t-2.5 -22q0 -2 2.5 -17t4.5 -31.5l2 -16.5l-4 -4q-2 -2 -5 7.5t-4 19.5h-9v-50l9 -4q2 -2 4 -54q1 -27 0 -54l9 -18l-117 5q1 13 2 33.5t-6 29.5v116q0 5 2 11t2 12
q-6 23 -7 45t-1 42q0 23 4.5 30t4.5 26q0 6 -4.5 18.5t-4.5 29.5q0 10 4.5 18t4.5 13q0 24 -9 38q9 3 9 19q0 14 -2.5 20.5t-2.5 16.5q0 13 2.5 19t2.5 15q0 10 -4 20t-5 16q-2 11 0 22zM288 429v-36q14 0 14 12q0 24 -14 24zM84 303q17 0 19.5 6.5t-2 11t-11 2t-6.5 -19.5z
M266 246q9 -6 0 -13q-9 7 0 13zM100 152v54h-9v-54h9zM100 98v9h-9v-9h9z" />
    <glyph glyph-name="i" unicode="i" horiz-adv-x="192" 
d="M35 650h13q28 0 45 -4q0 -10 9 -10q8 0 16 5t18 5h11l5 -9v-72q0 -1 2 -3.5t2 -5.5q0 -5 -4 -5h-32q-15 19 -27 19q-3 -10 -22 -15t-35 -5q0 13 -2.5 25.5t-2.5 20.5v9q0 8 1 19.5t3 25.5zM36 484q26 0 53.5 -3.5t53.5 -5.5q-3 -9 13 -40q-13 -19 -13 -38q0 -8 4.5 -33
t4.5 -44v-47l-2 -18t-3 -18q-8 35 -26 35q-2 -5 1 -14.5t3 -15.5q0 -14 -4 -29t-5 -30q3 -19 9 -27.5t18 23.5q9 -13 9 -22q0 -12 -2.5 -18.5t-2.5 -13.5q0 -26 5.5 -43t-0.5 -42q-21 2 -41 0q-25 -2 -44 -3t-32 -2q-6 0 -3 11.5t3 13.5q0 15 -2 28.5t-2 23.5q0 33 4 40v220
q0 7 2.5 13t2.5 12q0 20 -4.5 31.5t-4.5 24.5q0 10 2.5 16.5t2.5 14.5zM98 381v18h-9v-18h9zM102 300v9h-9v-9h9zM111 282v9h-9v-9h9z" />
    <glyph glyph-name="i" unicode="&#xf069;" horiz-adv-x="192" 
d="M35 650h13q28 0 45 -4q0 -10 9 -10q8 0 16 5t18 5h11l5 -9v-72q0 -1 2 -3.5t2 -5.5q0 -5 -4 -5h-32q-15 19 -27 19q-3 -10 -22 -15t-35 -5q0 13 -2.5 25.5t-2.5 20.5v9q0 8 1 19.5t3 25.5zM36 484q26 0 53.5 -3.5t53.5 -5.5q-3 -9 13 -40q-13 -19 -13 -38q0 -8 4.5 -33
t4.5 -44v-47l-2 -18t-3 -18q-8 35 -26 35q-2 -5 1 -14.5t3 -15.5q0 -14 -4 -29t-5 -30q3 -19 9 -27.5t18 23.5q9 -13 9 -22q0 -12 -2.5 -18.5t-2.5 -13.5q0 -26 5.5 -43t-0.5 -42q-21 2 -41 0q-25 -2 -44 -3t-32 -2q-6 0 -3 11.5t3 13.5q0 15 -2 28.5t-2 23.5q0 33 4 40v220
q0 7 2.5 13t2.5 12q0 20 -4.5 31.5t-4.5 24.5q0 10 2.5 16.5t2.5 14.5zM98 381v18h-9v-18h9zM102 300v9h-9v-9h9zM111 282v9h-9v-9h9z" />
    <glyph glyph-name="j" unicode="j" horiz-adv-x="179" 
d="M23 587q41 6 105 6q0 -14 0.5 -27.5t1.5 -27.5q8 -20 6 -27.5t-2 -21.5h-26q-6 23 -20.5 20.5t-28.5 -3.5v-6h22q-9 0 -15 -5t-7 -6h-35q0 14 -3 30t-3 28q0 8 1.5 18t3.5 22zM108 574v9h-9v-9h9zM83 402q1 0 12 15q10 13 18 11.5t14 -10.5t9.5 -21.5t3.5 -20.5
q0 -13 -13 -25t-13 -19h12q1 0 2.5 -16t3 -35t2.5 -36.5t1 -20.5q2 -8 3.5 -13t1.5 -10q0 -15 -5 -27t-5 -20q0 -4 5 -7t5 -8q0 -28 -15 -54.5t-15 -58.5h7q1 0 9 23q7 20 9 22q-2 -21 1.5 -33t3.5 -41q0 -22 -1 -23l-15 -27v22h-11v-45q0 -1 9 -17t9 -30q0 -6 -7 -15
t-16.5 -18t-18.5 -15.5t-12 -7.5q-17 -3 -36 -6t-25 -3q-60 0 -60 51q0 10 1 21t3 22q7 5 17 4.5t14 0.5q27 6 27 15q0 11 -2 20t-2 14q5 17 5 21.5v22.5q0 21 -1 22q-5 15 -0.5 41t5.5 45v49q0 25 -2.5 42t-4.5 31.5t-2 29t4 32.5q5 8 5 11q0 8 -4.5 13.5t-4.5 10.5
q0 17 5 44t5 46h48q-6 -19 11 -19zM62 338q13 0 14.5 8t-1.5 13.5t-8 3t-5 -24.5z" />
    <glyph glyph-name="j" unicode="&#xf06a;" horiz-adv-x="179" 
d="M23 587q41 6 105 6q0 -14 0.5 -27.5t1.5 -27.5q8 -20 6 -27.5t-2 -21.5h-26q-6 23 -20.5 20.5t-28.5 -3.5v-6h22q-9 0 -15 -5t-7 -6h-35q0 14 -3 30t-3 28q0 8 1.5 18t3.5 22zM108 574v9h-9v-9h9zM83 402q1 0 12 15q10 13 18 11.5t14 -10.5t9.5 -21.5t3.5 -20.5
q0 -13 -13 -25t-13 -19h12q1 0 2.5 -16t3 -35t2.5 -36.5t1 -20.5q2 -8 3.5 -13t1.5 -10q0 -15 -5 -27t-5 -20q0 -4 5 -7t5 -8q0 -28 -15 -54.5t-15 -58.5h7q1 0 9 23q7 20 9 22q-2 -21 1.5 -33t3.5 -41q0 -22 -1 -23l-15 -27v22h-11v-45q0 -1 9 -17t9 -30q0 -6 -7 -15
t-16.5 -18t-18.5 -15.5t-12 -7.5q-17 -3 -36 -6t-25 -3q-60 0 -60 51q0 10 1 21t3 22q7 5 17 4.5t14 0.5q27 6 27 15q0 11 -2 20t-2 14q5 17 5 21.5v22.5q0 21 -1 22q-5 15 -0.5 41t5.5 45v49q0 25 -2.5 42t-4.5 31.5t-2 29t4 32.5q5 8 5 11q0 8 -4.5 13.5t-4.5 10.5
q0 17 5 44t5 46h48q-6 -19 11 -19zM62 338q13 0 14.5 8t-1.5 13.5t-8 3t-5 -24.5z" />
    <glyph glyph-name="k" unicode="k" horiz-adv-x="385" 
d="M32 628q28 2 53 3t45 1q22 0 20 -12t-2 -51v-40q12 -12 10 -22t-8.5 -20t-14 -19t-7.5 -18q23 0 24 -13t1 -27q0 -16 -2.5 -26t-2.5 -19q0 -38 9 -56q2 4 4.5 7t4.5 7q16 19 28.5 36.5t20.5 34.5q5 21 12.5 29t14.5 16q20 23 23 23q7 0 10 -5t12 -5q21 0 32.5 5t39.5 5
h31q-6 -14 -23 -31t-21 -23q-10 -14 -22.5 -33t-18.5 -26q-18 -26 -54 -58q12 -9 18 -22q1 -22 8.5 -29t14.5 -16q14 -18 19 -36t17 -27q8 -8 11.5 -24.5t6.5 -20.5q24 -24 35.5 -45t17.5 -49q-32 -2 -59.5 -3.5t-49.5 -1.5h-25q-1 22 -10.5 40t-22 38t-26 44t-22.5 58
q-46 -49 -46 -126h10q2 0 3 -6.5t2 -15t1 -17.5v-14q-28 0 -56.5 -1.5t-57.5 -3.5q-4 8 -4 34q0 17 2.5 23.5t2.5 16.5q0 6 -1 7q-2 21 -3 30.5t-1 23.5q0 1 2.5 10t2.5 21t-2.5 19.5t-2.5 14.5q0 8 2.5 11.5t2.5 10.5q0 16 -4.5 27.5t-4.5 19.5q0 17 4.5 24.5t4.5 26.5
t-1 21q-6 17 -2.5 28t3.5 30q0 28 -5 45v112q0 9 2.5 19t2.5 15t-9 25zM108 596v-80h9q3 0 4 22q1 14 0 27q9 -7 14.5 -6t6.5 5.5t-2.5 9t-13.5 4.5q-4 5 -4.5 14t-4.5 9q-9 0 -9 -5zM211 246v9h-9v-9h9zM129 192h15v15q-15 0 -15 -15z" />
    <glyph glyph-name="k" unicode="&#xf06b;" horiz-adv-x="385" 
d="M32 628q28 2 53 3t45 1q22 0 20 -12t-2 -51v-40q12 -12 10 -22t-8.5 -20t-14 -19t-7.5 -18q23 0 24 -13t1 -27q0 -16 -2.5 -26t-2.5 -19q0 -38 9 -56q2 4 4.5 7t4.5 7q16 19 28.5 36.5t20.5 34.5q5 21 12.5 29t14.5 16q20 23 23 23q7 0 10 -5t12 -5q21 0 32.5 5t39.5 5
h31q-6 -14 -23 -31t-21 -23q-10 -14 -22.5 -33t-18.5 -26q-18 -26 -54 -58q12 -9 18 -22q1 -22 8.5 -29t14.5 -16q14 -18 19 -36t17 -27q8 -8 11.5 -24.5t6.5 -20.5q24 -24 35.5 -45t17.5 -49q-32 -2 -59.5 -3.5t-49.5 -1.5h-25q-1 22 -10.5 40t-22 38t-26 44t-22.5 58
q-46 -49 -46 -126h10q2 0 3 -6.5t2 -15t1 -17.5v-14q-28 0 -56.5 -1.5t-57.5 -3.5q-4 8 -4 34q0 17 2.5 23.5t2.5 16.5q0 6 -1 7q-2 21 -3 30.5t-1 23.5q0 1 2.5 10t2.5 21t-2.5 19.5t-2.5 14.5q0 8 2.5 11.5t2.5 10.5q0 16 -4.5 27.5t-4.5 19.5q0 17 4.5 24.5t4.5 26.5
t-1 21q-6 17 -2.5 28t3.5 30q0 28 -5 45v112q0 9 2.5 19t2.5 15t-9 25zM108 596v-80h9q3 0 4 22q1 14 0 27q9 -7 14.5 -6t6.5 5.5t-2.5 9t-13.5 4.5q-4 5 -4.5 14t-4.5 9q-9 0 -9 -5zM211 246v9h-9v-9h9zM129 192h15v15q-15 0 -15 -15z" />
    <glyph glyph-name="l" unicode="l" horiz-adv-x="197" 
d="M31 646q7 2 8.5 -1.5t3.5 -8.5t7 -9t19 -4h6q5 8 15.5 11.5t22 4.5t22.5 0.5t17 -0.5v-7q-2 -17 -3.5 -30.5t-1.5 -23.5v-27q5 -9 5 -12v-19v-18q-4 -14 -4.5 -18t-0.5 -16q0 -15 4.5 -35.5t4.5 -31.5q0 -8 -4.5 -15.5t-4.5 -11.5q0 -10 2.5 -16t2.5 -8q0 -13 -2 -22.5
t-3 -9.5h-16l1.5 -7.5t1.5 -12.5q0 -11 -2 -26.5t-3 -24.5t2 -6t12 28q5 -15 5 -32t-14 -22v-90l9 -4q-1 1 4 -9.5t5 -26.5v-5q-4 -27 -4 -38t-19 -11q-29 -1 -50.5 -3t-36.5 -2q-6 0 -8.5 19.5t-2.5 37.5q0 43 1 81t3 69q4 12 4 22q1 2 1 32q0 21 -4.5 32.5t-4.5 36.5
q0 12 4.5 20.5t4.5 10.5q0 1 -1.5 9.5t-3 19t-3 19.5t-1.5 11q0 12 2 21t2 13q0 12 -2 18.5t-2 12.5v11q0 18 2 30t2 29q0 12 -2 29t-2 36zM80 394q-1 -5 -1 -10v-10q0 -32 14 -32v48q0 5 -9 5q-3 0 -4 -1zM152 287v22q4 -4 4 -13q0 -6 -4 -9zM147 134q7 -3 5 -5t-5 -2t-5 2
t5 5z" />
    <glyph glyph-name="l" unicode="&#xf06c;" horiz-adv-x="197" 
d="M31 646q7 2 8.5 -1.5t3.5 -8.5t7 -9t19 -4h6q5 8 15.5 11.5t22 4.5t22.5 0.5t17 -0.5v-7q-2 -17 -3.5 -30.5t-1.5 -23.5v-27q5 -9 5 -12v-19v-18q-4 -14 -4.5 -18t-0.5 -16q0 -15 4.5 -35.5t4.5 -31.5q0 -8 -4.5 -15.5t-4.5 -11.5q0 -10 2.5 -16t2.5 -8q0 -13 -2 -22.5
t-3 -9.5h-16l1.5 -7.5t1.5 -12.5q0 -11 -2 -26.5t-3 -24.5t2 -6t12 28q5 -15 5 -32t-14 -22v-90l9 -4q-1 1 4 -9.5t5 -26.5v-5q-4 -27 -4 -38t-19 -11q-29 -1 -50.5 -3t-36.5 -2q-6 0 -8.5 19.5t-2.5 37.5q0 43 1 81t3 69q4 12 4 22q1 2 1 32q0 21 -4.5 32.5t-4.5 36.5
q0 12 4.5 20.5t4.5 10.5q0 1 -1.5 9.5t-3 19t-3 19.5t-1.5 11q0 12 2 21t2 13q0 12 -2 18.5t-2 12.5v11q0 18 2 30t2 29q0 12 -2 29t-2 36zM80 394q-1 -5 -1 -10v-10q0 -32 14 -32v48q0 5 -9 5q-3 0 -4 -1zM152 287v22q4 -4 4 -13q0 -6 -4 -9zM147 134q7 -3 5 -5t-5 -2t-5 2
t5 5z" />
    <glyph glyph-name="m" unicode="m" horiz-adv-x="623" 
d="M372 376q6 3 19.5 9t27.5 12.5t27 11t18 4.5q2 0 15 -7t16 -7q20 0 34 -11.5t23 -28.5t13 -36t4 -33q0 -18 -14 -12v-20q5 0 8.5 3.5t7.5 3.5q3 0 6 -9.5t5.5 -22.5t3.5 -25t1 -16q0 -1 -1.5 -6t-3 -11.5t-3 -12.5t-1.5 -8q0 -14 2.5 -25t2.5 -16q0 -14 -2.5 -15.5
t-2.5 -8.5v-13q0 -1 2.5 -10t2.5 -22q0 -3 -1 -4q3 9 -12 9q-7 0 -13 -2t-6 0q0 20 4 33.5t4 19.5q-7 0 -12 -8.5t-8 -19t-4.5 -20.5t-1.5 -12q4 -18 8.5 -17t31.5 12l2.5 -18t5 -33t2.5 -18q0 -15 -5 -15h-99q-5 0 -7.5 13t-4 29t-2 30.5t-0.5 18.5q0 14 2.5 27t2.5 27
q0 1 -2 6.5t-2 15.5q0 15 4.5 26.5t4.5 19.5v15q-2 16 -2.5 40.5t-4 47.5t-14 39.5t-32.5 16.5q-19 0 -31 -14t-18.5 -35.5t-8.5 -47t-2 -47.5q0 -11 2.5 -22.5t2.5 -19.5v-3q-3 -22 -4 -33t-1 -26q0 -12 1 -13q5 -18 2 -27t-3 -20q0 -7 2.5 -11t2.5 -8q0 -19 -2.5 -30
t-1.5 -10h-113q5 17 5 22q0 6 -5 14l5 227q9 13 9 23q0 -2 -5.5 14.5l-8.5 25.5q-9 24 -23 32t-27.5 4.5t-24.5 -15t-14 -25.5q-1 -12 -2.5 -21l-2.5 -15q-2 -14 -5 -27t-6 -27v27q0 8 -11 0q-10 -6 -10 -20q0 -10 5 -12v-58q-11 -11 -8.5 -26t2.5 -28h6q0 29 14 41
q7 -8 9 -18q-2 -26 -2.5 -45t-2.5 -32q6 -11 5.5 -15t-0.5 -24v-27l-117 5q1 20 3 38.5t2 36.5q0 15 -2.5 25t-2.5 12v17q1 22 3 36.5t2 26.5q0 13 -2.5 22.5t-2.5 14.5q0 21 2.5 32t2.5 23q0 18 -4.5 38t-4.5 31v8q0 14 4.5 19.5t4.5 21.5q0 26 -9 36q13 2 13 -8t8 -10
q7 0 10 5q10 16 16 10t16 -6q8 0 23 7t30 7v-32q15 11 28 21.5t22 14.5q12 5 40 5h9q43 -3 45 -5l49 -54l9 -22q5 12 13 29.5t10 19.5zM143 358q-9 -6 0 -13q9 7 0 13zM322 337v-14h15q0 14 -15 14zM300 288v-39q14 0 14 20q0 19 -14 19zM475 273v-53q18 0 18 28
q0 25 -18 25zM555 192h-8q-1 -2 -1 -11q0 -13 3 -31.5t3 -37.5h8q2 0 3.5 11t1.5 21q0 20 -4.5 34t-5.5 14z" />
    <glyph glyph-name="m" unicode="&#xf06d;" horiz-adv-x="623" 
d="M372 376q6 3 19.5 9t27.5 12.5t27 11t18 4.5q2 0 15 -7t16 -7q20 0 34 -11.5t23 -28.5t13 -36t4 -33q0 -18 -14 -12v-20q5 0 8.5 3.5t7.5 3.5q3 0 6 -9.5t5.5 -22.5t3.5 -25t1 -16q0 -1 -1.5 -6t-3 -11.5t-3 -12.5t-1.5 -8q0 -14 2.5 -25t2.5 -16q0 -14 -2.5 -15.5
t-2.5 -8.5v-13q0 -1 2.5 -10t2.5 -22q0 -3 -1 -4q3 9 -12 9q-7 0 -13 -2t-6 0q0 20 4 33.5t4 19.5q-7 0 -12 -8.5t-8 -19t-4.5 -20.5t-1.5 -12q4 -18 8.5 -17t31.5 12l2.5 -18t5 -33t2.5 -18q0 -15 -5 -15h-99q-5 0 -7.5 13t-4 29t-2 30.5t-0.5 18.5q0 14 2.5 27t2.5 27
q0 1 -2 6.5t-2 15.5q0 15 4.5 26.5t4.5 19.5v15q-2 16 -2.5 40.5t-4 47.5t-14 39.5t-32.5 16.5q-19 0 -31 -14t-18.5 -35.5t-8.5 -47t-2 -47.5q0 -11 2.5 -22.5t2.5 -19.5v-3q-3 -22 -4 -33t-1 -26q0 -12 1 -13q5 -18 2 -27t-3 -20q0 -7 2.5 -11t2.5 -8q0 -19 -2.5 -30
t-1.5 -10h-113q5 17 5 22q0 6 -5 14l5 227q9 13 9 23q0 -2 -5.5 14.5l-8.5 25.5q-9 24 -23 32t-27.5 4.5t-24.5 -15t-14 -25.5q-1 -12 -2.5 -21l-2.5 -15q-2 -14 -5 -27t-6 -27v27q0 8 -11 0q-10 -6 -10 -20q0 -10 5 -12v-58q-11 -11 -8.5 -26t2.5 -28h6q0 29 14 41
q7 -8 9 -18q-2 -26 -2.5 -45t-2.5 -32q6 -11 5.5 -15t-0.5 -24v-27l-117 5q1 20 3 38.5t2 36.5q0 15 -2.5 25t-2.5 12v17q1 22 3 36.5t2 26.5q0 13 -2.5 22.5t-2.5 14.5q0 21 2.5 32t2.5 23q0 18 -4.5 38t-4.5 31v8q0 14 4.5 19.5t4.5 21.5q0 26 -9 36q13 2 13 -8t8 -10
q7 0 10 5q10 16 16 10t16 -6q8 0 23 7t30 7v-32q15 11 28 21.5t22 14.5q12 5 40 5h9q43 -3 45 -5l49 -54l9 -22q5 12 13 29.5t10 19.5zM143 358q-9 -6 0 -13q9 7 0 13zM322 337v-14h15q0 14 -15 14zM300 288v-39q14 0 14 20q0 19 -14 19zM475 273v-53q18 0 18 28
q0 25 -18 25zM555 192h-8q-1 -2 -1 -11q0 -13 3 -31.5t3 -37.5h8q2 0 3.5 11t1.5 21q0 20 -4.5 34t-5.5 14z" />
    <glyph glyph-name="n" unicode="n" horiz-adv-x="421" 
d="M232 412q4 1 9 1h9q6 0 15 -2.5t19 -2.5q18 0 28 -5.5t16 -13t10 -14t11 -8.5q8 0 12.5 -8t6.5 -18.5t2.5 -20.5t0.5 -15q0 -16 2.5 -28.5t2.5 -21.5q0 -12 -2.5 -21t-2.5 -15t7 -14.5t7 -18.5v-3q-7 -15 -7.5 -28t0 -22.5t-2 -14.5t-14.5 -5q-6 -6 -3 -15q12 -20 14 -27
v-8q0 -8 -5 -16t-5 -12q0 -9 10 -9q2 -13 3.5 -30.5t1.5 -40.5q-20 0 -46.5 1.5t-57.5 3.5q-1 20 -5 44.5t-4 39.5q-1 2 -1 28q0 25 1 26q4 9 4 18q-4 29 -3 56.5t-1 46.5q-5 25 -5 32q0 11 4 6.5t16 -4.5q-2 14 -2.5 29.5t0.5 31.5q5 9 3.5 14t-5.5 4.5t-9 -7t-7 -20.5
q-2 -17 -5.5 -16t-8.5 8.5t-12.5 16.5t-17.5 9q-32 0 -43.5 -18.5t-19.5 -40.5q3 -57 -9 -94q-1 -1 -1 -4q0 -7 3 -14.5t3 -8.5q0 -16 -5 -18q-4 37 -18 37q-3 -8 -2.5 -19.5t1.5 -23.5t2.5 -22t1.5 -14q17 0 19 11q13 -16 6.5 -35.5t-6.5 -39.5q0 -10 2.5 -23.5t2.5 -28.5
q0 -11 -8 -11q-14 0 -35 1t-47 3q-27 2 -27 5l-2 11v194q0 32 1.5 63t0.5 63q-4 15 -4 27v9q0 16 2 19t2 17q0 11 -2 14.5t-2 7.5t4 4h108v-36l4 -4q5 44 50 49q13 -1 23 -0.5t12 9.5zM134 174v50h-9v-50h9zM340 183v9h-9v-9h9zM337 31h-15v-15q15 0 15 15z" />
    <glyph glyph-name="n" unicode="&#xf06e;" horiz-adv-x="421" 
d="M232 412q4 1 9 1h9q6 0 15 -2.5t19 -2.5q18 0 28 -5.5t16 -13t10 -14t11 -8.5q8 0 12.5 -8t6.5 -18.5t2.5 -20.5t0.5 -15q0 -16 2.5 -28.5t2.5 -21.5q0 -12 -2.5 -21t-2.5 -15t7 -14.5t7 -18.5v-3q-7 -15 -7.5 -28t0 -22.5t-2 -14.5t-14.5 -5q-6 -6 -3 -15q12 -20 14 -27
v-8q0 -8 -5 -16t-5 -12q0 -9 10 -9q2 -13 3.5 -30.5t1.5 -40.5q-20 0 -46.5 1.5t-57.5 3.5q-1 20 -5 44.5t-4 39.5q-1 2 -1 28q0 25 1 26q4 9 4 18q-4 29 -3 56.5t-1 46.5q-5 25 -5 32q0 11 4 6.5t16 -4.5q-2 14 -2.5 29.5t0.5 31.5q5 9 3.5 14t-5.5 4.5t-9 -7t-7 -20.5
q-2 -17 -5.5 -16t-8.5 8.5t-12.5 16.5t-17.5 9q-32 0 -43.5 -18.5t-19.5 -40.5q3 -57 -9 -94q-1 -1 -1 -4q0 -7 3 -14.5t3 -8.5q0 -16 -5 -18q-4 37 -18 37q-3 -8 -2.5 -19.5t1.5 -23.5t2.5 -22t1.5 -14q17 0 19 11q13 -16 6.5 -35.5t-6.5 -39.5q0 -10 2.5 -23.5t2.5 -28.5
q0 -11 -8 -11q-14 0 -35 1t-47 3q-27 2 -27 5l-2 11v194q0 32 1.5 63t0.5 63q-4 15 -4 27v9q0 16 2 19t2 17q0 11 -2 14.5t-2 7.5t4 4h108v-36l4 -4q5 44 50 49q13 -1 23 -0.5t12 9.5zM134 174v50h-9v-50h9zM340 183v9h-9v-9h9zM337 31h-15v-15q15 0 15 15z" />
    <glyph glyph-name="o" unicode="o" horiz-adv-x="426" 
d="M191 466q21 9 30 9q49 0 87 -27q10 -14 18 -18q49 -34 63 -98q-1 -14 0 -18q4 -13 13 -23q-9 -11 -9 -15t5 -21q5 -7 5.5 -18.5t-0.5 -23.5t-3 -22.5t-2 -16.5q-5 -36 -32 -85q-9 3 -13 -4q-3 -33 -28 -50t-53 -35q-5 0 -15.5 0.5t-21 0t-18.5 -1.5t-8 -3v-4l-58 4
q-7 6 -21.5 13.5t-29.5 16t-27.5 17.5t-15.5 19q-1 41 -5 78.5t-9 69.5q-3 13 -4 3.5t-1 -27t0.5 -36t0.5 -23.5q0 -7 -7 -7q-3 0 -7 15.5t-7.5 35t-6.5 37t-3 20.5q9 14 11 28.5t2 30.5q6 0 13 18q7 20 5.5 24t-5.5 2.5t-8.5 -2.5t-4.5 9q0 8 12 23t15 20q0 5 11 20
t28 30.5t38 27.5t42 12q8 0 13.5 -3t10.5 -2zM331 412q-1 -1 -1 -6q0 -20 6 -21.5t10.5 5t3.5 15t-15 8.5q-3 0 -4 -1zM218 385q-4 -5 -36 -9q-12 -1 -21.5 -13t-16.5 -29t-11 -37t-4 -37v-5q2 -27 4.5 -54t4.5 -53q0 -2 4.5 -12t10.5 -21t13 -20.5t12 -9.5h58q9 0 18 16
t16 37.5t11.5 43.5t4.5 35v16q-1 11 -9 31q-3 27 0 54q-12 6 -17 15t-9.5 19t-11 19t-21.5 14zM371 210v-4q0 -15 5.5 -23.5t3.5 -8.5h10q0 38 -12 38q-1 0 -7 -2zM349 107h-14v-31h9l2.5 9.5t2.5 21.5z" />
    <glyph glyph-name="o" unicode="&#xf06f;" horiz-adv-x="426" 
d="M191 466q21 9 30 9q49 0 87 -27q10 -14 18 -18q49 -34 63 -98q-1 -14 0 -18q4 -13 13 -23q-9 -11 -9 -15t5 -21q5 -7 5.5 -18.5t-0.5 -23.5t-3 -22.5t-2 -16.5q-5 -36 -32 -85q-9 3 -13 -4q-3 -33 -28 -50t-53 -35q-5 0 -15.5 0.5t-21 0t-18.5 -1.5t-8 -3v-4l-58 4
q-7 6 -21.5 13.5t-29.5 16t-27.5 17.5t-15.5 19q-1 41 -5 78.5t-9 69.5q-3 13 -4 3.5t-1 -27t0.5 -36t0.5 -23.5q0 -7 -7 -7q-3 0 -7 15.5t-7.5 35t-6.5 37t-3 20.5q9 14 11 28.5t2 30.5q6 0 13 18q7 20 5.5 24t-5.5 2.5t-8.5 -2.5t-4.5 9q0 8 12 23t15 20q0 5 11 20
t28 30.5t38 27.5t42 12q8 0 13.5 -3t10.5 -2zM331 412q-1 -1 -1 -6q0 -20 6 -21.5t10.5 5t3.5 15t-15 8.5q-3 0 -4 -1zM218 385q-4 -5 -36 -9q-12 -1 -21.5 -13t-16.5 -29t-11 -37t-4 -37v-5q2 -27 4.5 -54t4.5 -53q0 -2 4.5 -12t10.5 -21t13 -20.5t12 -9.5h58q9 0 18 16
t16 37.5t11.5 43.5t4.5 35v16q-1 11 -9 31q-3 27 0 54q-12 6 -17 15t-9.5 19t-11 19t-21.5 14zM371 210v-4q0 -15 5.5 -23.5t3.5 -8.5h10q0 38 -12 38q-1 0 -7 -2zM349 107h-14v-31h9l2.5 9.5t2.5 21.5z" />
    <glyph glyph-name="p" unicode="p" 
d="M219 417h58q15 -13 27.5 -20.5t22.5 -11.5q16 -1 17.5 -5.5t9.5 -12.5q29 -34 31.5 -50t3.5 -30q7 -12 9 -18q2 -19 10.5 -34t-1.5 -25q3 -34 -0.5 -69t-3.5 -70q0 -3 -3.5 -11t-8.5 -16.5t-9 -16t-6 -10.5q-1 -9 -10 -22t-22.5 -26t-30 -22t-31.5 -9q-10 0 -20.5 2
t-15.5 2q-20 -6 -29 -1.5t-16 12t-15.5 14.5t-27.5 7q-3 0 -5 -7t-3.5 -16.5t-2 -19t-0.5 -14.5v-24q5 -17 5 -20.5v-20.5q0 -16 -2.5 -22t-2.5 -16q0 -6 2.5 -13t-2.5 -7h-4q-49 2 -74 3.5l-25 1.5l-9 4q2 18 -1 42t-3 35q0 14 2 35t2 32q0 17 -2 36.5t-2 36.5v56
q0 14 4.5 37.5t4.5 48.5q0 32 -1.5 66.5t-3.5 71.5q-1 8 -2.5 14t-1.5 11v2q1 14 2 29t2 29q-3 10 12 10q12 0 22.5 -2t10.5 -3v-10q14 0 19 5t19 5q30 0 30 -8q0 -5 -1 -6q-12 -26 -3 -32t17 19q1 12 8 19t15.5 11.5t18 9.5t16.5 14zM205 323h5q-20 -8 -32.5 -23t-19 -33.5
t-9 -38t-2.5 -37.5v-17l5 -4q-3 2 -6.5 -12t-3.5 -15q0 -45 20.5 -81t63.5 -36q15 0 29 14q18 18 26.5 40t11.5 45t2.5 44.5t-0.5 38.5q0 9 -3.5 28t-10.5 38.5t-18.5 34t-27.5 14.5q-4 0 -8 -2.5t-10 -2.5q-4 0 -12 5zM376 269v9h-9v-9h9zM358 246v-9q0 -33 19 -33
q0 6 -3.5 24.5t-10.5 18.5q-4 0 -5 -1zM356 125v23h-13q0 -20 4 -35t4 -37h10q0 22 8 45t8 53q-11 0 -15 -19t-6 -30zM102 112h-4q-18 -26 -18 -72q0 -15 8 -19t10 -21h10q0 14 -7.5 24t-7.5 18q0 9 7 34v-27h11v58q0 5 -9 5z" />
    <glyph glyph-name="p" unicode="&#xf070;" 
d="M219 417h58q15 -13 27.5 -20.5t22.5 -11.5q16 -1 17.5 -5.5t9.5 -12.5q29 -34 31.5 -50t3.5 -30q7 -12 9 -18q2 -19 10.5 -34t-1.5 -25q3 -34 -0.5 -69t-3.5 -70q0 -3 -3.5 -11t-8.5 -16.5t-9 -16t-6 -10.5q-1 -9 -10 -22t-22.5 -26t-30 -22t-31.5 -9q-10 0 -20.5 2
t-15.5 2q-20 -6 -29 -1.5t-16 12t-15.5 14.5t-27.5 7q-3 0 -5 -7t-3.5 -16.5t-2 -19t-0.5 -14.5v-24q5 -17 5 -20.5v-20.5q0 -16 -2.5 -22t-2.5 -16q0 -6 2.5 -13t-2.5 -7h-4q-49 2 -74 3.5l-25 1.5l-9 4q2 18 -1 42t-3 35q0 14 2 35t2 32q0 17 -2 36.5t-2 36.5v56
q0 14 4.5 37.5t4.5 48.5q0 32 -1.5 66.5t-3.5 71.5q-1 8 -2.5 14t-1.5 11v2q1 14 2 29t2 29q-3 10 12 10q12 0 22.5 -2t10.5 -3v-10q14 0 19 5t19 5q30 0 30 -8q0 -5 -1 -6q-12 -26 -3 -32t17 19q1 12 8 19t15.5 11.5t18 9.5t16.5 14zM205 323h5q-20 -8 -32.5 -23t-19 -33.5
t-9 -38t-2.5 -37.5v-17l5 -4q-3 2 -6.5 -12t-3.5 -15q0 -45 20.5 -81t63.5 -36q15 0 29 14q18 18 26.5 40t11.5 45t2.5 44.5t-0.5 38.5q0 9 -3.5 28t-10.5 38.5t-18.5 34t-27.5 14.5q-4 0 -8 -2.5t-10 -2.5q-4 0 -12 5zM376 269v9h-9v-9h9zM358 246v-9q0 -33 19 -33
q0 6 -3.5 24.5t-10.5 18.5q-4 0 -5 -1zM356 125v23h-13q0 -20 4 -35t4 -37h10q0 22 8 45t8 53q-11 0 -15 -19t-6 -30zM102 112h-4q-18 -26 -18 -72q0 -15 8 -19t10 -21h10q0 14 -7.5 24t-7.5 18q0 9 7 34v-27h11v58q0 5 -9 5z" />
    <glyph glyph-name="q" unicode="q" horiz-adv-x="439" 
d="M174 435q16 -2 37 -10.5t30 -12.5q8 -2 15.5 -8.5t13.5 -14.5t10 -14.5t6 -7.5q-4 20 -4 30q0 20 18 20h13q20 -1 40.5 -2t40.5 -3q-2 -16 -3.5 -32.5t-1.5 -32.5q0 -13 2.5 -16t2.5 -15q0 -14 -2.5 -20t-2.5 -14q0 -5 5 -18v-94q0 -12 -11.5 -27.5t-15.5 -17.5v-50
q18 0 13 41l9 5q-2 -2 1 -18.5t4 -20.5q0 -1 -2.5 -6.5t-2.5 -15.5q0 -7 2.5 -12.5t2.5 -7.5q0 -9 -2 -15.5t-3 -11.5q4 -17 -5.5 -25t-9.5 -18q13 0 20 4v-45q-16 -1 -16 -34q4 0 9.5 4t11.5 4q0 -11 -1.5 -26t-3 -28.5t-3 -22.5t-2.5 -9l-107 -5q-2 0 -6 11.5t-4 26.5
q0 14 3 19t3 15q0 2 -2.5 9.5t-2.5 19.5q0 7 4.5 11t4.5 9q0 8 -2.5 14.5t-2.5 12.5t2.5 12t2.5 11q0 17 -9 21q-24 -40 -90 -40q-18 0 -36.5 5t-39.5 14q-43 19 -62 60.5t-19 86.5q0 20 -13 27q8 11 6 21t-2 19v38q0 20 4.5 29.5t8.5 26.5q2 33 8 53t28 46q15 16 30 22.5
t29.5 9.5t27 5t21.5 8zM214 349l-4 -8q-9 1 -17.5 0.5t-18.5 -5.5q-9 -2 -18 0l-27 -27q-1 -1 -1 -4q0 -10 10 -9q9 -29 0 -57.5t-9 -57.5q0 -27 4 -45t5 -24q10 -63 83 -63q19 0 31 19.5t19 46t9 53t2 40.5q0 20 -8 42.5t-10 49.5q-10 46 -50 49zM304 296v13h-9v-13h9z
M114 228h11q1 0 4 27q5 21 -5 12t-10 -39zM88 166q0 -27 14 -27v53q-14 0 -14 -26z" />
    <glyph glyph-name="q" unicode="&#xf071;" horiz-adv-x="439" 
d="M174 435q16 -2 37 -10.5t30 -12.5q8 -2 15.5 -8.5t13.5 -14.5t10 -14.5t6 -7.5q-4 20 -4 30q0 20 18 20h13q20 -1 40.5 -2t40.5 -3q-2 -16 -3.5 -32.5t-1.5 -32.5q0 -13 2.5 -16t2.5 -15q0 -14 -2.5 -20t-2.5 -14q0 -5 5 -18v-94q0 -12 -11.5 -27.5t-15.5 -17.5v-50
q18 0 13 41l9 5q-2 -2 1 -18.5t4 -20.5q0 -1 -2.5 -6.5t-2.5 -15.5q0 -7 2.5 -12.5t2.5 -7.5q0 -9 -2 -15.5t-3 -11.5q4 -17 -5.5 -25t-9.5 -18q13 0 20 4v-45q-16 -1 -16 -34q4 0 9.5 4t11.5 4q0 -11 -1.5 -26t-3 -28.5t-3 -22.5t-2.5 -9l-107 -5q-2 0 -6 11.5t-4 26.5
q0 14 3 19t3 15q0 2 -2.5 9.5t-2.5 19.5q0 7 4.5 11t4.5 9q0 8 -2.5 14.5t-2.5 12.5t2.5 12t2.5 11q0 17 -9 21q-24 -40 -90 -40q-18 0 -36.5 5t-39.5 14q-43 19 -62 60.5t-19 86.5q0 20 -13 27q8 11 6 21t-2 19v38q0 20 4.5 29.5t8.5 26.5q2 33 8 53t28 46q15 16 30 22.5
t29.5 9.5t27 5t21.5 8zM214 349l-4 -8q-9 1 -17.5 0.5t-18.5 -5.5q-9 -2 -18 0l-27 -27q-1 -1 -1 -4q0 -10 10 -9q9 -29 0 -57.5t-9 -57.5q0 -27 4 -45t5 -24q10 -63 83 -63q19 0 31 19.5t19 46t9 53t2 40.5q0 20 -8 42.5t-10 49.5q-10 46 -50 49zM304 296v13h-9v-13h9z
M114 228h11q1 0 4 27q5 21 -5 12t-10 -39zM88 166q0 -27 14 -27v53q-14 0 -14 -26z" />
    <glyph glyph-name="r" unicode="r" horiz-adv-x="287" 
d="M152 417q6 4 13 22q7 17 19.5 26t28.5 14t34 6t35 1v-83q0 -4 -16 -4q-5 0 -10 2t-8 2q-22 0 -38 -8t-31 -23q-17 -20 -16.5 -30.5t-1.5 -23.5q-11 -15 -9.5 -36.5t0.5 -30.5q-2 -29 -14 -27v-84q12 0 14 3v-18v-18q-4 -16 -4.5 -20t-0.5 -20q0 -23 5 -41l-104 5l-13 4
q-1 1 -1 25q0 10 3 26t3 32q0 1 -2.5 7.5t-2.5 19.5l5 -1.5t11.5 -4t12.5 -4.5t7 -2v6q0 3 -5 9.5t-11 13.5t-11 13t-5 8q-2 13 -3 33.5t-1 47.5q0 16 2.5 34.5t2.5 33.5t-4.5 27t-4.5 17q0 14 1.5 21t3 11.5t3 10t1.5 17.5q0 16 -2.5 20t-2.5 10q0 5 18 5q13 0 13.5 -5
t8.5 -5q17 0 28 7.5t26 7.5q7 0 11 -8t6.5 -18.5t3.5 -20t2 -12.5zM134 273h-9q-1 -3 -1 -13q0 -29 20 -29q0 3 -4 19t-6 23zM152 174q4 -4 4 -17q0 -7 -0.5 -5t-1 7.5t-1.5 10.5t-1 4z" />
    <glyph glyph-name="r" unicode="&#xf072;" horiz-adv-x="287" 
d="M152 417q6 4 13 22q7 17 19.5 26t28.5 14t34 6t35 1v-83q0 -4 -16 -4q-5 0 -10 2t-8 2q-22 0 -38 -8t-31 -23q-17 -20 -16.5 -30.5t-1.5 -23.5q-11 -15 -9.5 -36.5t0.5 -30.5q-2 -29 -14 -27v-84q12 0 14 3v-18v-18q-4 -16 -4.5 -20t-0.5 -20q0 -23 5 -41l-104 5l-13 4
q-1 1 -1 25q0 10 3 26t3 32q0 1 -2.5 7.5t-2.5 19.5l5 -1.5t11.5 -4t12.5 -4.5t7 -2v6q0 3 -5 9.5t-11 13.5t-11 13t-5 8q-2 13 -3 33.5t-1 47.5q0 16 2.5 34.5t2.5 33.5t-4.5 27t-4.5 17q0 14 1.5 21t3 11.5t3 10t1.5 17.5q0 16 -2.5 20t-2.5 10q0 5 18 5q13 0 13.5 -5
t8.5 -5q17 0 28 7.5t26 7.5q7 0 11 -8t6.5 -18.5t3.5 -20t2 -12.5zM134 273h-9q-1 -3 -1 -13q0 -29 20 -29q0 3 -4 19t-6 23zM152 174q4 -4 4 -17q0 -7 -0.5 -5t-1 7.5t-1.5 10.5t-1 4z" />
    <glyph glyph-name="s" unicode="s" horiz-adv-x="372" 
d="M137 486v-20h11q3 27 38 27h2q38 -5 70 -10.5t65 -38.5q7 -8 9 -18q-2 -15 0 -23q3 -13 6 -22.5t3 -15.5q0 -7 -4 -7h-95q-9 55 -60 55q-27 0 -42.5 -22.5t-15.5 -53.5q8 0 20 4q-2 0 6.5 -10.5t15.5 -12.5q15 2 32 -2t33.5 -10t31.5 -11t25 -5q0 -6 -2 -11.5t-2 -11.5
q3 -5 8 -3q11 18 23 10.5t21.5 -26t16 -40t6.5 -30.5q0 -6 -4.5 -10.5t-4.5 -8.5q0 -13 2.5 -21t2.5 -9q0 -18 -12.5 -37.5t-32.5 -36.5t-44.5 -27.5t-47.5 -10.5q-18 0 -33 4t-23 5q-1 1 -5 1q-8 0 -14.5 -2.5t-10.5 -2.5q-7 0 -19.5 7.5t-22.5 10.5q-21 5 -35 19.5
t-19 20.5q-22 31 -22 59q0 8 3.5 10.5t8 4t8 3.5t2.5 9q-1 -10 11 -10t25 18h54q3 0 5.5 -10t5.5 -21.5t8.5 -21.5t15.5 -10q8 0 19.5 1.5t25.5 3.5q32 5 32 38q0 11 -5 23.5t-9 23.5q-13 -5 -29.5 5.5t-23.5 12.5q-15 6 -41 13.5t-58 9.5q-12 10 -23 24.5t-18.5 29t-10 28
t1.5 21.5q-10 2 -8.5 13.5t8.5 31.5q6 12 6.5 21t2 15t7 8.5t20.5 0.5q12 46 41 49l28.5 1.5zM323 182v-51q14 0 14 26q0 25 -14 25z" />
    <glyph glyph-name="s" unicode="&#xf073;" horiz-adv-x="372" 
d="M137 486v-20h11q3 27 38 27h2q38 -5 70 -10.5t65 -38.5q7 -8 9 -18q-2 -15 0 -23q3 -13 6 -22.5t3 -15.5q0 -7 -4 -7h-95q-9 55 -60 55q-27 0 -42.5 -22.5t-15.5 -53.5q8 0 20 4q-2 0 6.5 -10.5t15.5 -12.5q15 2 32 -2t33.5 -10t31.5 -11t25 -5q0 -6 -2 -11.5t-2 -11.5
q3 -5 8 -3q11 18 23 10.5t21.5 -26t16 -40t6.5 -30.5q0 -6 -4.5 -10.5t-4.5 -8.5q0 -13 2.5 -21t2.5 -9q0 -18 -12.5 -37.5t-32.5 -36.5t-44.5 -27.5t-47.5 -10.5q-18 0 -33 4t-23 5q-1 1 -5 1q-8 0 -14.5 -2.5t-10.5 -2.5q-7 0 -19.5 7.5t-22.5 10.5q-21 5 -35 19.5
t-19 20.5q-22 31 -22 59q0 8 3.5 10.5t8 4t8 3.5t2.5 9q-1 -10 11 -10t25 18h54q3 0 5.5 -10t5.5 -21.5t8.5 -21.5t15.5 -10q8 0 19.5 1.5t25.5 3.5q32 5 32 38q0 11 -5 23.5t-9 23.5q-13 -5 -29.5 5.5t-23.5 12.5q-15 6 -41 13.5t-58 9.5q-12 10 -23 24.5t-18.5 29t-10 28
t1.5 21.5q-10 2 -8.5 13.5t8.5 31.5q6 12 6.5 21t2 15t7 8.5t20.5 0.5q12 46 41 49l28.5 1.5zM323 182v-51q14 0 14 26q0 25 -14 25z" />
    <glyph glyph-name="t" unicode="t" horiz-adv-x="251" 
d="M59 556q2 1 9 1q2 -3 13 -9t24 -6q15 0 12 9h27l9 -27h11v27q12 -41 12 -81q0 -31 -5 -46h82q-12 -14 -9 -34t3 -31v-5q5 -7 5.5 -12.5t-9.5 -5.5h-69q3 -13 1 -31q-1 -36 -4 -36h-13q0 -33 13 -32q-1 -24 0 -49q1 -4 2 -9t2 -9v-94l36 -18q25 19 38 19q0 -23 -4 -45
t-4 -44q-3 0 -11.5 -3t-19 -6.5t-20.5 -6.5t-15 -3q-7 0 -13.5 4.5t-17.5 4.5q-16 0 -20 -2t-11 -2q-9 0 -19.5 12t-19.5 28t-14.5 32t-5.5 25q0 19 5 42.5t5 48.5q0 11 -1.5 16.5t-3.5 9.5t-3.5 9t-1.5 15q0 24 5 34t5 24q0 11 -1 12q-6 52 -9 52h-54q3 0 -2.5 10t-5.5 30
q0 17 2.5 30t2.5 20q45 0 66 6q1 2 1 9q0 17 -5 31.5t-5 22.5q0 16 2 31.5t3 31.5zM122 372v9h-9v-9h9zM108 349v9h-9v-9h9zM162 278v13h-9v-13h9zM104 44v86h-9v-86h9zM122 67v31h-9v-31h9z" />
    <glyph glyph-name="t" unicode="&#xf074;" horiz-adv-x="251" 
d="M59 556q2 1 9 1q2 -3 13 -9t24 -6q15 0 12 9h27l9 -27h11v27q12 -41 12 -81q0 -31 -5 -46h82q-12 -14 -9 -34t3 -31v-5q5 -7 5.5 -12.5t-9.5 -5.5h-69q3 -13 1 -31q-1 -36 -4 -36h-13q0 -33 13 -32q-1 -24 0 -49q1 -4 2 -9t2 -9v-94l36 -18q25 19 38 19q0 -23 -4 -45
t-4 -44q-3 0 -11.5 -3t-19 -6.5t-20.5 -6.5t-15 -3q-7 0 -13.5 4.5t-17.5 4.5q-16 0 -20 -2t-11 -2q-9 0 -19.5 12t-19.5 28t-14.5 32t-5.5 25q0 19 5 42.5t5 48.5q0 11 -1.5 16.5t-3.5 9.5t-3.5 9t-1.5 15q0 24 5 34t5 24q0 11 -1 12q-6 52 -9 52h-54q3 0 -2.5 10t-5.5 30
q0 17 2.5 30t2.5 20q45 0 66 6q1 2 1 9q0 17 -5 31.5t-5 22.5q0 16 2 31.5t3 31.5zM122 372v9h-9v-9h9zM108 349v9h-9v-9h9zM162 278v13h-9v-13h9zM104 44v86h-9v-86h9zM122 67v31h-9v-31h9z" />
    <glyph glyph-name="u" unicode="u" horiz-adv-x="421" 
d="M299 448h-31v5q23 1 46.5 2.5t47.5 1.5q11 0 11.5 -13t1.5 -23q6 -62 5 -63l-9 -9q13 -13 6.5 -23.5t-6.5 -18.5q0 -13 5 -24.5t5 -20.5t-5 -23t-5 -31q0 -11 2.5 -18.5t2.5 -8.5q0 -13 -2.5 -22t-2.5 -18v-7q5 -21 2.5 -34.5t-2.5 -26.5q0 -1 1 -10t2.5 -20t3 -20
t2.5 -10h-117q-1 23 -9 31q-28 -45 -79 -45q-27 0 -15 23h-13v-19q-7 0 -19 6.5t-23 14.5t-19 14.5t-7 6.5q-5 0 -7 -2.5t-6 -2.5q-3 0 -11.5 14.5t-11.5 16.5l-13 50v179q0 10 -2 19t-2 19q0 6 4.5 23t4.5 24q0 4 -1 5q-2 19 -3 32.5t-1 23.5q0 8 12 7.5t19 -0.5
q23 0 45 -1.5t45 -3.5q-13 -14 -6 -23.5t7 -23.5q0 -12 -8 -15t-24 -5v-11h14q13 0 13 -7q-4 -19 -3 -26t-20 -7v-84h11v59l7 4q2 1 3 -16t1.5 -38.5t0.5 -40.5v-22q-5 -17 -5 -20q0 -34 14 -58.5t54 -24.5q10 0 19.5 7.5t17 19t12.5 25t5 24.5q0 8 -2.5 11t-2.5 7
q0 10 4 14v232l36 10v9zM326 233v9h-18v-9h18zM322 157v9h-9v-9h9z" />
    <glyph glyph-name="u" unicode="&#xf075;" horiz-adv-x="421" 
d="M299 448h-31v5q23 1 46.5 2.5t47.5 1.5q11 0 11.5 -13t1.5 -23q6 -62 5 -63l-9 -9q13 -13 6.5 -23.5t-6.5 -18.5q0 -13 5 -24.5t5 -20.5t-5 -23t-5 -31q0 -11 2.5 -18.5t2.5 -8.5q0 -13 -2.5 -22t-2.5 -18v-7q5 -21 2.5 -34.5t-2.5 -26.5q0 -1 1 -10t2.5 -20t3 -20
t2.5 -10h-117q-1 23 -9 31q-28 -45 -79 -45q-27 0 -15 23h-13v-19q-7 0 -19 6.5t-23 14.5t-19 14.5t-7 6.5q-5 0 -7 -2.5t-6 -2.5q-3 0 -11.5 14.5t-11.5 16.5l-13 50v179q0 10 -2 19t-2 19q0 6 4.5 23t4.5 24q0 4 -1 5q-2 19 -3 32.5t-1 23.5q0 8 12 7.5t19 -0.5
q23 0 45 -1.5t45 -3.5q-13 -14 -6 -23.5t7 -23.5q0 -12 -8 -15t-24 -5v-11h14q13 0 13 -7q-4 -19 -3 -26t-20 -7v-84h11v59l7 4q2 1 3 -16t1.5 -38.5t0.5 -40.5v-22q-5 -17 -5 -20q0 -34 14 -58.5t54 -24.5q10 0 19.5 7.5t17 19t12.5 25t5 24.5q0 8 -2.5 11t-2.5 7
q0 10 4 14v232l36 10v9zM326 233v9h-18v-9h18zM322 157v9h-9v-9h9z" />
    <glyph glyph-name="v" unicode="v" horiz-adv-x="332" 
d="M-22 462l44 -5q-3 0 -3 -10q22 0 26 10h40q-4 -8 -9 -17t-5 -11q0 -24 22 -24q-6 12 -3 25q3 16 8 11t11 -18.5t10.5 -29t6.5 -21.5q9 -32 9 -49q0 -23 4 -33.5t9 -29.5q1 -6 3 -26t5 -37.5t7 -24.5t7 11q16 97 45 198q6 15 9 26t5 19q1 18 0 36l116 -9l5 -9
q-16 -30 -18 -41q-6 -55 -40 -121q-1 0 -1 -4q0 -7 5 -9q-5 -2 -5 -11q0 -8 2.5 -9.5t2.5 -6.5q0 -16 -10 -37.5t-17 -25.5q-7 -18 -8.5 -39.5t-4.5 -36.5q-3 -10 -15.5 -16.5t-12.5 -10.5q0 -7 5 -9v-50q-17 6 -37 6h-37q-1 1 2 3q12 8 6 8t-19 -3.5t-27.5 -7.5t-19.5 -4
q0 13 -4.5 36.5t-6.5 29.5q-20 32 -26.5 61.5t-14.5 50.5q-4 41 -17.5 83t-27.5 74q-11 33 -14.5 59.5t-11.5 48.5zM108 323v62h-9v-62h9z" />
    <glyph glyph-name="v" unicode="&#xf076;" horiz-adv-x="332" 
d="M-22 462l44 -5q-3 0 -3 -10q22 0 26 10h40q-4 -8 -9 -17t-5 -11q0 -24 22 -24q-6 12 -3 25q3 16 8 11t11 -18.5t10.5 -29t6.5 -21.5q9 -32 9 -49q0 -23 4 -33.5t9 -29.5q1 -6 3 -26t5 -37.5t7 -24.5t7 11q16 97 45 198q6 15 9 26t5 19q1 18 0 36l116 -9l5 -9
q-16 -30 -18 -41q-6 -55 -40 -121q-1 0 -1 -4q0 -7 5 -9q-5 -2 -5 -11q0 -8 2.5 -9.5t2.5 -6.5q0 -16 -10 -37.5t-17 -25.5q-7 -18 -8.5 -39.5t-4.5 -36.5q-3 -10 -15.5 -16.5t-12.5 -10.5q0 -7 5 -9v-50q-17 6 -37 6h-37q-1 1 2 3q12 8 6 8t-19 -3.5t-27.5 -7.5t-19.5 -4
q0 13 -4.5 36.5t-6.5 29.5q-20 32 -26.5 61.5t-14.5 50.5q-4 41 -17.5 83t-27.5 74q-11 33 -14.5 59.5t-11.5 48.5zM108 323v62h-9v-62h9z" />
    <glyph glyph-name="w" unicode="w" horiz-adv-x="520" 
d="M-22 448h2q26 0 38.5 -3t12.5 -1l5 -9q1 -1 9 -1q5 0 26 5t32 5v-59q20 -37 23 -53l-1.5 -28.5t0.5 -17.5t3 -19t7 -34q1 -7 5.5 -18t9 -20t8 -12.5t3.5 5.5q0 35 6.5 73t7.5 71q13 8 12.5 25t0.5 24q9 18 11.5 32t2.5 31h112v-36q0 -9 -6.5 -15t-11 -9.5t-2 -5
t19.5 -1.5q3 0 6 -6.5t6 -15t5.5 -17t4.5 -11.5v-72q22 -7 27 -54q14 22 16 39.5t7 41.5q10 20 9 42.5t0 33.5q0 22 10.5 46t11.5 40h126q0 -10 -5 -18q-15 -20 -20 -48t-16 -55q-18 -49 -18 -77q0 -8 2.5 -14t2.5 -11q0 -13 -7.5 -28t-10.5 -23q-1 -3 -7 -29t-12.5 -55.5
t-14 -53.5t-11.5 -24h-112q-5 0 -7 7t-2.5 16t0 17t0.5 10q-12 19 -18.5 43.5t-10.5 50t-6 49t-5 41.5q-5 22 -7.5 27.5t-4 1.5t-3 -14t-3.5 -20q1 -13 1 -19.5t-1 -12.5t-3 -14.5t-6 -24.5q-2 -7 -8 -9.5t-6 -20.5q0 -4 2.5 -14.5t2.5 -23.5q0 -20 -9 -44.5t-9 -40.5l-5 -5
h-21q-24 0 -48 1.5t-47 3.5q-2 1 -6 8.5t-8 17t-6.5 18.5t-2.5 12q0 7 2.5 12.5t2.5 9.5q0 20 -12.5 44.5t-14.5 43.5q-3 19 -9 45q-5 13 -8 21.5t-1 18.5q-30 88 -45 180q-1 4 -4 4zM191 231q13 0 15 5t-1.5 8.5t-8.5 1.5t-5 -15zM220 224h-5v-5q0 -27 5 -27h11
q0 32 -11 32zM386 174q-1 -1 -1 -6q0 -40 24 -40q0 2 -2 12.5t-6.5 22.5t-10.5 12q-3 0 -4 -1zM130 76q-1 -5 -1 -10v-10q0 -37 21 -37q0 11 -3.5 17t-3.5 20l1.5 4t3.5 11q2 8 1 11q-18 0 -19 -6z" />
    <glyph glyph-name="w" unicode="&#xf077;" horiz-adv-x="520" 
d="M-22 448h2q26 0 38.5 -3t12.5 -1l5 -9q1 -1 9 -1q5 0 26 5t32 5v-59q20 -37 23 -53l-1.5 -28.5t0.5 -17.5t3 -19t7 -34q1 -7 5.5 -18t9 -20t8 -12.5t3.5 5.5q0 35 6.5 73t7.5 71q13 8 12.5 25t0.5 24q9 18 11.5 32t2.5 31h112v-36q0 -9 -6.5 -15t-11 -9.5t-2 -5
t19.5 -1.5q3 0 6 -6.5t6 -15t5.5 -17t4.5 -11.5v-72q22 -7 27 -54q14 22 16 39.5t7 41.5q10 20 9 42.5t0 33.5q0 22 10.5 46t11.5 40h126q0 -10 -5 -18q-15 -20 -20 -48t-16 -55q-18 -49 -18 -77q0 -8 2.5 -14t2.5 -11q0 -13 -7.5 -28t-10.5 -23q-1 -3 -7 -29t-12.5 -55.5
t-14 -53.5t-11.5 -24h-112q-5 0 -7 7t-2.5 16t0 17t0.5 10q-12 19 -18.5 43.5t-10.5 50t-6 49t-5 41.5q-5 22 -7.5 27.5t-4 1.5t-3 -14t-3.5 -20q1 -13 1 -19.5t-1 -12.5t-3 -14.5t-6 -24.5q-2 -7 -8 -9.5t-6 -20.5q0 -4 2.5 -14.5t2.5 -23.5q0 -20 -9 -44.5t-9 -40.5l-5 -5
h-21q-24 0 -48 1.5t-47 3.5q-2 1 -6 8.5t-8 17t-6.5 18.5t-2.5 12q0 7 2.5 12.5t2.5 9.5q0 20 -12.5 44.5t-14.5 43.5q-3 19 -9 45q-5 13 -8 21.5t-1 18.5q-30 88 -45 180q-1 4 -4 4zM191 231q13 0 15 5t-1.5 8.5t-8.5 1.5t-5 -15zM220 224h-5v-5q0 -27 5 -27h11
q0 32 -11 32zM386 174q-1 -1 -1 -6q0 -40 24 -40q0 2 -2 12.5t-6.5 22.5t-10.5 12q-3 0 -4 -1zM130 76q-1 -5 -1 -10v-10q0 -37 21 -37q0 11 -3.5 17t-3.5 20l1.5 4t3.5 11q2 8 1 11q-18 0 -19 -6z" />
    <glyph glyph-name="x" unicode="x" horiz-adv-x="358" 
d="M-9 455v2h40q5 -11 10 -12.5t15 -1.5q14 0 25.5 5t25.5 5q3 0 10 -9.5t15.5 -25.5t17.5 -37t16 -45q3 -12 8 -11t10 7t11 13.5t11 8.5q3 10 6 28t6.5 35t8.5 29t11 11h118q0 -30 -16 -51.5t-26 -47.5q-7 -18 -18.5 -29.5t-17.5 -19.5q-2 -9 -7.5 -18.5t-12 -18
t-11.5 -15.5t-5 -11t5 -15t12 -23t15.5 -21t14.5 -8v-49q13 0 23 -12.5t19.5 -30t19 -37t21.5 -33.5h-67q-1 0 -3 2.5t-6 2.5q-12 0 -18 -9h-36l-2 5.5t-7 16.5q-5 24 -13.5 42.5t-17.5 47.5q-6 13 -10 20.5t-8 20.5l-18 -18q-8 -28 -18 -54q-2 -5 -8.5 -12.5t-14 -16.5
t-13 -19t-5.5 -20q0 -5 5 -5.5t5 -5.5v-2l-36 4l-5 9h-22l-5 -9l-15 -2t-36 -2q-10 0 -7.5 12.5t10 28t16 30t10.5 19.5q11 23 25 40t29 40q13 23 15.5 35t20.5 24q-11 16 -21.5 31.5t-19.5 31.5q-8 13 -13 23t-9 17q-2 3 -12 14.5t-21.5 28t-20.5 34.5t-9 33zM103 349v-4
q0 -9 5 -18.5t12.5 -18t15.5 -14t13 -5.5q0 2 -3 11.5t-8.5 20.5t-13 20t-16.5 9q-4 0 -5 -1zM139 112v9h-9v-9h9z" />
    <glyph glyph-name="x" unicode="&#xf078;" horiz-adv-x="358" 
d="M-9 455v2h40q5 -11 10 -12.5t15 -1.5q14 0 25.5 5t25.5 5q3 0 10 -9.5t15.5 -25.5t17.5 -37t16 -45q3 -12 8 -11t10 7t11 13.5t11 8.5q3 10 6 28t6.5 35t8.5 29t11 11h118q0 -30 -16 -51.5t-26 -47.5q-7 -18 -18.5 -29.5t-17.5 -19.5q-2 -9 -7.5 -18.5t-12 -18
t-11.5 -15.5t-5 -11t5 -15t12 -23t15.5 -21t14.5 -8v-49q13 0 23 -12.5t19.5 -30t19 -37t21.5 -33.5h-67q-1 0 -3 2.5t-6 2.5q-12 0 -18 -9h-36l-2 5.5t-7 16.5q-5 24 -13.5 42.5t-17.5 47.5q-6 13 -10 20.5t-8 20.5l-18 -18q-8 -28 -18 -54q-2 -5 -8.5 -12.5t-14 -16.5
t-13 -19t-5.5 -20q0 -5 5 -5.5t5 -5.5v-2l-36 4l-5 9h-22l-5 -9l-15 -2t-36 -2q-10 0 -7.5 12.5t10 28t16 30t10.5 19.5q11 23 25 40t29 40q13 23 15.5 35t20.5 24q-11 16 -21.5 31.5t-19.5 31.5q-8 13 -13 23t-9 17q-2 3 -12 14.5t-21.5 28t-20.5 34.5t-9 33zM103 349v-4
q0 -9 5 -18.5t12.5 -18t15.5 -14t13 -5.5q0 2 -3 11.5t-8.5 20.5t-13 20t-16.5 9q-4 0 -5 -1zM139 112v9h-9v-9h9z" />
    <glyph glyph-name="y" unicode="y" horiz-adv-x="363" 
d="M252 430l27 -4q-3 0 -3 -16q21 0 38 6t43 6h8t8 -1l-5.5 -23.5t-12.5 -52.5t-13.5 -56t-8.5 -34q-8 -13 -13 -23.5t-5 -21.5q-2 -22 -5.5 -38.5t-8.5 -28.5q-13 -20 -12 -37t-1 -30q-4 -19 -14 -46t-13 -47q5 -38 -18 -50l-9 84h-9v-84q-10 3 -10 -13q0 -26 19 -27
q-16 -16 -27 -30.5t-22.5 -26t-25.5 -18t-35 -6.5q-4 0 -9.5 4.5t-11 9.5t-10.5 9.5t-7 4.5q-10 0 -9 -10h-27q-5 0 -5 26q0 13 1.5 25t3.5 25q4 10 12.5 5t20.5 -5q28 0 42.5 27t14.5 52q0 10 -14 19q-1 22 -8 47t-15.5 48t-17 43t-13.5 32q-1 1 -4 27q-2 21 -10 30.5
t-13 19.5q-2 4 -3.5 14t-3 22t-3 22t-3.5 14q-4 12 -18 18q-4 19 -8 44t-14 41h15q15 0 34.5 -1.5t44.5 -3.5l-9 -9q-14 -9 -15.5 -11.5t4 -1.5t15 3t16.5 2q34 0 34 -26q0 -5 -1.5 -12t-1.5 -8h16q2 0 7 -20t7 -29q2 -21 7.5 -39.5t11 -35.5t9.5 -34t4 -36q-6 0 -10 3t-9 3
q-12 0 -12 -22h21q-1 -10 9 -10q4 0 7.5 14.5t6.5 33t5.5 36t2.5 24.5q4 30 14.5 45t12.5 41q1 24 0 49q23 14 14 49zM256 44v9h-13v-9h13z" />
    <glyph glyph-name="y" unicode="&#xf079;" horiz-adv-x="363" 
d="M252 430l27 -4q-3 0 -3 -16q21 0 38 6t43 6h8t8 -1l-5.5 -23.5t-12.5 -52.5t-13.5 -56t-8.5 -34q-8 -13 -13 -23.5t-5 -21.5q-2 -22 -5.5 -38.5t-8.5 -28.5q-13 -20 -12 -37t-1 -30q-4 -19 -14 -46t-13 -47q5 -38 -18 -50l-9 84h-9v-84q-10 3 -10 -13q0 -26 19 -27
q-16 -16 -27 -30.5t-22.5 -26t-25.5 -18t-35 -6.5q-4 0 -9.5 4.5t-11 9.5t-10.5 9.5t-7 4.5q-10 0 -9 -10h-27q-5 0 -5 26q0 13 1.5 25t3.5 25q4 10 12.5 5t20.5 -5q28 0 42.5 27t14.5 52q0 10 -14 19q-1 22 -8 47t-15.5 48t-17 43t-13.5 32q-1 1 -4 27q-2 21 -10 30.5
t-13 19.5q-2 4 -3.5 14t-3 22t-3 22t-3.5 14q-4 12 -18 18q-4 19 -8 44t-14 41h15q15 0 34.5 -1.5t44.5 -3.5l-9 -9q-14 -9 -15.5 -11.5t4 -1.5t15 3t16.5 2q34 0 34 -26q0 -5 -1.5 -12t-1.5 -8h16q2 0 7 -20t7 -29q2 -21 7.5 -39.5t11 -35.5t9.5 -34t4 -36q-6 0 -10 3t-9 3
q-12 0 -12 -22h21q-1 -10 9 -10q4 0 7.5 14.5t6.5 33t5.5 36t2.5 24.5q4 30 14.5 45t12.5 41q1 24 0 49q23 14 14 49zM256 44v9h-13v-9h13z" />
    <glyph glyph-name="z" unicode="z" horiz-adv-x="341" 
d="M16 430q11 -2 22.5 -2.5t22.5 -1.5q47 -2 95 0q-9 -6 -27 -9v-7q39 0 58 16q18 2 40.5 3.5t49.5 1.5h18t18 -1q2 -22 5.5 -45t3.5 -45q0 -6 -9 -17q-35 -31 -55.5 -60.5t-43.5 -74.5q-9 -22 -17 -31t-14 -13.5t-10 -8t-4 -14.5q0 -12 -10.5 -26t-10.5 -21h166
q12 -20 17 -44t-9 -38l4 -5h-47h-47q-220 3 -220 5l-4 12v72q41 35 49 63q1 3 6.5 16t14 27.5t19 26t20.5 11.5q4 0 7.5 -3t9.5 -3q2 0 -4 3t-6 11q0 9 13.5 11.5t13.5 10.5q0 5 -2 10.5t-2 8.5q0 8 5.5 18t13 19.5t14 18t7.5 13.5h-135q-18 8 -24.5 17t-6.5 18t2.5 18
t1.5 17q0 13 -9 22zM87 398q11 0 22 2.5l11 2.5v9q0 5 -23 5q-10 0 -10 -19zM97 130v-9q0 -27 5 -27h10v11t-1 11q-1 15 -9 15q-4 0 -5 -1zM111 22v36h-9v-36h9z" />
    <glyph glyph-name="z" unicode="&#xf07a;" horiz-adv-x="341" 
d="M16 430q11 -2 22.5 -2.5t22.5 -1.5q47 -2 95 0q-9 -6 -27 -9v-7q39 0 58 16q18 2 40.5 3.5t49.5 1.5h18t18 -1q2 -22 5.5 -45t3.5 -45q0 -6 -9 -17q-35 -31 -55.5 -60.5t-43.5 -74.5q-9 -22 -17 -31t-14 -13.5t-10 -8t-4 -14.5q0 -12 -10.5 -26t-10.5 -21h166
q12 -20 17 -44t-9 -38l4 -5h-47h-47q-220 3 -220 5l-4 12v72q41 35 49 63q1 3 6.5 16t14 27.5t19 26t20.5 11.5q4 0 7.5 -3t9.5 -3q2 0 -4 3t-6 11q0 9 13.5 11.5t13.5 10.5q0 5 -2 10.5t-2 8.5q0 8 5.5 18t13 19.5t14 18t7.5 13.5h-135q-18 8 -24.5 17t-6.5 18t2.5 18
t1.5 17q0 13 -9 22zM87 398q11 0 22 2.5l11 2.5v9q0 5 -23 5q-10 0 -10 -19zM97 130v-9q0 -27 5 -27h10v11t-1 11q-1 15 -9 15q-4 0 -5 -1zM111 22v36h-9v-36h9z" />
    <glyph glyph-name="braceleft" unicode="{" horiz-adv-x="367" 
d="M281 601q8 -25 5 -63l4 -5q-49 -19 -49 -73q0 -16 2.5 -26.5t2.5 -18.5t-4 -4t-14 4q-1 -3 0 -7q3 -36 4 -36l9 -5q1 -1 1 -16q0 -47 -19 -77.5t-54 -58.5q-3 -3 4 -12t17 -18.5t19 -18t10 -9.5q5 -13 9 -18q15 -11 11.5 -18t-3.5 -18t2.5 -16t2.5 -13q0 -16 -2.5 -23.5
t-2.5 -20.5q0 -4 5 -12.5t5 -19.5q0 -19 -5 -31.5t-4 -24.5q4 -40 53 -63q-1 -1 -1.5 -10.5t-2 -20t-3.5 -19t-6 -8.5q-62 0 -94 45q-3 4 -11 20t-16 20q2 23 0 41.5t-4 36.5t-2 38t6 45v4q0 57 -54 95q-4 3 -4 4v76q0 6 17 9q8 -1 15.5 9t13 25t9 31t3.5 26q0 3 -2.5 11.5
t-2.5 21.5q0 6 2.5 11.5l2.5 5.5q0 17 -2.5 21t-2.5 20v16q6 25 6 41t3 30q2 22 25.5 40t42.5 28h6q8 0 9 -2.5t7 -2.5q14 0 31 14zM232 480v13h-9v-13h9zM232 444v27h-9v-27h9zM196 62v9h-9v-9h9zM223 17h-9v-11q0 -27 15 -27q0 6 -1.5 22t-4.5 16zM228 -49v9h-9v-9h9z" />
    <glyph glyph-name="braceleft" unicode="&#xf07b;" horiz-adv-x="367" 
d="M281 601q8 -25 5 -63l4 -5q-49 -19 -49 -73q0 -16 2.5 -26.5t2.5 -18.5t-4 -4t-14 4q-1 -3 0 -7q3 -36 4 -36l9 -5q1 -1 1 -16q0 -47 -19 -77.5t-54 -58.5q-3 -3 4 -12t17 -18.5t19 -18t10 -9.5q5 -13 9 -18q15 -11 11.5 -18t-3.5 -18t2.5 -16t2.5 -13q0 -16 -2.5 -23.5
t-2.5 -20.5q0 -4 5 -12.5t5 -19.5q0 -19 -5 -31.5t-4 -24.5q4 -40 53 -63q-1 -1 -1.5 -10.5t-2 -20t-3.5 -19t-6 -8.5q-62 0 -94 45q-3 4 -11 20t-16 20q2 23 0 41.5t-4 36.5t-2 38t6 45v4q0 57 -54 95q-4 3 -4 4v76q0 6 17 9q8 -1 15.5 9t13 25t9 31t3.5 26q0 3 -2.5 11.5
t-2.5 21.5q0 6 2.5 11.5l2.5 5.5q0 17 -2.5 21t-2.5 20v16q6 25 6 41t3 30q2 22 25.5 40t42.5 28h6q8 0 9 -2.5t7 -2.5q14 0 31 14zM232 480v13h-9v-13h9zM232 444v27h-9v-27h9zM196 62v9h-9v-9h9zM223 17h-9v-11q0 -27 15 -27q0 6 -1.5 22t-4.5 16zM228 -49v9h-9v-9h9z" />
    <glyph glyph-name="bar" unicode="|" horiz-adv-x="367" 
d="M148 715q11 0 22 -0.5t22 -1.5q20 -3 17 -13t-3 -23v-9q2 -17 3.5 -27.5t1.5 -15.5q0 -24 -2 -30t-5 -7.5t-5 -4.5t-2 -21q0 -20 -18 -24q-21 -5 -21 -16t-2 -20q-4 -14 -6.5 -17t-4 0t-2 10.5t-0.5 15.5q0 13 2.5 26t2.5 26q0 20 -4.5 51.5t-4.5 62.5q0 8 4.5 21.5
t4.5 16.5zM206 542q9 -6 9 -18q-8 -17 -9 -26q-1 -2 -1 -34q0 -12 2.5 -24t2.5 -23v-36q3 -19 4 -32t1 -23q0 -13 -5 -21.5t-5 -10.5q0 -16 5 -26t5 -17q-9 -13 -9 -20q0 -14 4.5 -25.5t4.5 -19.5q0 -22 -4 -41t-5 -29q-1 -1 -1 -20t1 -20q5 -7 2.5 -17.5t-2.5 -14.5v-29
v-32q2 -28 2.5 -48t1.5 -33q1 -2 1 -21q0 -28 -3 -44.5t-3 -33.5h-58q-10 0 -7 15.5t3 26.5v7q-6 16 -0.5 26.5t5.5 18.5q0 23 -4.5 40.5t-4.5 29.5v2q1 35 2 55t2 25q2 12 3 21t1 15q1 2 1 23q0 20 -2.5 27t-2.5 18v8q2 31 3 54.5t1 39.5q1 3 1 36q0 61 -9 99v2
q0 4 2.5 16.5t6 26.5t8 27t9.5 18q-1 -10 15 -10q-5 20 2 40t24 32zM191 206h15v15q-15 0 -15 -15zM179 179v-9q0 -18 4.5 -18.5t7.5 6t2.5 14.5t-10.5 8q-3 0 -4 -1zM206 -134v9h-9v-9h9z" />
    <glyph glyph-name="bar" unicode="&#xf07c;" horiz-adv-x="367" 
d="M148 715q11 0 22 -0.5t22 -1.5q20 -3 17 -13t-3 -23v-9q2 -17 3.5 -27.5t1.5 -15.5q0 -24 -2 -30t-5 -7.5t-5 -4.5t-2 -21q0 -20 -18 -24q-21 -5 -21 -16t-2 -20q-4 -14 -6.5 -17t-4 0t-2 10.5t-0.5 15.5q0 13 2.5 26t2.5 26q0 20 -4.5 51.5t-4.5 62.5q0 8 4.5 21.5
t4.5 16.5zM206 542q9 -6 9 -18q-8 -17 -9 -26q-1 -2 -1 -34q0 -12 2.5 -24t2.5 -23v-36q3 -19 4 -32t1 -23q0 -13 -5 -21.5t-5 -10.5q0 -16 5 -26t5 -17q-9 -13 -9 -20q0 -14 4.5 -25.5t4.5 -19.5q0 -22 -4 -41t-5 -29q-1 -1 -1 -20t1 -20q5 -7 2.5 -17.5t-2.5 -14.5v-29
v-32q2 -28 2.5 -48t1.5 -33q1 -2 1 -21q0 -28 -3 -44.5t-3 -33.5h-58q-10 0 -7 15.5t3 26.5v7q-6 16 -0.5 26.5t5.5 18.5q0 23 -4.5 40.5t-4.5 29.5v2q1 35 2 55t2 25q2 12 3 21t1 15q1 2 1 23q0 20 -2.5 27t-2.5 18v8q2 31 3 54.5t1 39.5q1 3 1 36q0 61 -9 99v2
q0 4 2.5 16.5t6 26.5t8 27t9.5 18q-1 -10 15 -10q-5 20 2 40t24 32zM191 206h15v15q-15 0 -15 -15zM179 179v-9q0 -18 4.5 -18.5t7.5 6t2.5 14.5t-10.5 8q-3 0 -4 -1zM206 -134v9h-9v-9h9z" />
    <glyph glyph-name="braceright" unicode="}" horiz-adv-x="367" 
d="M94 659q2 -14 21 -14q15 0 30.5 -6t25.5 -16q15 -18 16.5 -32.5t-0.5 -24t-3.5 -14.5t7.5 -5q4 0 7 -8t5 -17.5t3 -16.5t1 -5q0 -13 -9 -34q-2 26 -18 26q0 -11 3.5 -18t7.5 -12.5t7.5 -10.5t3.5 -13v-12q-4 -22 -4.5 -29t-0.5 -27q0 -10 10.5 -20t23.5 -21.5t23.5 -24.5
t10.5 -29q0 -7 -1.5 -19l-3.5 -28q0 -3 -4 -4q-53 -31 -58 -81q-3 -25 -5 -39l-4 -28q-3 -14 -18 -14v-88h11v75q0 9 11 9q5 0 6 -12.5t3 -19.5q1 -3 5 -4q-6 -16 -9 -30q-3 -11 -9 -27t-14 -36q0 -16 -14.5 -22.5t-21.5 -13.5q-11 -9 -13 -9h-54v58q23 11 34 35.5t11 41.5
q0 13 -2.5 23.5t-2.5 17.5q0 8 2.5 13.5t2.5 9.5q0 9 -4.5 15t-4.5 11q0 23 2.5 38t7 27t10 24t11.5 30q11 4 28 12.5t17 16.5q0 21 -13 25q-37 14 -50 53t-13 84q0 19 4.5 38t4.5 37q0 9 -2.5 22.5t-7.5 27.5t-12.5 27t-18.5 21q-8 35 -9 47t27 20z" />
    <glyph glyph-name="braceright" unicode="&#xf07d;" horiz-adv-x="367" 
d="M94 659q2 -14 21 -14q15 0 30.5 -6t25.5 -16q15 -18 16.5 -32.5t-0.5 -24t-3.5 -14.5t7.5 -5q4 0 7 -8t5 -17.5t3 -16.5t1 -5q0 -13 -9 -34q-2 26 -18 26q0 -11 3.5 -18t7.5 -12.5t7.5 -10.5t3.5 -13v-12q-4 -22 -4.5 -29t-0.5 -27q0 -10 10.5 -20t23.5 -21.5t23.5 -24.5
t10.5 -29q0 -7 -1.5 -19l-3.5 -28q0 -3 -4 -4q-53 -31 -58 -81q-3 -25 -5 -39l-4 -28q-3 -14 -18 -14v-88h11v75q0 9 11 9q5 0 6 -12.5t3 -19.5q1 -3 5 -4q-6 -16 -9 -30q-3 -11 -9 -27t-14 -36q0 -16 -14.5 -22.5t-21.5 -13.5q-11 -9 -13 -9h-54v58q23 11 34 35.5t11 41.5
q0 13 -2.5 23.5t-2.5 17.5q0 8 2.5 13.5t2.5 9.5q0 9 -4.5 15t-4.5 11q0 23 2.5 38t7 27t10 24t11.5 30q11 4 28 12.5t17 16.5q0 21 -13 25q-37 14 -50 53t-13 84q0 19 4.5 38t4.5 37q0 9 -2.5 22.5t-7.5 27.5t-12.5 27t-18.5 21q-8 35 -9 47t27 20z" />
    <glyph glyph-name="asciitilde" unicode="~" horiz-adv-x="341" 
d="M26 277q0 17 6 40.5t11 36.5q11 36 62 36q35 0 60 -13.5t45 -13.5q6 0 13.5 14t10.5 14q9 0 10.5 -7.5t9.5 -7.5q10 0 9 9h38q0 -16 -7 -35.5t-20.5 -36.5t-33.5 -28.5t-46 -11.5q-19 0 -38.5 13.5t-35.5 13.5q-3 0 -13 -1t-10 -8q0 -4 -9 -6.5t-20.5 -4t-23.5 -2.5
t-18 -1zM142 383v-11q0 -5 29 -5q0 16 -29 16z" />
    <glyph glyph-name="asciitilde" unicode="&#xf07e;" horiz-adv-x="341" 
d="M26 277q0 17 6 40.5t11 36.5q11 36 62 36q35 0 60 -13.5t45 -13.5q6 0 13.5 14t10.5 14q9 0 10.5 -7.5t9.5 -7.5q10 0 9 9h38q0 -16 -7 -35.5t-20.5 -36.5t-33.5 -28.5t-46 -11.5q-19 0 -38.5 13.5t-35.5 13.5q-3 0 -13 -1t-10 -8q0 -4 -9 -6.5t-20.5 -4t-23.5 -2.5
t-18 -1zM142 383v-11q0 -5 29 -5q0 16 -29 16z" />
    <glyph glyph-name="afii10052" horiz-adv-x="376" 
d="M231 668h-89q0 18 5 23q10 -1 14 4t5 13.5t0 17t-1 14.5q0 -2 2 5t5.5 16t7.5 16.5t9 7.5h3l58 -2t58 -3q-22 -25 -39 -47.5t-28 -41.5q-10 -16 -10 -23zM210 735v23h-9v-23h9zM48 614l40 -4q-9 -32 13 -32q17 0 17 18h-13q0 14 16.5 14h27.5h34q46 -1 92 -2.5t92 -2.5
q1 -2 1 -11q0 -10 -1 -11q-11 -8 -10.5 -15.5t6 -18t13 -25t9.5 -35.5l-9 4h-202q-3 0 -4.5 -16t-3 -37t-2 -40.5t-0.5 -25.5q-3 0 -6 8.5t-6 18.5t-6.5 18.5t-7.5 8.5q0 -30 4 -47q3 -15 9 -18q11 -5 15 -14.5t5 -21.5t1 -26t2 -28v-7q0 -12 -4.5 -22t-4.5 -16
q11 -20 5 -39t-6 -42q0 -11 1.5 -17.5t3.5 -11.5t3.5 -10.5t1.5 -15.5q0 -22 -5 -32t-5 -22q0 -14 10 -30q-1 -4 -17 -4h-15q-89 3 -90 4l-4 9v95q0 4 -2 8.5t-2 8.5q0 18 2 34t2 28v37q-2 23 -3 39.5t-1 28.5v4q4 20 4 25v25q0 8 -2 20t-2 27q0 10 2 17t2 9q0 3 -2 11
t-2 21q0 12 4.5 18.5t4.5 7.5q0 6 -4.5 20.5t-4.5 22.5v5v4q6 41 4 81zM151 598v-11q0 -3 18 -4q20 -4 13 5.5t-31 9.5zM92 203q0 -28 12.5 -36t28.5 -24q12 -4 11.5 7.5t-5.5 27t-11.5 29t-7.5 13.5q-8 0 -13.5 -8.5t-14.5 -8.5zM120 174h-9v23z" />
    <glyph glyph-name="afii10052" unicode="&#xf081;" horiz-adv-x="376" 
d="M231 668h-89q0 18 5 23q10 -1 14 4t5 13.5t0 17t-1 14.5q0 -2 2 5t5.5 16t7.5 16.5t9 7.5h3l58 -2t58 -3q-22 -25 -39 -47.5t-28 -41.5q-10 -16 -10 -23zM210 735v23h-9v-23h9zM48 614l40 -4q-9 -32 13 -32q17 0 17 18h-13q0 14 16.5 14h27.5h34q46 -1 92 -2.5t92 -2.5
q1 -2 1 -11q0 -10 -1 -11q-11 -8 -10.5 -15.5t6 -18t13 -25t9.5 -35.5l-9 4h-202q-3 0 -4.5 -16t-3 -37t-2 -40.5t-0.5 -25.5q-3 0 -6 8.5t-6 18.5t-6.5 18.5t-7.5 8.5q0 -30 4 -47q3 -15 9 -18q11 -5 15 -14.5t5 -21.5t1 -26t2 -28v-7q0 -12 -4.5 -22t-4.5 -16
q11 -20 5 -39t-6 -42q0 -11 1.5 -17.5t3.5 -11.5t3.5 -10.5t1.5 -15.5q0 -22 -5 -32t-5 -22q0 -14 10 -30q-1 -4 -17 -4h-15q-89 3 -90 4l-4 9v95q0 4 -2 8.5t-2 8.5q0 18 2 34t2 28v37q-2 23 -3 39.5t-1 28.5v4q4 20 4 25v25q0 8 -2 20t-2 27q0 10 2 17t2 9q0 3 -2 11
t-2 21q0 12 4.5 18.5t4.5 7.5q0 6 -4.5 20.5t-4.5 22.5v5v4q6 41 4 81zM151 598v-11q0 -3 18 -4q20 -4 13 5.5t-31 9.5zM92 203q0 -28 12.5 -36t28.5 -24q12 -4 11.5 7.5t-5.5 27t-11.5 29t-7.5 13.5q-8 0 -13.5 -8.5t-14.5 -8.5zM120 174h-9v23z" />
    <glyph glyph-name="afii10052" unicode="&#x403;" horiz-adv-x="376" 
d="M231 668h-89q0 18 5 23q10 -1 14 4t5 13.5t0 17t-1 14.5q0 -2 2 5t5.5 16t7.5 16.5t9 7.5h3l58 -2t58 -3q-22 -25 -39 -47.5t-28 -41.5q-10 -16 -10 -23zM210 735v23h-9v-23h9zM48 614l40 -4q-9 -32 13 -32q17 0 17 18h-13q0 14 16.5 14h27.5h34q46 -1 92 -2.5t92 -2.5
q1 -2 1 -11q0 -10 -1 -11q-11 -8 -10.5 -15.5t6 -18t13 -25t9.5 -35.5l-9 4h-202q-3 0 -4.5 -16t-3 -37t-2 -40.5t-0.5 -25.5q-3 0 -6 8.5t-6 18.5t-6.5 18.5t-7.5 8.5q0 -30 4 -47q3 -15 9 -18q11 -5 15 -14.5t5 -21.5t1 -26t2 -28v-7q0 -12 -4.5 -22t-4.5 -16
q11 -20 5 -39t-6 -42q0 -11 1.5 -17.5t3.5 -11.5t3.5 -10.5t1.5 -15.5q0 -22 -5 -32t-5 -22q0 -14 10 -30q-1 -4 -17 -4h-15q-89 3 -90 4l-4 9v95q0 4 -2 8.5t-2 8.5q0 18 2 34t2 28v37q-2 23 -3 39.5t-1 28.5v4q4 20 4 25v25q0 8 -2 20t-2 27q0 10 2 17t2 9q0 3 -2 11
t-2 21q0 12 4.5 18.5t4.5 7.5q0 6 -4.5 20.5t-4.5 22.5v5v4q6 41 4 81zM151 598v-11q0 -3 18 -4q20 -4 13 5.5t-31 9.5zM92 203q0 -28 12.5 -36t28.5 -24q12 -4 11.5 7.5t-5.5 27t-11.5 29t-7.5 13.5q-8 0 -13.5 -8.5t-14.5 -8.5zM120 174h-9v23z" />
    <glyph glyph-name="afii10061" horiz-adv-x="457" 
d="M196 711h14l8 29h113l4 -5q6 -6 -27 -44q-12 -6 -18 -17t-9.5 -22.5t-8 -20t-13.5 -8.5h-94q11 21 18.5 43t12.5 45zM205 677v14h-9v-14h9zM322 569h4q43 3 69.5 4t49.5 1q12 0 8.5 -12.5t-14 -29.5t-24 -34.5t-22.5 -26.5q-25 -29 -44 -62.5t-41 -59.5q2 15 -9 15
q-2 0 -7.5 -10.5t-11 -24t-10 -26.5t-4.5 -19q4 0 15.5 -17t26.5 -41t31.5 -50t31.5 -46q19 -24 27 -36q12 -25 18 -37t22 -26l41 -71h-157q-3 0 -5 7t-3.5 15.5t-3 16t-2.5 9.5q-24 19 -35 50t-19 49q-5 14 -22 27q-8 8 -17.5 34t-18.5 42q-5 15 -11.5 28.5t-10.5 16.5
q1 -13 -4.5 -32.5t-5.5 -32.5l10 -38q0 -8 -9.5 -22t-9.5 -18q0 -13 9.5 -18.5t9.5 -17.5q0 -4 -14 -9q-4 -17 -4 -57q18 0 18 -14q0 -16 -9 -31l4 -5h-2h-2l-117 9l-4 5q-1 2 -0.5 16.5t0.5 33.5v79q2 15 2.5 22.5t1 13.5t0.5 14v23v30q-4 7 -4 13v11q0 22 4 34v148
q0 5 -2 11t-2 12v34q0 28 1 52t3 44h29v-19q0 -3 3.5 -1.5t7.5 5l8 7t6 3.5q5 0 9 -4q5 -6 9.5 -6t7 2.5t2 5.5t-5.5 2h50q-4 0 -6 -5t-3 -8q12 -23 8.5 -46t-22.5 -23q-8 -3 -6.5 -7t7 -7.5t11.5 -6.5t6 -4v-59q-9 2 -11.5 -10.5t-2.5 -27.5q0 -6 0.5 -7.5t2 -4t4.5 -8
t7 -18.5q1 -3 5 -4q6 10 16.5 21.5t14.5 18.5q1 1 2 4.5t3 8.5q9 34 28.5 61.5t42.5 55.5q7 14 13.5 29t13.5 29q4 7 7 13.5t7 13.5zM331 471v9h-9v-9h9zM276 403q14 0 17 -11.5t13 -9.5q0 35 -21 35q-9 0 -9 -14zM97 161q-5 -28 -5 -54h32v20q1 2 -6.5 -3t-10.5 -2
q0 8 13 12v49q0 2 -14 -17q-3 -5 -9 -5z" />
    <glyph glyph-name="afii10061" unicode="&#xf08d;" horiz-adv-x="457" 
d="M196 711h14l8 29h113l4 -5q6 -6 -27 -44q-12 -6 -18 -17t-9.5 -22.5t-8 -20t-13.5 -8.5h-94q11 21 18.5 43t12.5 45zM205 677v14h-9v-14h9zM322 569h4q43 3 69.5 4t49.5 1q12 0 8.5 -12.5t-14 -29.5t-24 -34.5t-22.5 -26.5q-25 -29 -44 -62.5t-41 -59.5q2 15 -9 15
q-2 0 -7.5 -10.5t-11 -24t-10 -26.5t-4.5 -19q4 0 15.5 -17t26.5 -41t31.5 -50t31.5 -46q19 -24 27 -36q12 -25 18 -37t22 -26l41 -71h-157q-3 0 -5 7t-3.5 15.5t-3 16t-2.5 9.5q-24 19 -35 50t-19 49q-5 14 -22 27q-8 8 -17.5 34t-18.5 42q-5 15 -11.5 28.5t-10.5 16.5
q1 -13 -4.5 -32.5t-5.5 -32.5l10 -38q0 -8 -9.5 -22t-9.5 -18q0 -13 9.5 -18.5t9.5 -17.5q0 -4 -14 -9q-4 -17 -4 -57q18 0 18 -14q0 -16 -9 -31l4 -5h-2h-2l-117 9l-4 5q-1 2 -0.5 16.5t0.5 33.5v79q2 15 2.5 22.5t1 13.5t0.5 14v23v30q-4 7 -4 13v11q0 22 4 34v148
q0 5 -2 11t-2 12v34q0 28 1 52t3 44h29v-19q0 -3 3.5 -1.5t7.5 5l8 7t6 3.5q5 0 9 -4q5 -6 9.5 -6t7 2.5t2 5.5t-5.5 2h50q-4 0 -6 -5t-3 -8q12 -23 8.5 -46t-22.5 -23q-8 -3 -6.5 -7t7 -7.5t11.5 -6.5t6 -4v-59q-9 2 -11.5 -10.5t-2.5 -27.5q0 -6 0.5 -7.5t2 -4t4.5 -8
t7 -18.5q1 -3 5 -4q6 10 16.5 21.5t14.5 18.5q1 1 2 4.5t3 8.5q9 34 28.5 61.5t42.5 55.5q7 14 13.5 29t13.5 29q4 7 7 13.5t7 13.5zM331 471v9h-9v-9h9zM276 403q14 0 17 -11.5t13 -9.5q0 35 -21 35q-9 0 -9 -14zM97 161q-5 -28 -5 -54h32v20q1 2 -6.5 -3t-10.5 -2
q0 8 13 12v49q0 2 -14 -17q-3 -5 -9 -5z" />
    <glyph glyph-name="afii10061" unicode="&#x40c;" horiz-adv-x="457" 
d="M196 711h14l8 29h113l4 -5q6 -6 -27 -44q-12 -6 -18 -17t-9.5 -22.5t-8 -20t-13.5 -8.5h-94q11 21 18.5 43t12.5 45zM205 677v14h-9v-14h9zM322 569h4q43 3 69.5 4t49.5 1q12 0 8.5 -12.5t-14 -29.5t-24 -34.5t-22.5 -26.5q-25 -29 -44 -62.5t-41 -59.5q2 15 -9 15
q-2 0 -7.5 -10.5t-11 -24t-10 -26.5t-4.5 -19q4 0 15.5 -17t26.5 -41t31.5 -50t31.5 -46q19 -24 27 -36q12 -25 18 -37t22 -26l41 -71h-157q-3 0 -5 7t-3.5 15.5t-3 16t-2.5 9.5q-24 19 -35 50t-19 49q-5 14 -22 27q-8 8 -17.5 34t-18.5 42q-5 15 -11.5 28.5t-10.5 16.5
q1 -13 -4.5 -32.5t-5.5 -32.5l10 -38q0 -8 -9.5 -22t-9.5 -18q0 -13 9.5 -18.5t9.5 -17.5q0 -4 -14 -9q-4 -17 -4 -57q18 0 18 -14q0 -16 -9 -31l4 -5h-2h-2l-117 9l-4 5q-1 2 -0.5 16.5t0.5 33.5v79q2 15 2.5 22.5t1 13.5t0.5 14v23v30q-4 7 -4 13v11q0 22 4 34v148
q0 5 -2 11t-2 12v34q0 28 1 52t3 44h29v-19q0 -3 3.5 -1.5t7.5 5l8 7t6 3.5q5 0 9 -4q5 -6 9.5 -6t7 2.5t2 5.5t-5.5 2h50q-4 0 -6 -5t-3 -8q12 -23 8.5 -46t-22.5 -23q-8 -3 -6.5 -7t7 -7.5t11.5 -6.5t6 -4v-59q-9 2 -11.5 -10.5t-2.5 -27.5q0 -6 0.5 -7.5t2 -4t4.5 -8
t7 -18.5q1 -3 5 -4q6 10 16.5 21.5t14.5 18.5q1 1 2 4.5t3 8.5q9 34 28.5 61.5t42.5 55.5q7 14 13.5 29t13.5 29q4 7 7 13.5t7 13.5zM331 471v9h-9v-9h9zM276 403q14 0 17 -11.5t13 -9.5q0 35 -21 35q-9 0 -9 -14zM97 161q-5 -28 -5 -54h32v20q1 2 -6.5 -3t-10.5 -2
q0 8 13 12v49q0 2 -14 -17q-3 -5 -9 -5z" />
    <glyph glyph-name="afii10109" horiz-adv-x="363" 
d="M174 596q22 2 45 3t45 2q21 0 19.5 -14.5t-11.5 -32t-23.5 -33.5t-16.5 -19q-2 -11 -14 -16t-27 -6.5t-28.5 -1t-19.5 0.5q-11 0 -14 1q18 21 24.5 51.5t16.5 55.5q1 3 2 5zM39 435q25 -5 51.5 -6.5t52.5 -2.5q5 -12 5 -23q0 -10 -5 -13q-13 -8 -12.5 -11t6.5 -4t13 -1.5
t7 -3.5q0 -7 -7 -12.5t-7 -7.5q0 -22 4 -44.5t0 -41.5q5 -9 11 -1.5t13 20.5t12.5 26.5t8.5 17.5q15 19 25 42.5t15 33.5q1 3 4.5 8t8 10.5t7.5 9.5l3 4h112q-10 -22 -22 -43.5t-27 -42.5q-6 -6 -20 -23t-28.5 -36t-26 -35.5t-11.5 -21.5v-9q9 -6 19 -22t20.5 -36.5t22 -42
t24.5 -38.5q14 -12 22.5 -25t15 -25.5t12.5 -24.5t17 -23h-139q1 0 -7.5 18.5t-19 41t-20 42.5t-11.5 23q-1 3 -7 16.5t-12.5 25t-12 15t-5.5 -11.5q0 -13 2.5 -19t2.5 -15q0 -21 -4 -25q-4 6 -10 6q0 -30 5 -28q2 -14 3.5 -23t1.5 -13q0 -8 -2.5 -14.5t-2.5 -12.5t5 -21
q-52 -6 -119 -6q0 20 3.5 37t3.5 33q0 10 -2.5 18t-2.5 13q0 15 5 15.5t5 9.5q0 10 -7 21t-7 20q0 4 4.5 12.5t4.5 19.5q0 17 -2 26t-3 16t0.5 14t8.5 19q21 16 18 27t-14 0q0 -1 -6.5 -6t-6.5 -1v2q5 15 2.5 22t-2.5 19q0 11 2.5 17.5l2.5 6.5q0 22 -4.5 36.5t-4.5 27.5
q0 10 8 24zM116 197v13h-9v-13h9zM147 121v18h-9v-18h9zM255 107v27h-9v-27h9zM116 62v14h-9v-14h9z" />
    <glyph glyph-name="afii10109" unicode="&#xf09d;" horiz-adv-x="363" 
d="M174 596q22 2 45 3t45 2q21 0 19.5 -14.5t-11.5 -32t-23.5 -33.5t-16.5 -19q-2 -11 -14 -16t-27 -6.5t-28.5 -1t-19.5 0.5q-11 0 -14 1q18 21 24.5 51.5t16.5 55.5q1 3 2 5zM39 435q25 -5 51.5 -6.5t52.5 -2.5q5 -12 5 -23q0 -10 -5 -13q-13 -8 -12.5 -11t6.5 -4t13 -1.5
t7 -3.5q0 -7 -7 -12.5t-7 -7.5q0 -22 4 -44.5t0 -41.5q5 -9 11 -1.5t13 20.5t12.5 26.5t8.5 17.5q15 19 25 42.5t15 33.5q1 3 4.5 8t8 10.5t7.5 9.5l3 4h112q-10 -22 -22 -43.5t-27 -42.5q-6 -6 -20 -23t-28.5 -36t-26 -35.5t-11.5 -21.5v-9q9 -6 19 -22t20.5 -36.5t22 -42
t24.5 -38.5q14 -12 22.5 -25t15 -25.5t12.5 -24.5t17 -23h-139q1 0 -7.5 18.5t-19 41t-20 42.5t-11.5 23q-1 3 -7 16.5t-12.5 25t-12 15t-5.5 -11.5q0 -13 2.5 -19t2.5 -15q0 -21 -4 -25q-4 6 -10 6q0 -30 5 -28q2 -14 3.5 -23t1.5 -13q0 -8 -2.5 -14.5t-2.5 -12.5t5 -21
q-52 -6 -119 -6q0 20 3.5 37t3.5 33q0 10 -2.5 18t-2.5 13q0 15 5 15.5t5 9.5q0 10 -7 21t-7 20q0 4 4.5 12.5t4.5 19.5q0 17 -2 26t-3 16t0.5 14t8.5 19q21 16 18 27t-14 0q0 -1 -6.5 -6t-6.5 -1v2q5 15 2.5 22t-2.5 19q0 11 2.5 17.5l2.5 6.5q0 22 -4.5 36.5t-4.5 27.5
q0 10 8 24zM116 197v13h-9v-13h9zM147 121v18h-9v-18h9zM255 107v27h-9v-27h9zM116 62v14h-9v-14h9z" />
    <glyph glyph-name="afii10109" unicode="&#x45c;" horiz-adv-x="363" 
d="M174 596q22 2 45 3t45 2q21 0 19.5 -14.5t-11.5 -32t-23.5 -33.5t-16.5 -19q-2 -11 -14 -16t-27 -6.5t-28.5 -1t-19.5 0.5q-11 0 -14 1q18 21 24.5 51.5t16.5 55.5q1 3 2 5zM39 435q25 -5 51.5 -6.5t52.5 -2.5q5 -12 5 -23q0 -10 -5 -13q-13 -8 -12.5 -11t6.5 -4t13 -1.5
t7 -3.5q0 -7 -7 -12.5t-7 -7.5q0 -22 4 -44.5t0 -41.5q5 -9 11 -1.5t13 20.5t12.5 26.5t8.5 17.5q15 19 25 42.5t15 33.5q1 3 4.5 8t8 10.5t7.5 9.5l3 4h112q-10 -22 -22 -43.5t-27 -42.5q-6 -6 -20 -23t-28.5 -36t-26 -35.5t-11.5 -21.5v-9q9 -6 19 -22t20.5 -36.5t22 -42
t24.5 -38.5q14 -12 22.5 -25t15 -25.5t12.5 -24.5t17 -23h-139q1 0 -7.5 18.5t-19 41t-20 42.5t-11.5 23q-1 3 -7 16.5t-12.5 25t-12 15t-5.5 -11.5q0 -13 2.5 -19t2.5 -15q0 -21 -4 -25q-4 6 -10 6q0 -30 5 -28q2 -14 3.5 -23t1.5 -13q0 -8 -2.5 -14.5t-2.5 -12.5t5 -21
q-52 -6 -119 -6q0 20 3.5 37t3.5 33q0 10 -2.5 18t-2.5 13q0 15 5 15.5t5 9.5q0 10 -7 21t-7 20q0 4 4.5 12.5t4.5 19.5q0 17 -2 26t-3 16t0.5 14t8.5 19q21 16 18 27t-14 0q0 -1 -6.5 -6t-6.5 -1v2q5 15 2.5 22t-2.5 19q0 11 2.5 17.5l2.5 6.5q0 22 -4.5 36.5t-4.5 27.5
q0 10 8 24zM116 197v13h-9v-13h9zM147 121v18h-9v-18h9zM255 107v27h-9v-27h9zM116 62v14h-9v-14h9z" />
    <glyph glyph-name="currency" unicode="&#xa4;" horiz-adv-x="673" 
d="M97 574q12 -17 20.5 -32.5t18.5 -27.5t23 -19t33 -7q8 0 9 1q9 12 26 19.5t36 12.5t38.5 6.5t33.5 1.5q5 0 17 -2t26.5 -5t27.5 -6t19 -5q11 -3 36 -31q18 10 34 25t30 28t25 22.5t17 9.5q12 0 30 -16t30 -33h-9q-12 -22 -18 -27q-19 -16 -32.5 -28t-21.5 -22
q-14 -17 -14 -20q0 -2 1 -2q12 -21 28.5 -49t16.5 -61q0 -103 -50 -168q6 -6 13 -17.5t13.5 -22.5t11.5 -19.5t7 -8.5q14 0 23 -9.5t26 -30.5q-24 -32 -58 -48v-9q-8 5 -19.5 22t-16.5 26q-7 10 -19.5 14t-16.5 8q-12 15 -13 32q-13 -12 -27 -22t-25 -10q-3 0 -4.5 5t-6.5 5
l-10 -3.5t-23.5 -7.5t-27 -7.5t-20.5 -4.5q-16 -5 -20 -5h-20h-18q-23 2 -33.5 9.5t-17 15.5t-13.5 14.5t-24 6.5q-5 0 -20 -19q0 7 -2.5 5.5t-7.5 -7t-13.5 -11t-21.5 -5.5v-22l-36 -35q-12 39 -44 62q8 3 22 16.5t27 29t22.5 29.5t9.5 19q0 2 -10 18q-15 30 -16.5 54
t-5.5 49q-7 13 -7 22t2.5 16t5.5 14t3 18v2q-5 14 -1 25.5t11.5 22t14.5 22t7 25.5q0 9 -11 20t-25.5 23t-28.5 25t-20 26l30 30t23 28zM393 489v9h-17v-9h17zM268 462q0 -8 4 -9q0 -12 -10 -15t-26 -3q-46 -31 -65.5 -81.5t-19.5 -100.5q0 -17 3 -26.5t7.5 -18t10.5 -19
t11 -28.5q24 -37 69.5 -56.5t98.5 -19.5q26 0 48.5 17t47.5 32q6 6 17.5 18t21.5 27t15.5 30.5t-0.5 27.5q0 15 4.5 34.5t4.5 33.5q0 52 -36 76q-11 5 -17 23t-19 26q-68 41 -139 32q-3 9 -17 9t-14 -9zM539 403h-15v-15q15 0 15 15zM539 264h-11q-4 -24 -9.5 -40.5
t-5.5 -29.5q9 0 14.5 7t8 17.5t3 23t0.5 22.5zM425 67v18h-9v-18h9z" />
    </font>
</defs>
</svg>
